<?xml version="1.0" encoding="UTF-8"?>
<svg version="1.1" xmlns="http://www.w3.org/2000/svg" width="400" height="400">
<path d="M0 0 C132 0 264 0 400 0 C400 132 400 264 400 400 C268 400 136 400 0 400 C0 268 0 136 0 0 Z " fill="#090709" transform="translate(0,0)"/>
<path d="M0 0 C21.45 0 42.9 0 65 0 C65 4.62 65 9.24 65 14 C65.66 13.67 66.32 13.34 67 13 C69.55362604 12.91341431 72.0795442 12.88437484 74.6328125 12.90234375 C75.76056595 12.90446617 75.76056595 12.90446617 76.91110229 12.90663147 C79.3157751 12.91223535 81.72035527 12.92478843 84.125 12.9375 C85.75390491 12.9425145 87.38281127 12.9470775 89.01171875 12.95117188 C93.00784827 12.96220603 97.00390842 12.97947321 101 13 C100.01 13.33 99.02 13.66 98 14 C98 18.29 98 22.58 98 27 C109.88 27 121.76 27 134 27 C133.01 27.33 132.02 27.66 131 28 C131.06058594 28.92296875 131.12117187 29.8459375 131.18359375 30.796875 C131.57824467 36.94128629 131.96411463 43.08397409 132.25390625 49.234375 C132.29523682 50.1099707 132.33656738 50.98556641 132.37915039 51.88769531 C132.45790393 53.59004453 132.53404257 55.29251735 132.60717773 56.99511719 C132.77990916 60.72793022 133.0188769 64.40566637 133.5234375 68.109375 C134.00355289 72.02900558 134.13305512 75.80299111 134.125 79.75 C134.12757813 81.02359375 134.13015625 82.2971875 134.1328125 83.609375 C134.02271674 86.42005504 133.6761767 88.33217022 133 91 C132.62069817 93.23541092 132.26119207 95.47421149 131.9140625 97.71484375 C131.70328953 99.05536442 131.49234619 100.39585831 131.28125 101.73632812 C130.954726 103.82204878 130.62955937 105.90795175 130.30761719 107.99438477 C126.33625956 133.66374044 126.33625956 133.66374044 124 136 C121.92737924 136.08767112 119.85179706 136.10695873 117.77734375 136.09765625 C116.51728516 136.09443359 115.25722656 136.09121094 113.95898438 136.08789062 C112.61848891 136.07953403 111.27799412 136.07106907 109.9375 136.0625 C108.59310058 136.0574866 107.2486994 136.05292342 105.90429688 136.04882812 C102.60282059 136.03699488 99.30143197 136.02050971 96 136 C95.93941406 136.84304688 95.87882812 137.68609375 95.81640625 138.5546875 C95.69072266 140.19824219 95.69072266 140.19824219 95.5625 141.875 C95.44068359 143.51082031 95.44068359 143.51082031 95.31640625 145.1796875 C95 148 95 148 94 150 C84.1 150 74.2 150 64 150 C64 153.96 64 157.92 64 162 C63.67 162.66 63.34 163.32 63 164 C42.21 164 21.42 164 0 164 C-0.66614877 155.34006597 -1.12876399 146.96857387 -1.0625 138.32421875 C-1.05871338 137.15655472 -1.05492676 135.98889069 -1.05102539 134.7858429 C-1.0349523 129.86458709 -1.00702706 124.94341981 -0.97949219 120.0222168 C-0.91615436 107.59216843 -0.90950348 95.20227791 -1.52734375 82.78515625 C-2.13502155 70.42047163 -1.89757368 58.12004197 -1.5625 45.75 C-1.48278316 42.54630365 -1.4052989 39.34256052 -1.32846069 36.13879395 C-1.27939271 34.1038484 -1.22899315 32.06893446 -1.17715454 30.03405762 C-1.03458201 24.27517863 -0.95525368 18.52711689 -1.07788086 12.76660156 C-0.9577074 8.49761824 -0.42494799 4.24947991 0 0 Z " fill="#030102" transform="translate(214,125)"/>
<path d="M0 0 C21.45 0 42.9 0 65 0 C65.58715389 23.19257865 66.1035669 46.36311335 66.125 69.5625 C66.12874634 70.99583679 66.12874634 70.99583679 66.13256836 72.45812988 C66.13840972 75.16092648 66.13700787 77.86360868 66.1328125 80.56640625 C66.13578842 81.76497002 66.13578842 81.76497002 66.13882446 82.98774719 C66.12400726 86.49676357 65.94156788 89.62390172 65 93 C65.99 93.33 66.98 93.66 68 94 C66.68 94.33 65.36 94.66 64 95 C64.32498978 95.86111389 64.64997955 96.72222778 64.9848175 97.60943604 C66.00953039 101.03183015 66.2476835 103.69125112 66.24291992 107.24902344 C66.24599655 108.46338074 66.24907318 109.67773804 66.25224304 110.92889404 C66.24146477 112.87448212 66.24146477 112.87448212 66.23046875 114.859375 C66.22927535 116.21364295 66.22882413 117.56791173 66.2290802 118.92218018 C66.22752152 121.74976844 66.21927597 124.57722899 66.20581055 127.40478516 C66.18875636 131.03201575 66.18499841 134.65910714 66.18575573 138.28637314 C66.18548421 141.07785372 66.18000697 143.86930378 66.17275429 146.66077423 C66.16802205 148.64947641 66.1662922 150.638185 66.16459656 152.62689209 C66.15821671 153.82864075 66.15183685 155.0303894 66.14526367 156.26855469 C66.14145187 157.32967468 66.13764008 158.39079468 66.13371277 159.48406982 C66 162 66 162 65 164 C56.80309439 164.0231271 48.60620232 164.04091696 40.40927219 164.05181217 C36.60348423 164.0570402 32.79771852 164.06413638 28.99194336 164.07543945 C25.32207456 164.0862712 21.65222722 164.09227744 17.98234367 164.09487724 C16.57925008 164.09673097 15.17615771 164.1003506 13.7730732 164.10573006 C11.8143032 164.11294419 9.8555118 164.11340809 7.89672852 164.11352539 C6.22127708 164.11685631 6.22127708 164.11685631 4.51197815 164.12025452 C2 164 2 164 1 163 C0.67 158.71 0.34 154.42 0 150 C-9.57 150 -19.14 150 -29 150 C-31 144 -31 144 -31 136 C-40.57 136 -50.14 136 -60 136 C-61.7679695 131.58007626 -62.71171979 127.62290553 -63.4375 122.98046875 C-63.56310303 122.2042366 -63.68870605 121.42800446 -63.81811523 120.62825012 C-64.08298902 118.98380821 -64.34505398 117.33891173 -64.60449219 115.69360352 C-64.99285154 113.23279562 -65.39013995 110.77356811 -65.7890625 108.31445312 C-70.54997756 78.7420146 -70.54997756 78.7420146 -69.6875 67.625 C-69.63335937 66.77123779 -69.57921875 65.91747559 -69.5234375 65.0378418 C-69.20644584 60.2262955 -68.8004641 55.42747662 -68.25 50.63671875 C-67.81642629 46.06387103 -67.61267815 41.47357119 -67.39257812 36.88598633 C-67.21108868 33.41659274 -66.84720133 30.38880531 -66 27 C-55.44 26.67 -44.88 26.34 -34 26 C-33.67 22.04 -33.34 18.08 -33 14 C-29.30335127 13.07583782 -26.2713592 12.8040887 -22.484375 12.68359375 C-21.23398438 12.64169922 -19.98359375 12.59980469 -18.6953125 12.55664062 C-16.74238281 12.49766602 -16.74238281 12.49766602 -14.75 12.4375 C-12.77386719 12.37272461 -12.77386719 12.37272461 -10.7578125 12.30664062 C-7.50533146 12.20058146 -4.25267947 12.09978847 -1 12 C-0.67 8.04 -0.34 4.08 0 0 Z " fill="#020002" transform="translate(117,125)"/>
<path d="M0 0 C2.72883527 3.41104408 5.04805163 6.50953042 7.3203125 10.17578125 C7.93302002 11.160625 8.54572754 12.14546875 9.17700195 13.16015625 C9.81984131 14.20042969 10.46268066 15.24070313 11.125 16.3125 C12.47525697 18.48567923 13.82551739 20.65885631 15.17578125 22.83203125 C15.83143066 23.88986816 16.48708008 24.94770508 17.16259766 26.03759766 C19.53619525 29.8644955 21.9230376 33.68299697 24.3125 37.5 C25.10036212 38.76035309 25.88812396 40.02076889 26.67578125 41.28125 C27.05686035 41.89097656 27.43793945 42.50070312 27.83056641 43.12890625 C35.7203776 55.75260417 43.6101888 68.37630208 51.5 81 C51.9122583 81.65959717 52.3245166 82.31919434 52.74926758 82.9987793 C53.5851008 84.33614509 54.42087526 85.67354761 55.2565918 87.01098633 C57.30120375 90.28292225 59.34673129 93.55427702 61.39453125 96.82421875 C66.11800471 104.36950752 70.8177383 111.92906019 75.5 119.5 C79.27992879 125.61155032 83.06461981 131.71988163 86.875 137.8125 C87.25648193 138.42311279 87.63796387 139.03372559 88.03100586 139.6628418 C90.651266 143.85366838 93.28306157 148.03711645 95.91796875 152.21875 C97.2994925 154.41665828 98.68100293 156.61457495 100.0625 158.8125 C100.73071777 159.86993408 101.39893555 160.92736816 102.08740234 162.0168457 C102.70953613 163.00773193 103.33166992 163.99861816 103.97265625 165.01953125 C104.53218994 165.90745361 105.09172363 166.79537598 105.66821289 167.71020508 C107 170 107 170 108 173 C72.36 173 36.72 173 0 173 C0 115.91 0 58.82 0 0 Z " fill="#F98902" transform="translate(0,227)"/>
<path d="M0 0 C15.84 0 31.68 0 48 0 C48 4.62 48 9.24 48 14 C58.89 14 69.78 14 81 14 C81 18.62 81 23.24 81 28 C91.89 28 102.78 28 114 28 C114.495 35.05375 114.495 35.05375 115 42.25 C115.15662109 44.43544434 115.15662109 44.43544434 115.31640625 46.66503906 C115.39761719 47.85323242 115.47882813 49.04142578 115.5625 50.265625 C115.64628906 51.45961914 115.73007812 52.65361328 115.81640625 53.88378906 C116.05579215 59.25087198 116 64.62758112 116 70 C105.44 70 94.88 70 84 70 C84 74.62 84 79.24 84 84 C73.11 84 62.22 84 51 84 C51 88.62 51 93.24 51 98 C50.83335012 101.3377008 50.64211322 104.64817896 50.37890625 107.9765625 C50.31468979 108.83510834 50.25047333 109.69365417 50.18431091 110.57821655 C50.04978743 112.36109248 49.91275055 114.14378056 49.77319336 115.92626953 C49.56017309 118.65480499 49.35669587 121.38393934 49.15429688 124.11328125 C49.02138807 125.85941731 48.88794453 127.60551278 48.75390625 129.3515625 C48.6934462 130.16194977 48.63298615 130.97233704 48.57069397 131.80728149 C48.29014927 135.33984153 47.86245612 138.55017552 47 142 C31.16 142 15.32 142 -1 142 C-0.67 117.91 -0.34 93.82 0 69 C10.89 69 21.78 69 33 69 C33 64.38 33 59.76 33 55 C43.89 55 54.78 55 66 55 C66 50.38 66 45.76 66 41 C55.11 41 44.22 41 33 41 C33 36.71 33 32.42 33 28 C22.11 28 11.22 28 0 28 C0 18.76 0 9.52 0 0 Z " fill="#F99401" transform="translate(222,136)"/>
<path d="M0 0 C16.17 0 32.34 0 49 0 C49 9.24 49 18.48 49 28 C37.78 28 26.56 28 15 28 C15 32.62 15 37.24 15 42 C4.44 42 -6.12 42 -17 42 C-17 46.29 -17 50.58 -17 55 C-6.44 55 4.12 55 15 55 C15 59.95 15 64.9 15 70 C25.56 70 36.12 70 47 70 C47 79.24 47 88.48 47 98 C30.83 98 14.66 98 -2 98 C-2 93.38 -2 88.76 -2 84 C-12.89 84 -23.78 84 -35 84 C-35 79.38 -35 74.76 -35 70 C-45.89 70 -56.78 70 -68 70 C-68 56.5 -68 56.5 -67.5625 50.265625 C-67.48128906 49.07743164 -67.40007812 47.88923828 -67.31640625 46.66503906 C-67.21199219 45.20807617 -67.10757813 43.75111328 -67 42.25 C-66.67 37.5475 -66.34 32.845 -66 28 C-55.11 28 -44.22 28 -33 28 C-33 23.38 -33 18.76 -33 14 C-22.11 14 -11.22 14 0 14 C0 9.38 0 4.76 0 0 Z " fill="#F69602" transform="translate(125,136)"/>
<path d="M0 0 C2.73025164 2.73025164 4.38681597 5.04343208 6.37109375 8.3125 C7.34671265 9.91085693 7.34671265 9.91085693 8.34204102 11.54150391 C8.68357208 12.10524719 9.02510315 12.66899048 9.37698364 13.24981689 C11.17755027 16.221314 12.99212701 19.18424712 14.8046875 22.1484375 C15.16633499 22.74071136 15.52798248 23.33298523 15.90058899 23.94320679 C18.90935214 28.86623362 21.96984749 33.75436587 25.0625 38.625 C29.50535097 45.62963787 33.91868892 52.65198339 38.3125 59.6875 C38.94220703 60.69554687 39.57191406 61.70359375 40.22070312 62.7421875 C43.41487235 67.85675755 46.60665192 72.97281153 49.796875 78.08984375 C51.05198646 80.10162294 52.30719412 82.11334212 53.5625 84.125 C54.17270996 85.10380127 54.78291992 86.08260254 55.41162109 87.09106445 C58.59616848 92.18962504 61.80586332 97.27024333 65.0546875 102.328125 C65.70622803 103.34374512 66.35776855 104.35936523 67.02905273 105.40576172 C68.27709412 107.34751422 69.52905435 109.28675493 70.78540039 111.22314453 C71.3396167 112.08536621 71.89383301 112.94758789 72.46484375 113.8359375 C72.955896 114.59438965 73.44694824 115.3528418 73.95288086 116.13427734 C75 118 75 118 75 120 C50.25 120 25.5 120 0 120 C0 80.4 0 40.8 0 0 Z " fill="#FBCB06" transform="translate(0,280)"/>
<path d="M0 0 C1 1 2 2 3 3 C3.99 2.67 4.98 2.34 6 2 C6 2.66 6 3.32 6 4 C7.32 3.01 8.64 2.02 10 1 C10.66 1.33 11.32 1.66 12 2 C12 2.99 12 3.98 12 5 C12.66 5 13.32 5 14 5 C14 4.34 14 3.68 14 3 C14.99 3 15.98 3 17 3 C17.33 2.01 17.66 1.02 18 0 C18.66 0.33 19.32 0.66 20 1 C20 1.99 20 2.98 20 4 C20.66 3.01 21.32 2.02 22 1 C24.625 0.3125 24.625 0.3125 27 0 C27.33 1.32 27.66 2.64 28 4 C28.66 2.68 29.32 1.36 30 0 C30 0.99 30 1.98 30 3 C32.86724686 2.42655063 33.8614515 2.1385485 36 0 C42.75 1.625 42.75 1.625 45 5 C45 4.34 45 3.68 45 3 C56.22 3 67.44 3 79 3 C79 7.62 79 12.24 79 17 C89.56 17 100.12 17 111 17 C111 26.24 111 35.48 111 45 C94.83 45 78.66 45 62 45 C62 40.38 62 35.76 62 31 C51.11 31 40.22 31 29 31 C29 26.38 29 21.76 29 17 C18.11 17 7.22 17 -4 17 C-4 4 -4 4 0 0 Z " fill="#FBB502" transform="translate(61,189)"/>
<path d="M0 0 C0.5775 0.515625 1.155 1.03125 1.75 1.5625 C3.87827523 3.26505193 3.87827523 3.26505193 6.25 2.6875 C6.8275 2.460625 7.405 2.23375 8 2 C8.495 2.99 8.495 2.99 9 4 C12.41656024 4.16677282 12.41656024 4.16677282 16 4 C16.66 3.34 17.32 2.68 18 2 C18 2.99 18 3.98 18 5 C18.99 5 19.98 5 21 5 C21 8.96 21 12.92 21 17 C10.44 17 -0.12 17 -11 17 C-11 21.62 -11 26.24 -11 31 C-21.89 31 -32.78 31 -44 31 C-44 35.62 -44 40.24 -44 45 C-60.5 45 -77 45 -94 45 C-94 35.76 -94 26.52 -94 17 C-83.11 17 -72.22 17 -61 17 C-61 12.38 -61 7.76 -61 3 C-45.33333333 3 -29.66666667 3 -14 3 C-14 3.66 -14 4.32 -14 5 C-13.38125 4.649375 -12.7625 4.29875 -12.125 3.9375 C-11.42375 3.628125 -10.7225 3.31875 -10 3 C-9.01 3.495 -9.01 3.495 -8 4 C-7.67 3.01 -7.34 2.02 -7 1 C-7 1.66 -7 2.32 -7 3 C-5.02 3 -3.04 3 -1 3 C-0.67 2.01 -0.34 1.02 0 0 Z " fill="#FAB403" transform="translate(317,189)"/>
<path d="M0 0 C10.89 0 21.78 0 33 0 C33 0.33 33 0.66 33 1 C22.44 1 11.88 1 1 1 C1 5.62 1 10.24 1 15 C-9.89 15 -20.78 15 -32 15 C-32 24.24 -32 33.48 -32 43 C-15.83 43 0.34 43 17 43 C17 52.53719128 16.88165826 61.73522704 16.0625 71.1875 C15.97548828 72.27869141 15.88847656 73.36988281 15.79882812 74.49414062 C15.4401994 78.8109679 15.05350942 82.78596232 14 87 C-1.84 87 -17.68 87 -34 87 C-33.67 62.91 -33.34 38.82 -33 14 C-22.11 14 -11.22 14 0 14 C0 9.38 0 4.76 0 0 Z " fill="#8B4C00" transform="translate(255,191)"/>
<path d="M0 0 C10.89 0 21.78 0 33 0 C33.1448482 6.53886142 33.28799798 13.07772139 33.42724609 19.61669922 C33.47482514 21.82928438 33.52329119 24.04185068 33.57275391 26.25439453 C33.6447407 29.48204749 33.71325473 32.70976074 33.78125 35.9375 C33.80312378 36.88544434 33.82499756 37.83338867 33.84753418 38.81005859 C34.08063304 50.21079712 34 61.5885543 34 73 C18.16 73 2.32 73 -14 73 C-14.66 66.07 -15.32 59.14 -16 52 C-16.37125 48.803125 -16.7425 45.60625 -17.125 42.3125 C-18.11201963 33.18256842 -18.1972764 24.17335274 -18 15 C-17.67 15 -17.34 15 -17 15 C-17 19.62 -17 24.24 -17 29 C-0.83 29 15.34 29 32 29 C32 19.76 32 10.52 32 1 C21.44 1 10.88 1 0 1 C0 0.67 0 0.34 0 0 Z " fill="#894C02" transform="translate(140,205)"/>
<path d="M0 0 C0.99 0 1.98 0 3 0 C3.85695967 5.88400655 4.12539234 11.55909292 4.0625 17.5 C4.05798828 18.32242188 4.05347656 19.14484375 4.04882812 19.9921875 C4.03718489 21.99482396 4.01925556 23.99742227 4 26 C2.68 26 1.36 26 0 26 C-1.093125 26.04125 -2.18625 26.0825 -3.3125 26.125 C-7.18587774 25.99369906 -10.31682126 25.15550705 -14 24 C-14.66 24 -15.32 24 -16 24 C-16.66 24.66 -17.32 25.32 -18 26 C-18 25.34 -18 24.68 -18 24 C-22.34066205 23.73692957 -25.86195292 24.75077824 -30 26 C-30.66 26 -31.32 26 -32 26 C-32 25.34 -32 24.68 -32 24 C-32.66 24 -33.32 24 -34 24 C-34.33 24.66 -34.66 25.32 -35 26 C-38 26 -38 26 -45 24 C-45 19.05 -45 14.1 -45 9 C-55.56 9 -66.12 9 -77 9 C-77 7.35 -77 5.7 -77 4 C-75.02 4 -73.04 4 -71 4 C-71 4.66 -71 5.32 -71 6 C-70.13375 5.71125 -69.2675 5.4225 -68.375 5.125 C-63.6875 3.5625 -63.6875 3.5625 -59 2 C-58.01 3.32 -57.02 4.64 -56 6 C-56 5.34 -56 4.68 -56 4 C-48.25 3.875 -48.25 3.875 -46 5 C-46 4.34 -46 3.68 -46 3 C-46.99 2.67 -47.98 2.34 -49 2 C-48.01 1.67 -47.02 1.34 -46 1 C-45.071875 1.474375 -44.14375 1.94875 -43.1875 2.4375 C-37.54660385 5.12364102 -31.08861501 4.22800639 -25 4 C-24.67 3.01 -24.34 2.02 -24 1 C-23.34 1.495 -22.68 1.99 -22 2.5 C-18.01222047 4.49388976 -15.43155635 4.21794539 -11 4 C-10.34 4 -9.68 4 -9 4 C-8.38125 3.835 -7.7625 3.67 -7.125 3.5 C-5 3 -5 3 -1 3 C-0.67 2.01 -0.34 1.02 0 0 Z " fill="#FCA601" transform="translate(333,168)"/>
<path d="M0 0 C2.72043684 2.4644139 4.47134 5.18268416 6.37109375 8.3125 C7.34671265 9.91085693 7.34671265 9.91085693 8.34204102 11.54150391 C8.68357208 12.10524719 9.02510315 12.66899048 9.37698364 13.24981689 C11.17755027 16.221314 12.99212701 19.18424712 14.8046875 22.1484375 C15.16633499 22.74071136 15.52798248 23.33298523 15.90058899 23.94320679 C18.90935214 28.86623362 21.96984749 33.75436587 25.0625 38.625 C29.50535097 45.62963787 33.91868892 52.65198339 38.3125 59.6875 C38.94220703 60.69554687 39.57191406 61.70359375 40.22070312 62.7421875 C43.41487235 67.85675755 46.60665192 72.97281153 49.796875 78.08984375 C51.05198646 80.10162294 52.30719412 82.11334212 53.5625 84.125 C54.17270996 85.10380127 54.78291992 86.08260254 55.41162109 87.09106445 C58.59616848 92.18962504 61.80586332 97.27024333 65.0546875 102.328125 C65.70622803 103.34374512 66.35776855 104.35936523 67.02905273 105.40576172 C68.27709412 107.34751422 69.52905435 109.28675493 70.78540039 111.22314453 C71.3396167 112.08536621 71.89383301 112.94758789 72.46484375 113.8359375 C72.955896 114.59438965 73.44694824 115.3528418 73.95288086 116.13427734 C75 118 75 118 75 120 C71.79834441 120.69726778 69.18593722 120.84115286 66 120 C62.78866732 116.93186271 60.72429694 113.25629094 58.5 109.4375 C57.84837891 108.37845459 57.19675781 107.31940918 56.52539062 106.22827148 C54.65214952 103.16980929 52.8214462 100.08950162 51 97 C50.18978232 95.65747413 49.37767601 94.31608349 48.5625 92.9765625 C47.16756879 90.66752865 45.78518484 88.35417391 44.4140625 86.03125 C39.43223953 77.64625966 34.16722888 69.42873444 28.98486328 61.16699219 C27.02698544 58.0430572 25.07321081 54.91660008 23.12109375 51.7890625 C22.48905029 50.77763184 21.85700684 49.76620117 21.20581055 48.72412109 C19.94925747 46.70877523 18.69677363 44.69088619 17.44848633 42.67041016 C14.53232098 37.96536918 11.56888604 33.32980468 8.390625 28.796875 C1.57344347 18.93326243 -1.96797951 12.19053977 0 0 Z " fill="#130C0A" transform="translate(0,280)"/>
<path d="M0 0 C4.49659864 4.49659864 4.49659864 4.49659864 6.375 7.66015625 C6.79692627 8.36197021 7.21885254 9.06378418 7.65356445 9.78686523 C8.09788818 10.53782471 8.54221191 11.28878418 9 12.0625 C9.97122597 13.68054688 10.94393389 15.29770496 11.91796875 16.9140625 C12.42118652 17.74969727 12.9244043 18.58533203 13.44287109 19.44628906 C16.46990581 24.41066397 19.61444448 29.30214298 22.76367188 34.18969727 C26.48368307 40.01861522 29.66455859 45.88502408 33 52 C22.11 52 11.22 52 0 52 C0 34.84 0 17.68 0 0 Z " fill="#0C090A" transform="translate(0,348)"/>
<path d="M0 0 C0.66 0.66 1.32 1.32 2 2 C4.32275177 2.40047444 6.65739357 2.7397104 9 3 C9.33 4.65 9.66 6.3 10 8 C10.66 8 11.32 8 12 8 C12 7.34 12 6.68 12 6 C13.32 6 14.64 6 16 6 C16.33 7.32 16.66 8.64 17 10 C17.33 8.35 17.66 6.7 18 5 C18.66 5.66 19.32 6.32 20 7 C20.33 5.68 20.66 4.36 21 3 C23.3125 2.75 23.3125 2.75 26 3 C27.5 5 27.5 5 29 7 C31.54258463 7.50014953 31.54258463 7.50014953 34 7 C34.66 6.34 35.32 5.68 36 5 C37.98821313 4.60235737 39.98944339 4.26224651 42 4 C42.495 5.485 42.495 5.485 43 7 C43.66 7 44.32 7 45 7 C45 6.34 45 5.68 45 5 C46.32 5 47.64 5 49 5 C49 9.62 49 14.24 49 19 C32.83 19 16.66 19 0 19 C0 12.73 0 6.46 0 0 Z " fill="#FDC804" transform="translate(223,215)"/>
<path d="M0 0 C0.33 0 0.66 0 1 0 C1 5.94 1 11.88 1 18 C-15.17 18 -31.34 18 -48 18 C-48 13.38 -48 8.76 -48 4 C-47.01 5.485 -47.01 5.485 -46 7 C-46 6.67 -46 6.34 -46 6 C-42.535 5.505 -42.535 5.505 -39 5 C-39 4.34 -39 3.68 -39 3 C-38.43023437 3.17660156 -37.86046875 3.35320312 -37.2734375 3.53515625 C-34.80144709 4.04059759 -33.10108121 3.8501802 -30.625 3.4375 C-26.49567679 2.88331914 -23.95178808 3.68273731 -20 5 C-16.79101437 4.2086563 -16.79101437 4.2086563 -14 3 C-13.34 3 -12.68 3 -12 3 C-12 3.99 -12 4.98 -12 6 C-11.34 6 -10.68 6 -10 6 C-10 5.34 -10 4.68 -10 4 C-8.68 4 -7.36 4 -6 4 C-6 4.66 -6 5.32 -6 6 C-4.02 6 -2.04 6 0 6 C-0.495 4.515 -0.495 4.515 -1 3 C-0.67 2.01 -0.34 1.02 0 0 Z " fill="#FEC802" transform="translate(171,216)"/>
<path d="M0 0 C10.89 0 21.78 0 33 0 C33 0.33 33 0.66 33 1 C22.44 1 11.88 1 1 1 C1 5.62 1 10.24 1 15 C-9.89 15 -20.78 15 -32 15 C-31.9278125 17.93003906 -31.855625 20.86007813 -31.78125 23.87890625 C-31.71131779 26.76846309 -31.64200756 29.65803425 -31.57275391 32.54760742 C-31.52489899 34.53069607 -31.47641415 36.51376964 -31.42724609 38.49682617 C-31.28715359 44.15627726 -31.15854268 49.81574523 -31.04980469 55.47589111 C-31.01850147 57.06234262 -30.98440988 58.64874406 -30.94628906 60.23504639 C-30.90090431 62.18641709 -30.87185723 64.13814773 -30.84375 66.08984375 C-30.82505859 67.12874756 -30.80636719 68.16765137 -30.78710938 69.23803711 C-31.10553161 74.86483559 -32.14303596 80.42973371 -33 86 C-17.82 86 -2.64 86 13 86 C13 82.04 13 78.08 13 74 C13.99 74.495 13.99 74.495 15 75 C15.07329796 79.39787789 15.07396066 82.70415737 14 87 C-1.84 87 -17.68 87 -34 87 C-33.67 62.91 -33.34 38.82 -33 14 C-22.11 14 -11.22 14 0 14 C0 9.38 0 4.76 0 0 Z " fill="#7A480B" transform="translate(255,191)"/>
<path d="M0 0 C5.0353859 -0.04954963 10.0706289 -0.08579037 15.10620117 -0.10986328 C16.81814039 -0.11990208 18.53006255 -0.13353595 20.24194336 -0.15087891 C22.70691142 -0.17522073 25.17165215 -0.18650438 27.63671875 -0.1953125 C28.77919319 -0.21079636 28.77919319 -0.21079636 29.94474792 -0.22659302 C34.08082741 -0.22746036 37.2812059 0.14221003 41 2 C41 2.33 41 2.66 41 3 C20.705 2.505 20.705 2.505 0 2 C0 1.34 0 0.68 0 0 Z " fill="#EDB40B" transform="translate(90,218)"/>
<path d="M0 0 C0.33 0 0.66 0 1 0 C1.66 1.98 2.32 3.96 3 6 C3.66 6 4.32 6 5 6 C4.67 6.99 4.34 7.98 4 9 C2.68 9 1.36 9 0 9 C0 6.03 0 3.06 0 0 Z " fill="#FAC91B" transform="translate(123,220)"/>
<path d="M0 0 C1.32 1.65 2.64 3.3 4 5 C2.68 6.65 1.36 8.3 0 10 C0 6.7 0 3.4 0 0 Z " fill="#EB860A" transform="translate(0,227)"/>
</svg>
