<?xml version="1.0" encoding="UTF-8"?>
<svg version="1.1" xmlns="http://www.w3.org/2000/svg" width="500" height="500">
<path d="M0 0 C2.24164662 0.00142375 4.48329042 0.00129453 6.72493744 0.00119781 C39.76885784 0.01170288 72.77817547 0.85997811 105.80110931 1.97842503 C110.5633532 2.13970337 115.32574311 2.29526063 120.08827972 2.44766998 C126.30762002 2.64727233 132.52663637 2.85476465 138.74544525 3.07028961 C140.97574067 3.14742908 143.20608582 3.22314848 145.43648529 3.29721832 C156.34524406 3.66501494 167.21724005 4.18947255 178.09218597 5.14200592 C178.98958496 5.21878571 179.88698395 5.29556549 180.81157684 5.37467194 C198.48888146 7.03691244 213.5990802 15.04312205 225.79921722 27.93888092 C237.60854943 42.32026909 241.64487091 63.12938464 244.04921722 81.18888092 C244.14154633 81.87659576 244.23387543 82.56431061 244.32900238 83.2728653 C245.09084395 89.23032907 245.58879182 95.20149789 246.04921722 101.18888092 C246.14090179 102.3295401 246.23258636 103.47019928 246.32704926 104.64542389 C249.84719408 150.49069416 249.36083582 197.34661778 246.04921722 243.18888092 C245.93706879 244.84597076 245.93706879 244.84597076 245.82265472 246.53653717 C243.97472777 273.05771099 239.53260474 303.36783159 219.04921722 322.18888092 C198.91609479 338.77872485 174.89985934 338.72126866 149.98671722 340.25138092 C148.73761566 340.33065826 147.4885141 340.40993561 146.20156097 340.4916153 C117.051039 342.24001744 87.83114795 342.3441073 58.63945293 342.32320642 C53.8385609 342.32060606 49.0376704 342.32304117 44.23677826 342.32459259 C36.18255513 342.32639327 28.12834128 342.32406482 20.07411957 342.31925201 C10.88161114 342.31382099 1.68912496 342.31557227 -7.50338292 342.32107842 C-15.5182219 342.32567942 -23.53305436 342.32622641 -31.54789424 342.32363975 C-36.28094135 342.32211372 -41.01397817 342.32177771 -45.74702454 342.32517624 C-64.78695478 342.33694376 -83.81391738 342.22688479 -102.84824371 341.73526764 C-103.62869946 341.71532187 -104.40915521 341.6953761 -105.21326113 341.67482591 C-184.37750985 339.60083631 -184.37750985 339.60083631 -205.95078278 326.18888092 C-205.95078278 325.52888092 -205.95078278 324.86888092 -205.95078278 324.18888092 C-206.69714996 323.92462311 -207.44351715 323.6603653 -208.21250153 323.38809967 C-218.44301271 318.90769035 -223.77257141 307.1273556 -227.72080231 297.26554108 C-236.17642057 274.39012628 -237.96931375 249.82633315 -238.60971832 225.67740631 C-238.75627732 220.20951223 -238.96059658 214.78831763 -239.46640778 209.34122467 C-240.32580249 198.79634816 -240.14748133 188.19858579 -240.13828278 177.62638092 C-240.13801086 176.4567984 -240.13773895 175.28721588 -240.1374588 174.08219147 C-240.11844361 156.10629764 -239.78762293 138.15285547 -239.13828278 120.18888092 C-239.10334717 119.13361206 -239.06841156 118.0783432 -239.0324173 116.9910965 C-237.98179712 86.18285881 -234.23220931 56.33937661 -218.95078278 29.18888092 C-218.29078278 29.18888092 -217.63078278 29.18888092 -216.95078278 29.18888092 C-216.69941559 28.60751373 -216.4480484 28.02614655 -216.18906403 27.42716217 C-210.41572274 16.99143802 -196.69614079 11.05080659 -185.82578278 7.87638092 C-180.27584977 6.58013498 -174.81168654 5.71064246 -169.14438629 5.13443756 C-168.32037858 5.04967446 -167.49637087 4.96491137 -166.64739323 4.87757969 C-157.76920842 4.00885519 -148.89091718 3.65674393 -139.97812653 3.37247467 C-138.20015948 3.31098708 -136.42221082 3.24896628 -134.64427948 3.18645477 C-130.93252602 3.05729802 -127.22066421 2.93244304 -123.5086441 2.81119537 C-118.89179899 2.66035469 -114.27525556 2.50199865 -109.65876389 2.34073925 C-73.11562914 1.06592796 -36.56818295 -0.02345752 0 0 Z " fill="#DC2B27" transform="translate(244.9507827758789,93.81111907958984)"/>
<path d="M0 0 C8.42399533 3.36959813 16.25460019 7.66647446 24.13452148 12.14111328 C30.3384204 15.65350513 36.60111874 19.05199586 42.875 22.4375 C54.82434224 28.89070669 66.75526164 35.37622595 78.50927734 42.18041992 C83.59969726 45.12543846 88.72306694 47.90257628 94 50.5 C99.7062234 53.31221815 105.22288737 56.34515686 110.71875 59.546875 C114.25134267 61.59224616 117.82502534 63.55675328 121.40625 65.515625 C122.54151123 66.14009521 123.67677246 66.76456543 124.84643555 67.40795898 C127.13823621 68.66726285 129.43392956 69.91951086 131.73364258 71.16430664 C133.31375122 72.03623657 133.31375122 72.03623657 134.92578125 72.92578125 C135.87880127 73.44567627 136.83182129 73.96557129 137.8137207 74.5012207 C140 76 140 76 141 79 C140.33057373 79.3623877 139.66114746 79.72477539 138.97143555 80.09814453 C135.87669418 81.77358543 132.78209647 83.44929149 129.6875 85.125 C128.63498047 85.69476563 127.58246094 86.26453125 126.49804688 86.8515625 C121.5056285 89.55514906 116.51586078 92.26316967 111.53515625 94.98828125 C106.45756489 97.76062143 101.35356562 100.48177017 96.24682617 103.19995117 C86.15515058 108.57517934 76.11555706 114.0134613 66.1875 119.6875 C57.61224416 124.5875393 48.92590402 129.22142692 40.15136719 133.75366211 C30.6109856 138.69086717 21.26922829 143.93920951 11.98046875 149.33203125 C11.33215088 149.70682617 10.68383301 150.08162109 10.01586914 150.46777344 C8.23970307 151.49609218 6.46737031 152.53102396 4.6953125 153.56640625 C2 155 2 155 0 155 C0 103.85 0 52.7 0 0 Z " fill="#FDFAFA" transform="translate(198,181)"/>
<path d="M0 0 C2.21988144 0.0010021 4.43975619 -0.00002621 6.65963745 -0.0012207 C41.80353856 -0.00819964 76.91711431 1.00271001 112.03829956 2.18847656 C112.03829956 2.51847656 112.03829956 2.84847656 112.03829956 3.18847656 C59.78714359 3.38271059 59.78714359 3.38271059 43.03829956 2.68847656 C20.33915 1.75896804 -2.40406848 1.83309704 -25.10232544 2.76220703 C-33.16437925 3.08437705 -41.22289488 3.28999541 -49.28982544 3.44238281 C-50.3758757 3.46312363 -51.46192596 3.48386444 -52.58088684 3.50523376 C-58.05970262 3.60847045 -63.53856738 3.70522458 -69.01760864 3.7956543 C-71.04194387 3.8327062 -73.06627667 3.86989099 -75.09060669 3.90722656 C-76.02781555 3.92076675 -76.96502441 3.93430695 -77.93063354 3.94825745 C-79.23293915 3.97338661 -79.23293915 3.97338661 -80.56155396 3.99902344 C-81.31791641 4.01155151 -82.07427887 4.02407959 -82.8535614 4.0369873 C-84.94918414 4.12267661 -84.94918414 4.12267661 -86.87145996 4.68946838 C-89.55174027 5.3293382 -92.04996528 5.33674051 -94.80569458 5.36206055 C-96.57518211 5.3822953 -96.57518211 5.3822953 -98.38041687 5.40293884 C-99.65634201 5.41337723 -100.93226715 5.42381561 -102.24685669 5.43457031 C-103.58568598 5.45010525 -104.92450757 5.4663171 -106.26332092 5.48316956 C-111.92839464 5.5534312 -117.59355089 5.61315637 -123.25881958 5.6652832 C-144.79070443 5.84967055 -144.79070443 5.84967055 -166.22634888 7.75854492 C-171.48133449 8.36338346 -176.68130488 8.37819137 -181.96170044 8.18847656 C-178.08684838 5.7206213 -173.85697961 5.53489124 -169.39749146 5.11450195 C-168.55600083 5.03114877 -167.71451021 4.94779558 -166.84751987 4.86191654 C-157.90613241 4.01925082 -148.96250261 3.65827454 -139.98904419 3.37207031 C-138.21107715 3.31058272 -136.43312848 3.24856192 -134.65519714 3.18605042 C-130.94344368 3.05689367 -127.23158188 2.93203869 -123.51956177 2.81079102 C-118.90271666 2.65995034 -114.28617323 2.5015943 -109.66968155 2.34033489 C-73.12271937 1.06539008 -36.5719577 -0.02100841 0 0 Z " fill="#E98C89" transform="translate(244.96170043945313,93.8115234375)"/>
<path d="M0 0 C0.33 0 0.66 0 1 0 C8.56006224 53.46530502 10.78883067 123.1067509 -1 176 C-1.33 176 -1.66 176 -2 176 C-2.0292483 172.79168609 -2.04688189 169.58340693 -2.0625 166.375 C-2.07087891 165.47136719 -2.07925781 164.56773437 -2.08789062 163.63671875 C-2.09111328 162.75371094 -2.09433594 161.87070312 -2.09765625 160.9609375 C-2.10289307 160.15446777 -2.10812988 159.34799805 -2.11352539 158.51708984 C-2 156 -2 156 -1.51147461 153.15795898 C-0.93231919 149.58212351 -0.80353889 146.13306122 -0.71875 142.51171875 C-0.70034058 141.80908401 -0.68193115 141.10644928 -0.66296387 140.38252258 C-0.6046664 138.15092699 -0.55170468 135.91925743 -0.5 133.6875 C-0.4315432 130.75377412 -0.3577973 127.82024337 -0.28125 124.88671875 C-0.25095703 123.58951904 -0.22066406 122.29231934 -0.18945312 120.95581055 C-0.05730861 118.19661267 0.15797297 115.59706083 0.50927734 112.87207031 C1.23969326 106.64783826 1.14263569 100.41915069 1.1328125 94.16015625 C1.13382966 92.80625888 1.13516999 91.45236172 1.1368103 90.09846497 C1.13949275 86.495505 1.13507505 82.89258858 1.12857056 79.2896347 C1.12499581 77.05988944 1.12338078 74.83015061 1.12231445 72.60040283 C1.10791971 48.3900166 0.79105468 24.19869941 0 0 Z " fill="#E27C7B" transform="translate(489,187)"/>
<path d="M0 0 C0 0.33 0 0.66 0 1 C-0.59246521 1.01030746 -1.18493042 1.02061493 -1.79534912 1.03123474 C-7.95970506 1.13938458 -14.12391735 1.25397579 -20.28808594 1.37231445 C-22.58883662 1.41563606 -24.88961888 1.45731313 -27.19042969 1.49731445 C-30.49684161 1.55508395 -33.803095 1.61875949 -37.109375 1.68359375 C-38.13867126 1.70030624 -39.16796753 1.71701874 -40.22845459 1.73423767 C-41.18914856 1.75418289 -42.14984253 1.77412811 -43.13964844 1.79467773 C-44.40539703 1.81799416 -44.40539703 1.81799416 -45.69671631 1.84178162 C-47.96046038 1.92641262 -47.96046038 1.92641262 -49.93852234 2.50198364 C-52.60735378 3.14672588 -55.09847991 3.1483578 -57.84399414 3.17358398 C-59.61348167 3.19381874 -59.61348167 3.19381874 -61.41871643 3.21446228 C-62.69464157 3.22490067 -63.97056671 3.23533905 -65.28515625 3.24609375 C-66.62398554 3.26162869 -67.96280713 3.27784054 -69.30162048 3.29469299 C-74.9666942 3.36495464 -80.63185045 3.42467981 -86.29711914 3.47680664 C-107.82900399 3.66119399 -107.82900399 3.66119399 -129.26464844 5.57006836 C-134.51963405 6.1749069 -139.71960445 6.18971481 -145 6 C-141.24509535 3.66097929 -137.29685816 3.36222578 -132.9921875 2.9453125 C-132.16564667 2.86266144 -131.33910583 2.78001038 -130.48751831 2.69485474 C-118.39617019 1.57172325 -106.25770848 1.25048146 -94.125 0.875 C-92.82648102 0.83264221 -91.52796204 0.79028442 -90.19009399 0.74664307 C-60.12824179 -0.22815088 -30.07440169 -0.212431 0 0 Z " fill="#D65854" transform="translate(208,96)"/>
<path d="M0 0 C63.64691849 -0.72326044 63.64691849 -0.72326044 85 11 C82.7962922 12.32717683 81.49534564 13.04043638 78.89453125 12.828125 C78.20746094 12.63734375 77.52039063 12.4465625 76.8125 12.25 C76.11769531 12.06953125 75.42289062 11.8890625 74.70703125 11.703125 C73 11 73 11 72 9 C68.70129565 6.85468878 65.68706988 6.65930851 61.8125 6.4375 C56.09897172 6.09897172 56.09897172 6.09897172 55 5 C52.66606428 4.59845654 50.35649724 4.26162551 48.0078125 3.97265625 C47.29344025 3.8843605 46.57906799 3.79606476 45.8430481 3.70509338 C37.86574994 2.78188604 29.89746896 2.58427472 21.875 2.4375 C19.69026342 2.39317552 17.50565037 2.3463915 15.32107544 2.29469299 C13.36634855 2.24899633 11.41144535 2.21102794 9.45654297 2.17358398 C6.22690275 2.01139482 3.17363014 1.6037623 0 1 C0 0.67 0 0.34 0 0 Z " fill="#E48987" transform="translate(369,97)"/>
<path d="M0 0 C0.33 0 0.66 0 1 0 C3.71806785 11.49104489 4.68472394 22.66655739 5.1875 34.4375 C5.26914605 36.15174238 5.35182271 37.86593599 5.43554688 39.58007812 C5.63553716 43.71958836 5.82173158 47.85949981 6 52 C-2.40301099 39.39548351 -0.31653283 14.71877639 0 0 Z " fill="#E1817F" transform="translate(7,320)"/>
<path d="M0 0 C0.33 0 0.66 0 1 0 C1.53164647 42.29543009 1.53164647 42.29543009 -3 62 C-3.33 62 -3.66 62 -4 62 C-4.05896868 58.85424793 -4.09391603 55.7086414 -4.125 52.5625 C-4.14175781 51.68400391 -4.15851563 50.80550781 -4.17578125 49.90039062 C-4.2068606 45.68913932 -4.08187332 41.85318249 -3.02734375 37.765625 C-1.42325324 31.34428575 -1.57240539 24.77154116 -1.4375 18.1875 C-1.37756549 15.59756386 -1.31392981 13.00770998 -1.24609375 10.41796875 C-1.22216553 9.28125732 -1.1982373 8.1445459 -1.17358398 6.97338867 C-1.02798159 4.4793077 -0.72105048 2.3789217 0 0 Z " fill="#E68F8F" transform="translate(491,301)"/>
<path d="M0 0 C0 0.33 0 0.66 0 1 C-1.07894531 1.04898438 -2.15789062 1.09796875 -3.26953125 1.1484375 C-11.5070231 1.55056083 -19.679918 2.12601375 -27.875 3.0625 C-34.94402328 3.86668246 -41.87710657 4.25591234 -49 4 C-45.22082835 1.64543756 -41.20841691 1.31627005 -36.875 0.875 C-36.06764404 0.79008301 -35.26028809 0.70516602 -34.4284668 0.61767578 C-22.98595681 -0.44540067 -11.47788834 -0.1747015 0 0 Z " fill="#E38481" transform="translate(112,98)"/>
<path d="M0 0 C0.33 0 0.66 0 1 0 C1.538669 6.73336249 -0.0920889 12.16395832 -2.05078125 18.58984375 C-3.03630745 22.13043787 -3.50558186 25.44173885 -3.78515625 29.08984375 C-4.09881823 31.87858393 -4.99702279 34.39225925 -6 37 C-6.33 37 -6.66 37 -7 37 C-7.31081264 30.14576335 -6.15052885 24.04276092 -4.625 17.375 C-4.40328125 16.364375 -4.1815625 15.35375 -3.953125 14.3125 C-2.86701335 9.44416423 -1.71424292 4.69414182 0 0 Z " fill="#EEA09E" transform="translate(16,144)"/>
<path d="M0 0 C6.75 -0.125 6.75 -0.125 9 1 C9 1.66 9 2.32 9 3 C9.928125 2.95875 10.85625 2.9175 11.8125 2.875 C15 3 15 3 18 5 C18 5.66 18 6.32 18 7 C18.75925781 6.97679687 19.51851562 6.95359375 20.30078125 6.9296875 C21.29464844 6.91164063 22.28851563 6.89359375 23.3125 6.875 C24.29863281 6.85179687 25.28476563 6.82859375 26.30078125 6.8046875 C29 7 29 7 32 9 C20.58829208 9.68470248 9.8272426 6.72878428 0 1 C0 0.67 0 0.34 0 0 Z " fill="#DE7977" transform="translate(45,422)"/>
<path d="M0 0 C2.24767219 3.37150828 3.06912589 6.56171977 4 10.4375 C4.17370117 11.15107666 4.34740234 11.86465332 4.52636719 12.59985352 C6.71175415 21.75859295 8.31481461 30.55556176 8 40 C7.67 40 7.34 40 7 40 C6.87882812 39.08476562 6.75765625 38.16953125 6.6328125 37.2265625 C6.46523438 36.03804687 6.29765625 34.84953125 6.125 33.625 C5.88136719 31.84996094 5.88136719 31.84996094 5.6328125 30.0390625 C5.2697415 26.90433341 5.2697415 26.90433341 3 25 C2.65625 22.57421875 2.65625 22.57421875 2.5 19.6875 C2.33332401 16.63316251 2.11780426 14.29406102 0.9765625 11.4453125 C-0.07293151 8.8173795 -0.20884111 6.99617704 -0.125 4.1875 C-0.10695313 3.39730469 -0.08890625 2.60710937 -0.0703125 1.79296875 C-0.03550781 0.90544922 -0.03550781 0.90544922 0 0 Z " fill="#E37E7D" transform="translate(481,144)"/>
<path d="M0 0 C0.66 0.33 1.32 0.66 2 1 C1.21654285 2.17219543 0.42297164 3.33763668 -0.375 4.5 C-0.81585938 5.1496875 -1.25671875 5.799375 -1.7109375 6.46875 C-2.13632812 6.9740625 -2.56171875 7.479375 -3 8 C-3.66 8 -4.32 8 -5 8 C-5.2475 8.969375 -5.495 9.93875 -5.75 10.9375 C-6.1625 11.948125 -6.575 12.95875 -7 14 C-9.125 14.875 -9.125 14.875 -11 15 C-11 15.99 -11 16.98 -11 18 C-11.66 18 -12.32 18 -13 18 C-11.80100302 14.9168649 -10.52299523 11.93720508 -9 9 C-8.34 9 -7.68 9 -7 9 C-6.773125 8.443125 -6.54625 7.88625 -6.3125 7.3125 C-4.64103234 4.36753316 -2.44723648 2.31843456 0 0 Z " fill="#DF7C78" transform="translate(35,114)"/>
<path d="M0 0 C4.67692308 1.47692308 4.67692308 1.47692308 6.3125 4.125 C6.539375 4.74375 6.76625 5.3625 7 6 C7.66 6 8.32 6 9 6 C9.66 7.32 10.32 8.64 11 10 C6.97032739 8.78172689 3.39841445 7.52453645 0 5 C-0.875 2.875 -0.875 2.875 -1 1 C-0.67 0.67 -0.34 0.34 0 0 Z " fill="#D23530" transform="translate(231,194)"/>
<path d="M0 0 C1 3 1 3 -0.14453125 5.8828125 C-0.69496094 6.95273437 -1.24539063 8.02265625 -1.8125 9.125 C-2.35519531 10.20007813 -2.89789063 11.27515625 -3.45703125 12.3828125 C-5 15 -5 15 -7 16 C-7 14.35 -7 12.7 -7 11 C-6.01 10.67 -5.02 10.34 -4 10 C-4 7.69 -4 5.38 -4 3 C-2.68 2.67 -1.36 2.34 0 2 C0 1.34 0 0.68 0 0 Z " fill="#DF7372" transform="translate(479,390)"/>
<path d="M0 0 C2.0859151 0.42502027 4.16867991 0.86552046 6.25 1.3125 C7.41015625 1.55613281 8.5703125 1.79976563 9.765625 2.05078125 C12.85368022 2.95705833 14.61523474 3.8926703 17 6 C12.49016565 7.36661647 9.37909149 6.60005266 5 5 C4.67 4.34 4.34 3.68 4 3 C1.98330173 1.86649466 1.98330173 1.86649466 0 1 C0 0.67 0 0.34 0 0 Z " fill="#DA5E60" transform="translate(437,103)"/>
<path d="M0 0 C-3.46071755 2.9517885 -6.76756692 5.28901641 -11 7 C-13.375 6.6875 -13.375 6.6875 -15 6 C-14.34 5.01 -13.68 4.02 -13 3 C-9.875 2.8125 -9.875 2.8125 -7 3 C-7 2.34 -7 1.68 -7 1 C-4.53721199 -0.231394 -2.7204945 -0.07159196 0 0 Z " fill="#DF7775" transform="translate(456,421)"/>
<path d="M0 0 C4.83540096 2.61111652 8.87103901 5.37457083 13 9 C12.01 9.495 12.01 9.495 11 10 C8.375 9.0625 8.375 9.0625 6 8 C6 7.34 6 6.68 6 6 C5.195625 5.7525 4.39125 5.505 3.5625 5.25 C1 4 1 4 0.1875 1.875 C0.125625 1.25625 0.06375 0.6375 0 0 Z " fill="#DE6F70" transform="translate(454,109)"/>
<path d="M0 0 C0 0.66 0 1.32 0 2 C-4.08295699 5.08711382 -8.16939494 7.30034267 -13 9 C-15.2109375 8.57421875 -15.2109375 8.57421875 -17 8 C-14.54429825 6.66161267 -12.08570084 5.32913768 -9.625 4 C-8.92632812 3.6184375 -8.22765625 3.236875 -7.5078125 2.84375 C-2.2265625 0 -2.2265625 0 0 0 Z " fill="#CB3E3E" transform="translate(337,261)"/>
<path d="M0 0 C0.33 0 0.66 0 1 0 C1.34548714 6.33393082 0.29342747 11.10261508 -2 17 C-2.33 17 -2.66 17 -3 17 C-3.34548714 10.66606918 -2.29342747 5.89738492 0 0 Z " fill="#DD7370" transform="translate(16,144)"/>
<path d="M0 0 C7.75 0.875 7.75 0.875 10 2 C11.32860925 2.35169068 12.66158328 2.68770276 14 3 C13.01 3.495 13.01 3.495 12 4 C12.33 4.99 12.66 5.98 13 7 C8.1725201 5.58707905 4.2837641 3.57025846 0 1 C0 0.67 0 0.34 0 0 Z " fill="#CE3934" transform="translate(311,242)"/>
<path d="M0 0 C0.33 0 0.66 0 1 0 C0.93999894 1.6260287 0.8512115 3.25101549 0.75 4.875 C0.70359375 5.77992188 0.6571875 6.68484375 0.609375 7.6171875 C0 10 0 10 -2.046875 11.3203125 C-2.69140625 11.54460937 -3.3359375 11.76890625 -4 12 C-2.87204037 7.89100419 -1.66489182 3.92438786 0 0 Z " fill="#DE7675" transform="translate(21,132)"/>
<path d="M0 0 C0 0.66 0 1.32 0 2 C-0.99 2.33 -1.98 2.66 -3 3 C-3.144375 3.639375 -3.28875 4.27875 -3.4375 4.9375 C-4 7 -4 7 -6.0625 8.25 C-6.701875 8.4975 -7.34125 8.745 -8 9 C-8 5.06368636 -6.57142871 3.87394974 -4 1 C-2 0 -2 0 0 0 Z " fill="#DB5155" transform="translate(43,110)"/>
<path d="M0 0 C-0.99 0.495 -0.99 0.495 -2 1 C-2 1.99 -2 2.98 -2 4 C-4.02045442 3.39816251 -6.02111039 2.72693904 -8 2 C-8.33 1.34 -8.66 0.68 -9 0 C-5.93109813 -1.53445094 -3.29905734 -0.54984289 0 0 Z " fill="#D53C34" transform="translate(333,249)"/>
<path d="M0 0 C0.8971875 0.309375 0.8971875 0.309375 1.8125 0.625 C1.4825 1.615 1.1525 2.605 0.8125 3.625 C-2.4875 3.955 -5.7875 4.285 -9.1875 4.625 C-2.45881783 -0.42151163 -2.45881783 -0.42151163 0 0 Z " fill="#D34241" transform="translate(232.1875,318.375)"/>
<path d="M0 0 C0.66 0.33 1.32 0.66 2 1 C1.34 2.32 0.68 3.64 0 5 C0.66 5.66 1.32 6.32 2 7 C0.68 7 -0.64 7 -2 7 C-3.75 5 -3.75 5 -5 3 C-2.625 1.4375 -2.625 1.4375 0 0 Z " fill="#D33A35" transform="translate(285,288)"/>
<path d="M0 0 C-1.40751221 0.86916887 -2.8264521 1.71985149 -4.25 2.5625 C-5.03890625 3.03816406 -5.8278125 3.51382813 -6.640625 4.00390625 C-9.30844625 5.13022151 -10.34501768 5.0169313 -13 4 C-11.59248779 3.13083113 -10.1735479 2.28014851 -8.75 1.4375 C-7.96109375 0.96183594 -7.1721875 0.48617187 -6.359375 -0.00390625 C-3.69155375 -1.13022151 -2.65498232 -1.0169313 0 0 Z " fill="#E48E8E" transform="translate(56,105)"/>
<path d="M0 0 C6.75 -0.125 6.75 -0.125 9 1 C9 1.66 9 2.32 9 3 C7.3125 3.6875 7.3125 3.6875 5 4 C2.25 2.625 2.25 2.625 0 1 C0 0.67 0 0.34 0 0 Z " fill="#DD6B6C" transform="translate(45,422)"/>
<path d="M0 0 C1.12377697 3.30435084 0.89554742 5.0506862 -0.4375 8.25 C-0.72496094 8.95640625 -1.01242187 9.6628125 -1.30859375 10.390625 C-1.53675781 10.92171875 -1.76492188 11.4528125 -2 12 C-2.33 12 -2.66 12 -3 12 C-2.88601335 10.37419034 -2.75844341 8.74932843 -2.625 7.125 C-2.55539062 6.22007812 -2.48578125 5.31515625 -2.4140625 4.3828125 C-2 2 -2 2 0 0 Z " fill="#DF7576" transform="translate(483,378)"/>
<path d="M0 0 C0.66 0.33 1.32 0.66 2 1 C1.26418258 2.1549921 0.51069961 3.29874185 -0.25 4.4375 C-0.66765625 5.07558594 -1.0853125 5.71367188 -1.515625 6.37109375 C-3.27248877 8.29902057 -4.46089803 8.61479436 -7 9 C-5.44499019 5.18315774 -2.96404505 2.80804268 0 0 Z " fill="#E58A82" transform="translate(35,114)"/>
<path d="M0 0 C0.99 0 1.98 0 3 0 C3.33 3.3 3.66 6.6 4 10 C3.34 9.67 2.68 9.34 2 9 C1.3671875 6.93359375 1.3671875 6.93359375 0.875 4.4375 C0.70742188 3.61121094 0.53984375 2.78492188 0.3671875 1.93359375 C0.24601562 1.29550781 0.12484375 0.65742188 0 0 Z " fill="#DA7170" transform="translate(16,384)"/>
<path d="M0 0 C2.50298434 2.93828597 3.46930939 5.17902761 4 9 C2.66666667 9 1.33333333 9 0 9 C0 6.03 0 3.06 0 0 Z " fill="#E27D7C" transform="translate(477,134)"/>
<path d="M0 0 C-1.04874998 2.62187494 -1.64931313 3.79371361 -4.125 5.25 C-4.74375 5.4975 -5.3625 5.745 -6 6 C-6.33 5.01 -6.66 4.02 -7 3 C-2.25 0 -2.25 0 0 0 Z " fill="#D65251" transform="translate(462,415)"/>
<path d="M0 0 C1.5 1 1.5 1 3 3 C3.27345479 5.71846235 3.13491285 8.25677199 3 11 C0.43383368 7.15075052 0.44902324 4.5650696 0 0 Z " fill="#E48483" transform="translate(13,373)"/>
<path d="M0 0 C0 3 0 3 -1.3125 4.38671875 C-2.875 5.59114583 -4.4375 6.79557292 -6 8 C-6 6.68 -6 5.36 -6 4 C-5.34 4 -4.68 4 -4 4 C-4 3.01 -4 2.02 -4 1 C-2 0 -2 0 0 0 Z " fill="#D4322F" transform="translate(28,128)"/>
<path d="M0 0 C2.4375 0.6875 2.4375 0.6875 5 2 C5.8125 4.625 5.8125 4.625 6 7 C1.125 3.375 1.125 3.375 0 0 Z " fill="#E17376" transform="translate(25,405)"/>
<path d="M0 0 C-4.625 4 -4.625 4 -8 4 C-8 3.01 -8 2.02 -8 1 C-5.07175348 0.02391783 -3.04386724 -0.08226668 0 0 Z " fill="#FEE7DF" transform="translate(207,331)"/>
<path d="M0 0 C0.99 0.66 1.98 1.32 3 2 C-0.4352048 4.29013653 -1.985331 4.17842973 -6 4 C-3.94766315 1.7522025 -2.99332739 0.9977758 0 0 Z " fill="#D24343" transform="translate(315,272)"/>
<path d="M0 0 C1.65 0 3.3 0 5 0 C5.33 1.32 5.66 2.64 6 4 C4.02 3.34 2.04 2.68 0 2 C0 1.34 0 0.68 0 0 Z " fill="#DA6060" transform="translate(39,418)"/>
<path d="M0 0 C1.32 0 2.64 0 4 0 C4 0.66 4 1.32 4 2 C3.34 2 2.68 2 2 2 C1.67 2.99 1.34 3.98 1 5 C0.34 4.67 -0.32 4.34 -1 4 C-1 1 -1 1 0 0 Z " fill="#D3312E" transform="translate(318,270)"/>
<path d="M0 0 C2.64 0.33 5.28 0.66 8 1 C8 1.99 8 2.98 8 4 C2.25 2.25 2.25 2.25 0 0 Z " fill="#CB393B" transform="translate(269,219)"/>
<path d="M0 0 C0.33 0 0.66 0 1 0 C0.53199289 4.05606165 0.12046792 7.46588679 -2 11 C-2 8.36 -2 5.72 -2 3 C-1.34 3 -0.68 3 0 3 C0 2.01 0 1.02 0 0 Z " fill="#E18783" transform="translate(11,170)"/>
<path d="M0 0 C1.65 1.65 3.3 3.3 5 5 C4.67 5.66 4.34 6.32 4 7 C3.01 6.67 2.02 6.34 1 6 C0.67 4.02 0.34 2.04 0 0 Z " fill="#E59893" transform="translate(469,121)"/>
</svg>
