<?xml version="1.0" encoding="UTF-8"?>
<svg version="1.1" xmlns="http://www.w3.org/2000/svg" width="333" height="333">
<path d="M0 0 C17.49 0 34.98 0 53 0 C53 27.72 53 55.44 53 84 C72.8 84 92.6 84 113 84 C113 104.79 113 125.58 113 147 C93.2 147 73.4 147 53 147 C53.09093749 163.43860661 53.09093749 163.43860661 53.20898438 179.87695312 C53.26318268 186.5876247 53.31429761 193.29821499 53.34643555 200.0090332 C53.37256454 205.42325141 53.41303441 210.8371946 53.46318626 216.25124168 C53.47979026 218.31031037 53.4913446 220.36942654 53.49761391 222.42855263 C53.0396971 240.99009267 53.0396971 240.99009267 60.4375 257.50390625 C70.83215306 267.45678655 86.29999908 266.35324449 99.6875 266.625 C105.070625 266.74875 110.45375 266.8725 116 267 C116 288.78 116 310.56 116 333 C99.726875 333.0928125 99.726875 333.0928125 83.125 333.1875 C79.73879395 333.21481201 76.35258789 333.24212402 72.86376953 333.27026367 C43.6308624 333.40788867 15.72210349 331.20310077 -6.375 309.6875 C-27.29362123 287.63814249 -28.49134451 258.99881363 -28.29296875 230.30078125 C-28.2873586 227.88413255 -28.28309523 225.46748039 -28.28010559 223.05082703 C-28.26876842 216.75615664 -28.23939972 210.46170103 -28.20599365 204.16711426 C-28.17505 197.71755883 -28.16154884 191.26796798 -28.14648438 184.81835938 C-28.11451714 172.21213107 -28.06184289 159.60611717 -28 147 C-42.85 147 -57.7 147 -73 147 C-73 129.18 -73 111.36 -73 93 C-67.06 90.69 -61.12 88.38 -55 86 C-47.10471423 82.13459968 -40.69972097 77.64788764 -34 72 C-33.18789062 71.38769531 -32.37578125 70.77539062 -31.5390625 70.14453125 C-10.91884879 52.72838152 -4.56189899 25.09044442 0 0 Z " fill="#FFFFFF" transform="translate(145,0)"/>
</svg>
