<?xml version="1.0" encoding="UTF-8"?>
<svg version="1.1" xmlns="http://www.w3.org/2000/svg" width="94" height="166">
<path d="M0 0 C8.91 0 17.82 0 27 0 C27 13.53 27 27.06 27 41 C36.9 41 46.8 41 57 41 C57 51.89 57 62.78 57 74 C47.1 74 37.2 74 27 74 C27.0741825 80.40527486 27.15718083 86.80920038 27.26245117 93.21386719 C27.29559781 95.39022711 27.32366134 97.56667088 27.34643555 99.74316406 C27.38017038 102.88122103 27.4324962 106.01851675 27.48828125 109.15625 C27.49467117 110.12115356 27.5010611 111.08605713 27.50764465 112.0802002 C27.6358271 118.04017859 28.45602466 122.58084455 31 128 C36.41358898 132.41634891 43.12931189 132.22037909 49.8125 132.5625 C52.514375 132.706875 55.21625 132.85125 58 133 C58 143.89 58 154.78 58 166 C52.78911811 166.06934145 47.5798743 166.1289297 42.36889648 166.16479492 C40.60093728 166.17976535 38.83301445 166.20014903 37.06518555 166.22631836 C21.86051791 166.44555445 8.04091652 165.61236966 -3.75 154.8125 C-13.37298798 144.51969847 -14.30860612 131.84794471 -14.1953125 118.43359375 C-14.1924826 117.15895767 -14.18965271 115.88432159 -14.18673706 114.57106018 C-14.1774899 111.2123946 -14.15957871 107.8540104 -14.1373291 104.49542236 C-14.11672468 101.05621752 -14.10770441 97.61698339 -14.09765625 94.17773438 C-14.07568355 87.4517364 -14.04119907 80.72590657 -14 74 C-21.26 74 -28.52 74 -36 74 C-36 64.76 -36 55.52 -36 46 C-33.525 44.845 -31.05 43.69 -28.5 42.5 C-15.74453959 36.23433956 -7.9342455 26.88819213 -3.1875 13.3125 C-1.97612827 8.91330791 -0.98983807 4.45427133 0 0 Z " fill="#ABABAB" transform="translate(36,0)"/>
</svg>
