<?xml version="1.0" encoding="UTF-8"?>
<svg version="1.1" xmlns="http://www.w3.org/2000/svg" width="94" height="166">
<path d="M0 0 C9.57 0 19.14 0 29 0 C29 13.2 29 26.4 29 40 C38.49892964 39.96040374 38.49892964 39.96040374 47.99780273 39.90991211 C49.17286377 39.90741455 50.3479248 39.90491699 51.55859375 39.90234375 C53.37315063 39.89448853 53.37315063 39.89448853 55.22436523 39.88647461 C58 40 58 40 59 41 C59.10082764 43.43660446 59.13972603 45.84424701 59.1328125 48.28125 C59.13376923 49.00993286 59.13472595 49.73861572 59.13571167 50.48937988 C59.13639335 52.0327971 59.13453988 53.57621717 59.13037109 55.11962891 C59.12502262 57.489974 59.13031642 59.86012959 59.13671875 62.23046875 C59.13605797 63.72656292 59.1347768 65.22265697 59.1328125 66.71875 C59.13584885 67.78905457 59.13584885 67.78905457 59.13894653 68.88098145 C59.11495191 73.88504809 59.11495191 73.88504809 58 75 C55.85441173 75.08775605 53.70595579 75.10695219 51.55859375 75.09765625 C50.25341797 75.09443359 48.94824219 75.09121094 47.60351562 75.08789062 C46.2148431 75.07953401 44.82617123 75.07106905 43.4375 75.0625 C42.04492344 75.05748666 40.65234519 75.05292347 39.25976562 75.04882812 C35.8398013 75.03699434 32.41992156 75.0205088 29 75 C29.0941803 80.94101582 29.20041146 86.88165474 29.31738281 92.82226562 C29.35545525 94.83945965 29.39034432 96.85671655 29.421875 98.87402344 C29.46800145 101.78863872 29.52591296 104.70282913 29.5859375 107.6171875 C29.59748871 108.50614716 29.60903992 109.39510681 29.62094116 110.31100464 C29.76136656 116.38986572 30.62594285 122.07913134 32 128 C41.2131994 131.10359895 48.90416344 131.36901021 59 132 C59 143.22 59 154.44 59 166 C53.21915124 166.09237042 47.44091383 166.17184284 41.65991211 166.21972656 C39.69790926 166.23970918 37.73596495 166.26690484 35.77416992 166.30175781 C21.08088074 166.55605755 8.73617209 165.92884735 -3 156 C-13.39453874 145.03683223 -14.32780072 130.54486754 -14.1953125 116.11328125 C-14.1924826 114.93025925 -14.18965271 113.74723724 -14.18673706 112.52836609 C-14.175638 108.78963645 -14.15055275 105.05115592 -14.125 101.3125 C-14.11495692 98.76107119 -14.1058334 96.20963859 -14.09765625 93.65820312 C-14.07573237 87.43870767 -14.04127426 81.21939591 -14 75 C-20.93 75 -27.86 75 -35 75 C-35 65.1 -35 55.2 -35 45 C-31.5659375 43.2984375 -31.5659375 43.2984375 -28.0625 41.5625 C-15.06185941 34.72204667 -8.34041016 25.47184916 -3 12 C-1.515 6.06 -1.515 6.06 0 0 Z " fill="#AAAAAA" transform="translate(35,0)"/>
</svg>
