<?xml version="1.0" encoding="UTF-8"?>
<svg version="1.1" xmlns="http://www.w3.org/2000/svg" width="500" height="500">
<path d="M0 0 C25.41 0 50.82 0 77 0 C74.7507026 10.12183832 74.7507026 10.12183832 73.44921875 14.71484375 C73.16240234 15.73255859 72.87558594 16.75027344 72.58007812 17.79882812 C72.28552734 18.83458984 71.99097656 19.87035156 71.6875 20.9375 C71.10780894 22.98820665 70.5283891 25.03898998 69.94921875 27.08984375 C69.63863525 28.18780273 69.32805176 29.28576172 69.00805664 30.41699219 C67.90389739 34.34158437 66.81456732 38.2701265 65.7265625 42.19921875 C62.4266262 54.10422179 59.0542561 65.98875971 55.6875 77.875 C55.01432093 80.25292912 54.34114386 82.63085882 53.66796875 85.00878906 C49.98893858 98.00077252 46.29810615 110.98919903 42.57714844 123.96923828 C40.20777572 132.24375655 37.89126348 140.53253073 35.58105469 148.82373047 C33.2514362 157.15927123 30.8424963 165.47044007 28.39624023 173.77246094 C26.51673274 180.1642447 24.75383385 186.56927587 23 193 C34.55 193.33 46.1 193.66 58 194 C59 196 59 196 58.09130859 198.75878906 C57.61516113 199.91604492 57.13901367 201.07330078 56.6484375 202.265625 C56.39252838 202.89547302 56.13661926 203.52532104 55.87295532 204.17425537 C55.04756167 206.20255824 54.21189535 208.22641884 53.375 210.25 C52.29529466 212.87851066 51.22029876 215.50890641 50.1484375 218.140625 C49.88256332 218.79213028 49.61668915 219.44363556 49.34275818 220.11488342 C47.09348453 225.67070073 45.06303676 231.28573253 43.09545898 236.94799805 C42.04854493 239.86475146 40.90222151 242.71212733 39.6875 245.5625 C35.8428997 254.59484622 32.46262151 263.816245 29 273 C29.33 272.67 29.66 272.34 30 272 C30.66 272 31.32 272 32 272 C32.144375 271.38125 32.28875 270.7625 32.4375 270.125 C33 268 33 268 34 266 C34.66 266 35.32 266 36 266 C36.23332031 265.32324219 36.46664062 264.64648438 36.70703125 263.94921875 C38.32083241 260.26819193 40.42789791 257.12453678 42.6875 253.8125 C43.13593262 253.14758545 43.58436523 252.4826709 44.04638672 251.79760742 C47.08825057 247.30015781 50.18976883 242.84629532 53.3203125 238.41015625 C55.08375139 235.87982649 56.79595611 233.32069282 58.5 230.75 C62.90019736 224.12014409 67.38586772 217.54980748 71.87255859 210.97827148 C76.79909128 203.76247803 81.71447989 196.53919864 86.625 189.3125 C93.72871216 178.86033488 100.85783087 168.42592506 108 158 C96.45 157.67 84.9 157.34 73 157 C74.12501529 149.12489298 74.12501529 149.12489298 75.45532227 145.7590332 C75.74975723 145.00326492 76.0441922 144.24749664 76.34754944 143.46882629 C76.66727219 142.67087143 76.98699493 141.87291656 77.31640625 141.05078125 C77.65115463 140.19808151 77.98590302 139.34538177 78.33079529 138.46684265 C79.40097923 135.74588607 80.48157687 133.02920562 81.5625 130.3125 C82.26174923 128.53867997 82.9603224 126.76459327 83.65820312 124.99023438 C87.51356041 115.20361439 91.41567675 105.43556243 95.3374176 95.67536926 C97.5938164 90.05119017 99.77507483 84.40395117 101.89453125 78.7265625 C103.10966662 75.72951484 104.52037763 72.87445263 106 70 C127.45056409 70.98850526 146.89950125 80.49164054 161.890625 95.58984375 C163 97 163 97 163 99 C163.66 99 164.32 99 165 99 C179.99756972 123.93527975 183.2137049 147.54590186 176.35546875 175.7578125 C173.73735268 186.03715199 170.36067752 194.83742353 165 204 C164.38253906 205.10730469 163.76507813 206.21460938 163.12890625 207.35546875 C159.52069068 213.75423773 159.52069068 213.75423773 158 216 C157.34 216 156.68 216 156 216 C155.896875 216.5775 155.79375 217.155 155.6875 217.75 C154.89103535 220.35661158 153.80934723 221.9735311 152 224 C151.34 224 150.68 224 150 224 C149.74710205 224.74113037 149.4942041 225.48226074 149.23364258 226.24584961 C147.91564768 229.18831951 146.54603307 230.81395969 144.26171875 233.06640625 C143.52373047 233.79923828 142.78574219 234.53207031 142.02539062 235.28710938 C141.25388672 236.03798828 140.48238281 236.78886719 139.6875 237.5625 C138.92759766 238.31724609 138.16769531 239.07199219 137.38476562 239.84960938 C127.09128579 250 127.09128579 250 124 250 C124 250.66 124 251.32 124 252 C92.40283632 279.56278209 48.76413127 290.39327122 7.79345703 287.86376953 C-4.74084485 286.69725 -16.29870886 282.50470638 -27 276 C-27.99773437 275.40445313 -27.99773437 275.40445313 -29.015625 274.796875 C-30.6875 273.75 -30.6875 273.75 -33 272 C-33 271.34 -33 270.68 -33 270 C-33.58136719 269.75636719 -34.16273438 269.51273437 -34.76171875 269.26171875 C-43.93577831 264.09030298 -49.67838465 250.8524645 -52.57470703 241.05615234 C-53.59510816 237.07283872 -54.34002559 233.05630424 -55 229 C-55.18304688 228.01386719 -55.36609375 227.02773438 -55.5546875 226.01171875 C-58.53530778 205.85331319 -52.64826475 185.72552634 -47.03417969 166.58886719 C-45.30943043 160.60354753 -43.69912002 154.58753333 -42.07696533 148.57376099 C-38.51932742 135.40131778 -34.80677337 122.28108875 -30.94189453 109.1953125 C-29.09379402 102.92575847 -27.26373157 96.65095259 -25.4375 90.375 C-25.14749115 89.37879135 -25.14749115 89.37879135 -24.85162354 88.36245728 C-22.19872945 79.24019324 -19.63270354 70.09854422 -17.16552734 60.92431641 C-15.38711855 54.33893359 -13.49255588 47.79240002 -11.5625 41.25 C-8.62857188 31.30250851 -5.88639734 21.31069646 -3.22094727 11.28808594 C-2.94436279 10.24813477 -2.66777832 9.20818359 -2.3828125 8.13671875 C-2.13934082 7.21592529 -1.89586914 6.29513184 -1.64501953 5.34643555 C-1.15078809 3.54853307 -0.58963701 1.76891103 0 0 Z " fill="#EF672B" transform="translate(199,103)"/>
<path d="M0 0 C25.41 0 50.82 0 77 0 C75.35579452 7.39892468 73.52811557 14.6439212 71.5 21.9375 C71.19191406 23.07251953 70.88382812 24.20753906 70.56640625 25.37695312 C70.26605469 26.45783203 69.96570313 27.53871094 69.65625 28.65234375 C69.38619141 29.63195068 69.11613281 30.61155762 68.83789062 31.62084961 C68 34 68 34 66 36 C66.33333333 33.66666667 66.66666667 31.33333333 67 29 C67.185625 27.2984375 67.185625 27.2984375 67.375 25.5625 C67.87153023 22.73227766 68.44853092 20.67586005 69.5 18.0625 C71.11653735 14.0290039 71.56124425 10.31443156 72 6 C72.33 5.01 72.66 4.02 73 3 C69.41648087 1.8961154 66.0405535 1.84311829 62.30371094 1.79467773 C61.63988403 1.78477814 60.97605713 1.77487854 60.29211426 1.76467896 C58.10623698 1.7331874 55.920338 1.70835563 53.734375 1.68359375 C52.21550951 1.66301355 50.69664962 1.64201679 49.17779541 1.62062073 C45.18628475 1.56551016 41.19472335 1.51605247 37.203125 1.46777344 C33.1275584 1.41747783 29.0520652 1.36183389 24.9765625 1.30664062 C16.98443546 1.19919381 8.99224584 1.09821355 1 1 C1 6.61 1 12.22 1 18 C0.34 18 -0.32 18 -1 18 C-1.33 19.32 -1.66 20.64 -2 22 C-2.99 22 -3.98 22 -5 22 C-4.3657047 14.07130869 -2.29972078 8.04902275 0 0 Z " fill="#CD8859" transform="translate(199,103)"/>
<path d="M0 0 C1.05196105 3.6517243 0.78290526 5.81394594 -0.25 9.5 C-0.50265625 10.4384375 -0.7553125 11.376875 -1.015625 12.34375 C-2.01098556 15.02964358 -3.24059601 16.76763794 -5 19 C-5.33 19.99 -5.66 20.98 -6 22 C5.88 22 17.76 22 30 22 C30.66 23.65 31.32 25.3 32 27 C31.21625 27.763125 30.4325 28.52625 29.625 29.3125 C26.92742283 31.90891805 26.92742283 31.90891805 25 35 C24.01 35 23.02 35 22 35 C23.31802365 31.35008834 24.59214008 29.2104799 27 26 C15.45 25.67 3.9 25.34 -8 25 C-6.875 17.125 -6.875 17.125 -5.37109375 13.37890625 C-5.05849609 12.58935547 -4.74589844 11.79980469 -4.42382812 10.98632812 C-3.9355957 9.7865332 -3.9355957 9.7865332 -3.4375 8.5625 C-3.10814453 7.73556641 -2.77878906 6.90863281 -2.43945312 6.05664062 C-1.63314164 4.03501907 -0.81751877 2.01711551 0 0 Z " fill="#D46E41" transform="translate(280,235)"/>
<path d="M0 0 C6.2054142 0.48320848 11.99945246 1.33318124 18 3 C18 3.33 18 3.66 18 4 C15.74971671 3.85860519 13.49977794 3.71171997 11.25 3.5625 C9.37054688 3.44068359 9.37054688 3.44068359 7.453125 3.31640625 C4 3 4 3 0 2 C-0.66 5.63 -1.32 9.26 -2 13 C-2.66 13 -3.32 13 -4 13 C-3.34414811 16.60992379 -3.34414811 16.60992379 -2 20 C-2.4375 22.125 -2.4375 22.125 -3 24 C-3.99 24 -4.98 24 -6 24 C-6.33 24.99 -6.66 25.98 -7 27 C-7.66 27.99 -8.32 28.98 -9 30 C-9.48933251 31.94530229 -9.48933251 31.94530229 -9.6875 34 C-9.77386719 34.680625 -9.86023438 35.36125 -9.94921875 36.0625 C-10.11595925 38.22041449 -10.11595925 38.22041449 -9 41 C-11.52956528 44.0916909 -14.22454612 44.90931332 -18 46 C-16.05944857 40.0038547 -13.94001019 34.11107932 -11.625 28.25 C-11.00751158 26.67720144 -10.39032624 25.10428386 -9.7734375 23.53125 C-9.47276367 22.76554687 -9.17208984 21.99984375 -8.86230469 21.2109375 C-8.07672551 19.19672317 -7.30378936 17.1784566 -6.5390625 15.15625 C-6.11367188 14.0321875 -5.68828125 12.908125 -5.25 11.75 C-4.88390625 10.77546875 -4.5178125 9.8009375 -4.140625 8.796875 C-2.90953128 5.77816575 -1.49168404 2.8976391 0 0 Z " fill="#E88A55" transform="translate(305,173)"/>
<path d="M0 0 C12.31999978 1.6377039 25.95142375 8.49409088 33.83203125 18.2734375 C34.21746094 18.84320313 34.60289062 19.41296875 35 20 C34.360625 20.12375 33.72125 20.2475 33.0625 20.375 C32.381875 20.58125 31.70125 20.7875 31 21 C30.67 21.66 30.34 22.32 30 23 C29 18.25 29 18.25 29 16 C28.071875 15.855625 27.14375 15.71125 26.1875 15.5625 C23 15 23 15 20 14 C18.33378384 13.96125079 16.66605828 13.9549714 15 14 C13.5393715 11.35261084 13 10.10551666 13 7 C12.34 6.7525 11.68 6.505 11 6.25 C7.23639093 4.68182955 3.6288576 2.85494954 0 1 C0 0.67 0 0.34 0 0 Z " fill="#E78042" transform="translate(323,177)"/>
<path d="M0 0 C0.99 0.495 0.99 0.495 2 1 C2 1.66 2 2.32 2 3 C2.66 3 3.32 3 4 3 C20.20615882 29.94470581 20.20615882 29.94470581 17 43 C13.75707672 37.20906558 12.73094314 31.59189297 13 25 C12.34 25 11.68 25 11 25 C10.7525 23.906875 10.505 22.81375 10.25 21.6875 C8.94819966 17.84718899 8.27652107 17.07513001 5 15 C5 14.34 5 13.68 5 13 C4.01 13 3.02 13 2 13 C2.04125 11.96875 2.0825 10.9375 2.125 9.875 C2.00424851 6.13170373 1.35127982 3.46265453 0 0 Z " fill="#E29061" transform="translate(360,199)"/>
<path d="M0 0 C0.99 0.33 1.98 0.66 3 1 C2.4618756 6.20186922 1.69880437 9.90358688 0 15 C11.55 15.33 23.1 15.66 35 16 C36 18 36 18 35.47094727 19.78759766 C35.17244873 20.48933105 34.8739502 21.19106445 34.56640625 21.9140625 C34.24736328 22.67460937 33.92832031 23.43515625 33.59960938 24.21875 C33.08624023 25.40984375 33.08624023 25.40984375 32.5625 26.625 C32.22412109 27.42679687 31.88574219 28.22859375 31.53710938 29.0546875 C30.69833222 31.03939964 29.85004755 33.02008875 29 35 C28.34 34.67 27.68 34.34 27 34 C27 33.34 27 32.68 27 32 C27.66 32 28.32 32 29 32 C29.12375 31.154375 29.2475 30.30875 29.375 29.4375 C30.15240784 25.16175685 31.04716979 20.90566042 33 17 C21.45 17 9.9 17 -2 17 C-2 2 -2 2 0 0 Z " fill="#D88563" transform="translate(222,281)"/>
<path d="M0 0 C0.33 0 0.66 0 1 0 C1.02687279 1.81242052 1.04633715 3.62495233 1.0625 5.4375 C1.07410156 6.44683594 1.08570313 7.45617187 1.09765625 8.49609375 C1 11 1 11 0 12 C-0.20999945 13.95416157 -0.36832634 15.91400299 -0.5 17.875 C-0.72347251 21.18718188 -0.94792065 23.84376196 -2 27 C-2.08358958 29.21089945 -2.10731764 31.42426078 -2.09765625 33.63671875 C-2.09443359 34.93544922 -2.09121094 36.23417969 -2.08789062 37.57226562 C-2.07953531 38.94401108 -2.07107037 40.31575587 -2.0625 41.6875 C-2.05748335 43.07096195 -2.05292073 44.45442563 -2.04882812 45.83789062 C-2.03702529 49.22530395 -2.02056019 52.61263033 -2 56 C-2.33 56 -2.66 56 -3 56 C-6.59879568 36.94566215 -4.92348818 18.64503566 0 0 Z " fill="#E6A78D" transform="translate(148,283)"/>
<path d="M0 0 C0.99 0 1.98 0 3 0 C1.23939841 6.88235165 -1.41307642 13.39305598 -4 20 C-4.93903875 22.43690762 -5.8766037 24.8743838 -6.8125 27.3125 C-7.90625 30.15625 -7.90625 30.15625 -9 33 C-9.33 33 -9.66 33 -10 33 C-11.53246107 25.8687455 -10.90784268 21.5402665 -7.2265625 15.2265625 C-6.06671298 13.12110318 -5.46052701 11.34547477 -5 9 C-4.01 9 -3.02 9 -2 9 C-2 7.02 -2 5.04 -2 3 C-1.34 3 -0.68 3 0 3 C0 2.01 0 1.02 0 0 Z " fill="#E8744B" transform="translate(243,327)"/>
<path d="M0 0 C1.98 0 3.96 0 6 0 C-0.95237568 5.68830737 -7.67745005 10.0544946 -15.8125 13.8125 C-17.09930664 14.42254883 -17.09930664 14.42254883 -18.41210938 15.04492188 C-24.72455357 18 -24.72455357 18 -27 18 C-26.60196439 15.11424181 -26.20990931 14.17810487 -23.9375 12.25 C-22.9784375 11.63125 -22.9784375 11.63125 -22 11 C-22.33 10.34 -22.66 9.68 -23 9 C-20.03 9.33 -17.06 9.66 -14 10 C-14 9.34 -14 8.68 -14 8 C-11.69 8 -9.38 8 -7 8 C-7 7.34 -7 6.68 -7 6 C-6.01 6 -5.02 6 -4 6 C-4.33 5.01 -4.66 4.02 -5 3 C-3.68 3 -2.36 3 -1 3 C-0.67 2.01 -0.34 1.02 0 0 Z " fill="#E57A53" transform="translate(307,361)"/>
<path d="M0 0 C0.33 0 0.66 0 1 0 C1.875 3.1875 1.875 3.1875 2 7 C0.234912 9.32278681 -1.49169762 10.37698081 -4 12 C-4.66 12 -5.32 12 -6 12 C-6 12.66 -6 13.32 -6 14 C-6.66 14 -7.32 14 -8 14 C-8.061875 15.051875 -8.12375 16.10375 -8.1875 17.1875 C-9.14443937 21.67775398 -10.47920336 23.14983129 -14 26 C-14.99 26.33 -15.98 26.66 -17 27 C-17.73323796 29.01508358 -17.73323796 29.01508358 -18 31 C-18.66 31 -19.32 31 -20 31 C-18.36440634 25.93364891 -15.33982097 22.0098032 -12.25 17.75 C-11.16439404 16.23637271 -10.0797491 14.72205566 -8.99609375 13.20703125 C-8.47772949 12.48338379 -7.95936523 11.75973633 -7.42529297 11.01416016 C-5.19114563 7.85696325 -3.07481697 4.62707427 -0.98828125 1.37109375 C-0.66214844 0.91863281 -0.33601563 0.46617187 0 0 Z " fill="#E67C50" transform="translate(290,286)"/>
<path d="M0 0 C1.05196105 3.6517243 0.78290526 5.81394594 -0.25 9.5 C-0.50265625 10.4384375 -0.7553125 11.376875 -1.015625 12.34375 C-2.01098556 15.02964358 -3.24059601 16.76763794 -5 19 C-5.33 19.99 -5.66 20.98 -6 22 C-2.28832638 23.1486567 1.30336227 23.20542433 5.171875 23.31640625 C5.8542926 23.33718735 6.53671021 23.35796844 7.23980713 23.37937927 C9.40977356 23.44452052 11.57985624 23.50359404 13.75 23.5625 C15.22527221 23.60571897 16.70053287 23.64933432 18.17578125 23.69335938 C21.78373166 23.80016518 25.39181133 23.90153153 29 24 C29 24.33 29 24.66 29 25 C16.79 25 4.58 25 -8 25 C-6.875 17.125 -6.875 17.125 -5.37109375 13.37890625 C-5.05849609 12.58935547 -4.74589844 11.79980469 -4.42382812 10.98632812 C-3.9355957 9.7865332 -3.9355957 9.7865332 -3.4375 8.5625 C-3.10814453 7.73556641 -2.77878906 6.90863281 -2.43945312 6.05664062 C-1.63314164 4.03501907 -0.81751877 2.01711551 0 0 Z " fill="#EEC2A9" transform="translate(280,235)"/>
<path d="M0 0 C1.23125377 3.53031598 0.75227673 5.71767788 -0.328125 9.25390625 C-0.63363281 10.27419922 -0.93914062 11.29449219 -1.25390625 12.34570312 C-1.58261719 13.40724609 -1.91132813 14.46878906 -2.25 15.5625 C-2.8811492 17.64685075 -3.51136263 19.73148509 -4.140625 21.81640625 C-4.45064453 22.83621582 -4.76066406 23.85602539 -5.08007812 24.90673828 C-6.47046024 29.58193504 -7.74475243 34.28697781 -9 39 C-9.33 39 -9.66 39 -10 39 C-9.88544319 37.08268082 -9.75793742 35.1661325 -9.625 33.25 C-9.55539063 32.18265625 -9.48578125 31.1153125 -9.4140625 30.015625 C-9.01546624 27.11264095 -8.31440534 25.5538446 -7 23 C-6.588556 20.94815836 -6.23768801 18.88354501 -5.9375 16.8125 C-5.101983 11.101983 -5.101983 11.101983 -4 10 C-3.63239269 7.67182036 -3.29758419 5.3381615 -3 3 C-2.34 3 -1.68 3 -1 3 C-0.67 2.01 -0.34 1.02 0 0 Z " fill="#E19063" transform="translate(248,197)"/>
<path d="M0 0 C-4.82082706 5.96260189 -10.22494276 10.96679794 -16 16 C-16.33 15.01 -16.66 14.02 -17 13 C-17.66 12.67 -18.32 12.34 -19 12 C-17.02 11.67 -15.04 11.34 -13 11 C-13 9.35 -13 7.7 -13 6 C-12.34 6 -11.68 6 -11 6 C-11.33 4.68 -11.66 3.36 -12 2 C-7.8794254 0.00214565 -4.54805635 -0.17835515 0 0 Z " fill="#E87A50" transform="translate(342,336)"/>
<path d="M0 0 C0.33 0 0.66 0 1 0 C2.00449686 4.31933651 2.33267768 7.11220387 0 11 C-2.125 11.8125 -2.125 11.8125 -4 12 C-4.061875 12.5775 -4.12375 13.155 -4.1875 13.75 C-5.58135601 17.60990894 -8.81343373 19.35861283 -12.3125 21.25 C-12.869375 21.4975 -13.42625 21.745 -14 22 C-11.75208333 17.29286383 -8.82945991 13.07948384 -5.9375 8.75 C-5.38255859 7.90953125 -4.82761719 7.0690625 -4.25585938 6.203125 C-3.72669922 5.4090625 -3.19753906 4.615 -2.65234375 3.796875 C-2.16757568 3.06823242 -1.68280762 2.33958984 -1.18334961 1.58886719 C-0.59759155 0.80237793 -0.59759155 0.80237793 0 0 Z " fill="#E67750" transform="translate(260,330)"/>
<path d="M0 0 C1.05406097 3.19067103 0.95374964 4.8844127 -0.25 8 C-1.934799 12.66204654 -3.13503883 17.36565982 -4.3046875 22.1796875 C-5.11879106 25.48183791 -6.03646622 28.73880874 -7 32 C-7.33 32 -7.66 32 -8 32 C-8.05451714 29.95863605 -8.09302485 27.91684144 -8.125 25.875 C-8.14820313 24.73804688 -8.17140625 23.60109375 -8.1953125 22.4296875 C-7.99672109 18.94242233 -7.2524801 16.2446138 -6 13 C-5.67 13 -5.34 13 -5 13 C-4.80664062 12.31292969 -4.61328125 11.62585938 -4.4140625 10.91796875 C-4.15367187 10.01691406 -3.89328125 9.11585938 -3.625 8.1875 C-3.36976563 7.29417969 -3.11453125 6.40085937 -2.8515625 5.48046875 C-2 3 -2 3 0 0 Z " fill="#E38E66" transform="translate(233,250)"/>
<path d="M0 0 C0.66 0 1.32 0 2 0 C0.43544266 7.39253343 -1.47589712 14.65835177 -3.5 21.9375 C-3.80808594 23.07251953 -4.11617188 24.20753906 -4.43359375 25.37695312 C-4.73394531 26.45783203 -5.03429687 27.53871094 -5.34375 28.65234375 C-5.61380859 29.63195068 -5.88386719 30.61155762 -6.16210938 31.62084961 C-7 34 -7 34 -9 36 C-8.66666667 33.66666667 -8.33333333 31.33333333 -8 29 C-7.87625 27.865625 -7.7525 26.73125 -7.625 25.5625 C-7.12846977 22.73227766 -6.55146908 20.67586005 -5.5 18.0625 C-3.88346265 14.0290039 -3.43875575 10.31443156 -3 6 C-2.67 5.01 -2.34 4.02 -2 3 C-3.32 2.34 -4.64 1.68 -6 1 C-4.7934375 1.0309375 -4.7934375 1.0309375 -3.5625 1.0625 C-1.06645115 1.29633621 -1.06645115 1.29633621 0 0 Z " fill="#E4A472" transform="translate(274,103)"/>
<path d="M0 0 C6.41836735 0.75510204 6.41836735 0.75510204 9.375 2 C12.26331856 3.10031183 14.73682499 3.40266205 17.8125 3.625 C19.27623047 3.73714844 19.27623047 3.73714844 20.76953125 3.8515625 C21.50558594 3.90054687 22.24164063 3.94953125 23 4 C23.33 4.99 23.66 5.98 24 7 C26.64 7.33 29.28 7.66 32 8 C32 8.33 32 8.66 32 9 C20.8399995 9.78315793 9.6639839 6.52227651 0 1 C0 0.67 0 0.34 0 0 Z " fill="#E07C58" transform="translate(177,381)"/>
<path d="M0 0 C0.33 0 0.66 0 1 0 C1.05423638 1.91635217 1.09289963 3.83314925 1.125 5.75 C1.14820313 6.81734375 1.17140625 7.8846875 1.1953125 8.984375 C1.00195466 11.96982008 0.47500167 13.4609704 -1 16 C-1.34153937 17.66500443 -1.67449498 19.33178677 -2 21 C-2.64438717 22.67540664 -3.31246699 24.34183216 -4 26 C-4.67795528 27.99620166 -5.34733531 29.99538701 -6 32 C-6.66 32 -7.32 32 -8 32 C-7.36201452 27.82160585 -6.48129698 23.80403618 -5.37109375 19.7265625 C-5.05849609 18.57285156 -4.74589844 17.41914063 -4.42382812 16.23046875 C-4.09833984 15.04066406 -3.77285156 13.85085937 -3.4375 12.625 C-3.10814453 11.41199219 -2.77878906 10.19898438 -2.43945312 8.94921875 C-1.6288962 5.96542948 -0.81566295 2.98239673 0 0 Z " fill="#E49067" transform="translate(166,219)"/>
<path d="M0 0 C22.44 0 44.88 0 68 0 C68 0.33 68 0.66 68 1 C67.19233688 1.00586624 66.38467377 1.01173248 65.55253601 1.01777649 C57.94501422 1.07565468 50.33782177 1.14770272 42.73059368 1.23571491 C38.81952152 1.28046315 34.90855459 1.31970911 30.99731445 1.34643555 C27.22347912 1.37242461 23.45004781 1.4127949 19.67646217 1.46318626 C18.23600091 1.47988494 16.79546972 1.49138053 15.35492516 1.49761391 C13.33896226 1.50722148 11.32312559 1.53696102 9.30737305 1.56762695 C8.15931686 1.57873001 7.01126068 1.58983307 5.82841492 1.60127258 C2.96908667 1.75782318 2.96908667 1.75782318 1.10578918 3.52702332 C0.74087875 4.01310562 0.37596832 4.49918793 0 5 C0 3.35 0 1.7 0 0 Z " fill="#E07F3B" transform="translate(200,104)"/>
<path d="M0 0 C0.66 0 1.32 0 2 0 C1.34240251 5.26770198 0.26735876 10.30133173 -1.0625 15.4375 C-1.24876953 16.16904297 -1.43503906 16.90058594 -1.62695312 17.65429688 C-2.0813758 19.43703198 -2.54022466 21.21863787 -3 23 C-3.33 23 -3.66 23 -4 23 C-4.33 16.73 -4.66 10.46 -5 4 C-4.01 3.67 -3.02 3.34 -2 3 C-1.34 3.33 -0.68 3.66 0 4 C0 2.68 0 1.36 0 0 Z " fill="#E6945C" transform="translate(263,140)"/>
<path d="M0 0 C0.33 0 0.66 0 1 0 C1 5.94 1 11.88 1 18 C0.34 18 -0.32 18 -1 18 C-1.33 19.32 -1.66 20.64 -2 22 C-2.99 22 -3.98 22 -5 22 C-4.38955672 14.36945905 -2.20378179 7.29810526 0 0 Z " fill="#E6945D" transform="translate(199,103)"/>
<path d="M0 0 C0.33 0 0.66 0 1 0 C0.96744792 1.98567708 0.93489583 3.97135417 0.90234375 5.95703125 C0.91736783 8.20305461 0.91736783 8.20305461 2 11 C-0.52956528 14.0916909 -3.22454612 14.90931332 -7 16 C-5.66666667 12 -4.33333333 8 -3 4 C-2.01 4 -1.02 4 0 4 C0 2.68 0 1.36 0 0 Z " fill="#E96F2C" transform="translate(294,203)"/>
<path d="M0 0 C1.65 0 3.3 0 5 0 C6 3 6 3 6 7 C6.2981424 8.34164079 6.62243192 9.67851173 7 11 C2.89160936 9.54997977 -0.50344613 7.6020866 -4 5 C-4 4.34 -4 3.68 -4 3 C-4.66 2.67 -5.32 2.34 -6 2 C-4.68 2 -3.36 2 -2 2 C-2 2.66 -2 3.32 -2 4 C-0.68 4 0.64 4 2 4 C2 3.34 2 2.68 2 2 C1.34 2 0.68 2 0 2 C0 1.34 0 0.68 0 0 Z " fill="#E97853" transform="translate(170,370)"/>
<path d="M0 0 C6.17726047 0.15653876 12.06870986 1.3524194 18 3 C18 3.33 18 3.66 18 4 C15.74971671 3.85860519 13.49977794 3.71171997 11.25 3.5625 C9.37054688 3.44068359 9.37054688 3.44068359 7.453125 3.31640625 C4 3 4 3 0 2 C-0.66 5.63 -1.32 9.26 -2 13 C-2.66 13 -3.32 13 -4 13 C-4 13.66 -4 14.32 -4 15 C-4.66 14.67 -5.32 14.34 -6 14 C-5.19074658 11.85294019 -4.37750887 9.7073817 -3.5625 7.5625 C-3.11003906 6.36753906 -2.65757812 5.17257813 -2.19140625 3.94140625 C-1 1 -1 1 0 0 Z " fill="#E7AD7F" transform="translate(305,173)"/>
<path d="M0 0 C0.33 0 0.66 0 1 0 C1 2.97 1 5.94 1 9 C0.34 9 -0.32 9 -1 9 C-1 11.31 -1 13.62 -1 16 C-1.66 16 -2.32 16 -3 16 C-3.144375 17.0725 -3.28875 18.145 -3.4375 19.25 C-3.83749442 21.91662949 -4.27591924 24.41399729 -5 27 C-5.66 27 -6.32 27 -7 27 C-5.38949895 17.77622123 -2.71861481 8.94445024 0 0 Z " fill="#E59A76" transform="translate(174,192)"/>
<path d="M0 0 C0.66 0 1.32 0 2 0 C1.44941397 7.15761842 0.23852343 16.31985974 -4.6328125 21.85546875 C-5.08398438 22.23316406 -5.53515625 22.61085938 -6 23 C-6 21.68 -6 20.36 -6 19 C-5.34 19 -4.68 19 -4 19 C-4 15.37 -4 11.74 -4 8 C-3.34 8 -2.68 8 -2 8 C-2 7.01 -2 6.02 -2 5 C-1.34 5 -0.68 5 0 5 C0 3.35 0 1.7 0 0 Z " fill="#E58E68" transform="translate(373,276)"/>
<path d="M0 0 C2 3 2 3 1.8125 4.9375 C0.84556152 7.39203613 -0.19922828 9.06583778 -2 11 C-4.1875 11.75 -4.1875 11.75 -6 12 C-5 0 -5 0 0 0 Z " fill="#F25D31" transform="translate(252,349)"/>
<path d="M0 0 C0.99 0.495 0.99 0.495 2 1 C2 1.66 2 2.32 2 3 C2.66 3 3.32 3 4 3 C6.02055843 7.39251833 7.40895235 11.15340923 8 16 C7.01 15.67 6.02 15.34 5 15 C5 14.34 5 13.68 5 13 C4.01 13 3.02 13 2 13 C2.04125 11.96875 2.0825 10.9375 2.125 9.875 C2.00424851 6.13170373 1.35127982 3.46265453 0 0 Z " fill="#E37331" transform="translate(360,199)"/>
<path d="M0 0 C0.33 0 0.66 0 1 0 C1.35483782 11.47308963 0.76823831 21.82818109 -2 33 C-2.33 33 -2.66 33 -3 33 C-3.12036664 27.22240116 -2.8320582 21.72040011 -2 16 C-1.34 16 -0.68 16 0 16 C0 10.72 0 5.44 0 0 Z " fill="#ECB899" transform="translate(378,243)"/>
<path d="M0 0 C1.134375 0.020625 2.26875 0.04125 3.4375 0.0625 C0.17476211 2.23765859 -2.87160713 3.37261941 -6.5625 4.6875 C-7.8 5.13351562 -9.0375 5.57953125 -10.3125 6.0390625 C-13.5625 7.0625 -13.5625 7.0625 -16.5625 7.0625 C-16.5625 6.4025 -16.5625 5.7425 -16.5625 5.0625 C-15.923125 4.93875 -15.28375 4.815 -14.625 4.6875 C-13.944375 4.48125 -13.26375 4.275 -12.5625 4.0625 C-12.2325 3.4025 -11.9025 2.7425 -11.5625 2.0625 C-9.23534 1.68849214 -6.90132138 1.35485267 -4.5625 1.0625 C-3.5625 0.0625 -3.5625 0.0625 0 0 Z " fill="#E69377" transform="translate(276.5625,378.9375)"/>
<path d="M0 0 C0.33 0 0.66 0 1 0 C2.0024305 5.34629602 1.84888195 9.62374766 1 15 C0.01 15 -0.98 15 -2 15 C-2 15.66 -2 16.32 -2 17 C-2.66 17 -3.32 17 -4 17 C-2.68 11.39 -1.36 5.78 0 0 Z " fill="#E37E54" transform="translate(157,251)"/>
<path d="M0 0 C3.16305105 2.65810615 4.54145622 5.85097893 6.25 9.5625 C6.79140625 10.71878906 7.3328125 11.87507812 7.890625 13.06640625 C8.25671875 14.03449219 8.6228125 15.00257813 9 16 C8.67 16.66 8.34 17.32 8 18 C7.01 17.67 6.02 17.34 5 17 C4.46568615 15.36366385 3.94679078 13.71925203 3.5390625 12.046875 C2.96147249 9.85370712 2.19969836 7.79934439 1.375 5.6875 C0 2 0 2 0 0 Z " fill="#E49C6D" transform="translate(366,207)"/>
<path d="M0 0 C1.36724819 2.73449637 0.64208017 3.88601412 -0.21484375 6.7890625 C-0.48876953 7.73007813 -0.76269531 8.67109375 -1.04492188 9.640625 C-1.33947266 10.62546875 -1.63402344 11.6103125 -1.9375 12.625 C-2.22818359 13.61757812 -2.51886719 14.61015625 -2.81835938 15.6328125 C-3.53912896 18.09051863 -4.266593 20.54604104 -5 23 C-7.30414775 14.30223871 -4.29315328 7.58826723 0 0 Z " fill="#E5A37A" transform="translate(258,163)"/>
<path d="M0 0 C1.98 0 3.96 0 6 0 C-5.22177419 9.18145161 -5.22177419 9.18145161 -12 11 C-11.67 10.01 -11.34 9.02 -11 8 C-9.68 8 -8.36 8 -7 8 C-7 7.34 -7 6.68 -7 6 C-6.01 6 -5.02 6 -4 6 C-4.33 5.01 -4.66 4.02 -5 3 C-3.68 3 -2.36 3 -1 3 C-0.67 2.01 -0.34 1.02 0 0 Z " fill="#EA9875" transform="translate(307,361)"/>
<path d="M0 0 C1.57432497 3.14864995 0.71895552 5.64487425 0 9 C-0.99 9.66 -1.98 10.32 -3 11 C-3.33 10.67 -3.66 10.34 -4 10 C-4.66 11.32 -5.32 12.64 -6 14 C-6.66 14 -7.32 14 -8 14 C-8 14.66 -8 15.32 -8 16 C-8.66 15.67 -9.32 15.34 -10 15 C-5.05 7.575 -5.05 7.575 0 0 Z " fill="#E79374" transform="translate(245,352)"/>
<path d="M0 0 C0.33 0 0.66 0 1 0 C1 4.29 1 8.58 1 13 C0.34 13 -0.32 13 -1 13 C-1.33 14.98 -1.66 16.96 -2 19 C-2.66 19 -3.32 19 -4 19 C-3.26309887 12.51527007 -1.64681249 6.30760257 0 0 Z " fill="#E69D6E" transform="translate(188,141)"/>
<path d="M0 0 C0.99 0.33 1.98 0.66 3 1 C2.33035714 9.03571429 2.33035714 9.03571429 -1 13 C-1.22151549 11.20991533 -1.42682213 9.41781838 -1.625 7.625 C-1.74101562 6.62726563 -1.85703125 5.62953125 -1.9765625 4.6015625 C-1.98429688 3.74304688 -1.99203125 2.88453125 -2 2 C-1.34 1.34 -0.68 0.68 0 0 Z " fill="#E48152" transform="translate(222,281)"/>
<path d="M0 0 C1.26630351 3.69869947 0.85328541 6.79191303 0.3125 10.625 C0.16425781 11.77226562 0.01601562 12.91953125 -0.13671875 14.1015625 C-1 17 -1 17 -3.08203125 18.3984375 C-3.71496094 18.59695312 -4.34789062 18.79546875 -5 19 C-4.35720991 16.20760027 -3.71091335 13.41609416 -3.0625 10.625 C-2.88009766 9.8309375 -2.69769531 9.036875 -2.50976562 8.21875 C-2.33251953 7.45820313 -2.15527344 6.69765625 -1.97265625 5.9140625 C-1.81031494 5.2123291 -1.64797363 4.5105957 -1.48071289 3.78759766 C-1 2 -1 2 0 0 Z " fill="#E6976C" transform="translate(180,171)"/>
<path d="M0 0 C0.33 0 0.66 0 1 0 C1.02687279 1.81242052 1.04633715 3.62495233 1.0625 5.4375 C1.07410156 6.44683594 1.08570313 7.45617187 1.09765625 8.49609375 C1 11 1 11 0 12 C-0.23427778 14.01594582 -0.41336124 16.038474 -0.5625 18.0625 C-0.64628906 19.16722656 -0.73007813 20.27195312 -0.81640625 21.41015625 C-0.87699219 22.26480469 -0.93757812 23.11945313 -1 24 C-1.33 24 -1.66 24 -2 24 C-2.3690205 7.1070615 -2.3690205 7.1070615 0 0 Z " fill="#E18562" transform="translate(148,283)"/>
<path d="M0 0 C0.66 0 1.32 0 2 0 C1.3808361 2.584859 0.75492318 5.16776172 0.125 7.75 C-0.04902344 8.47960937 -0.22304687 9.20921875 -0.40234375 9.9609375 C-1.27908598 13.53285028 -2.12686823 16.79373841 -4 20 C-3.64999003 12.75841435 -2.94397591 6.65594553 0 0 Z " fill="#E29E7D" transform="translate(242,216)"/>
<path d="M0 0 C4.84111765 0.58838199 8.96071195 2.07653116 13.375 4.0625 C14.01566406 4.34416016 14.65632813 4.62582031 15.31640625 4.91601562 C16.88029659 5.60459421 18.44053941 6.30144711 20 7 C18.68 7.33 17.36 7.66 16 8 C15.67 7.34 15.34 6.68 15 6 C14.13375 6.0825 13.2675 6.165 12.375 6.25 C8.19600675 5.94044494 6.30537049 4.49739104 3 2 C2.01 1.34 1.02 0.68 0 0 Z " fill="#E49E6F" transform="translate(323,177)"/>
<path d="M0 0 C0.66 0.33 1.32 0.66 2 1 C2 2.32 2 3.64 2 5 C1.34 5 0.68 5 0 5 C0.04125 6.258125 0.0825 7.51625 0.125 8.8125 C0.2390374 12.29064073 0.05925681 12.91111478 -2 16 C-2.66 16 -3.32 16 -4 16 C-3.52417032 13.70763814 -3.04423615 11.41612791 -2.5625 9.125 C-2.29566406 7.84882813 -2.02882812 6.57265625 -1.75390625 5.2578125 C-1 2 -1 2 0 0 Z " fill="#E69B69" transform="translate(193,125)"/>
<path d="M0 0 C0.33 0 0.66 0 1 0 C2.0257259 4.41062136 2.03684712 6.92630576 0 11 C-1.32 11 -2.64 11 -4 11 C-3.56534471 6.47958496 -3.21201178 3.3458456 0 0 Z " fill="#E97750" transform="translate(260,330)"/>
<path d="M0 0 C0.33 0 0.66 0 1 0 C1.87510703 5.42802871 2.17665657 8.87845512 0 14 C-0.17871572 17.00753024 -0.11801079 19.9907249 0 23 C-0.66 23 -1.32 23 -2 23 C-2.22428282 15.05042008 -1.95403042 7.72888819 0 0 Z " fill="#E96031" transform="translate(147,300)"/>
<path d="M0 0 C5.45479185 0.56820748 9.91059256 1.94637945 15 4 C15 4.66 15 5.32 15 6 C9.22621075 5.5188509 5.04140164 3.81532819 0 1 C0 0.67 0 0.34 0 0 Z " fill="#E28D71" transform="translate(177,381)"/>
<path d="M0 0 C2.4375 0.375 2.4375 0.375 5 1 C6.33332095 3.6666419 5.67102033 5.16680303 5 8 C5.66 8.33 6.32 8.66 7 9 C6.34 9.66 5.68 10.32 5 11 C4.16151196 9.54462432 3.32936066 8.08559627 2.5 6.625 C1.80390625 5.40683594 1.80390625 5.40683594 1.09375 4.1640625 C0 2 0 2 0 0 Z " fill="#E57E58" transform="translate(151,353)"/>
<path d="M0 0 C1.32 0 2.64 0 4 0 C4.33 0.99 4.66 1.98 5 3 C3.78515625 4.82421875 3.78515625 4.82421875 2.0625 6.6875 C1.49660156 7.31011719 0.93070312 7.93273437 0.34765625 8.57421875 C-0.09707031 9.04472656 -0.54179687 9.51523437 -1 10 C-3 7 -3 7 -3 5 C-1.68 5 -0.36 5 1 5 C0.67 3.35 0.34 1.7 0 0 Z " fill="#EC8661" transform="translate(344,326)"/>
<path d="M0 0 C0.66 0.33 1.32 0.66 2 1 C0.75696561 6.17930997 -0.85487785 9.70166639 -4 14 C-5.28282164 10.15153509 -4.48702089 8.71755223 -3 5 C-2.0436126 3.30792999 -1.05589069 1.63183107 0 0 Z " fill="#E68E6A" transform="translate(365,298)"/>
<path d="M0 0 C1.07310858 3.27185553 0.89263102 5.42947592 0.0625 8.75 C-0.13214844 9.54921875 -0.32679688 10.3484375 -0.52734375 11.171875 C-0.76130859 12.07679688 -0.76130859 12.07679688 -1 13 C-1.66 13 -2.32 13 -3 13 C-3 13.66 -3 14.32 -3 15 C-3.66 15 -4.32 15 -5 15 C-4.37321829 11.33827525 -3.35548154 8.1181005 -1.9375 4.6875 C-1.39416016 3.36298828 -1.39416016 3.36298828 -0.83984375 2.01171875 C-0.56269531 1.34785156 -0.28554688 0.68398437 0 0 Z " fill="#E49873" transform="translate(286,220)"/>
<path d="M0 0 C0.99 0.66 1.98 1.32 3 2 C2.34 5.3 1.68 8.6 1 12 C0.01 12.33 -0.98 12.66 -2 13 C-2 10.69 -2 8.38 -2 6 C-1.34 6 -0.68 6 0 6 C0 4.02 0 2.04 0 0 Z " fill="#E78B6B" transform="translate(225,372)"/>
<path d="M0 0 C0.66 0 1.32 0 2 0 C0.60961435 5.13373162 -1.08460953 10.03739743 -3 15 C-3.33 15 -3.66 15 -4 15 C-3.67 11.7 -3.34 8.4 -3 5 C-2.34 5 -1.68 5 -1 5 C-0.67 3.35 -0.34 1.7 0 0 Z " fill="#E38969" transform="translate(240,337)"/>
<path d="M0 0 C0.66 0 1.32 0 2 0 C1.40312566 3.34249629 0.26396123 5.46436342 -2 8 C-2.66 8 -3.32 8 -4 8 C-4.33 9.32 -4.66 10.64 -5 12 C-5.66 12 -6.32 12 -7 12 C-5.50328459 7.50985376 -3.16631659 3.52151236 0 0 Z " fill="#E59B7B" transform="translate(277,305)"/>
<path d="M0 0 C2.25 -0.3125 2.25 -0.3125 5 0 C7.3125 2.5 7.3125 2.5 9 5 C8.360625 5.12375 7.72125 5.2475 7.0625 5.375 C6.0415625 5.684375 6.0415625 5.684375 5 6 C4.67 6.66 4.34 7.32 4 8 C3 3.25 3 3.25 3 1 C2.01 0.67 1.02 0.34 0 0 Z " fill="#E98348" transform="translate(349,192)"/>
<path d="M0 0 C0.66 0 1.32 0 2 0 C1.71572583 1.58467728 1.42225182 3.1677057 1.125 4.75 C0.88136719 6.07257813 0.88136719 6.07257813 0.6328125 7.421875 C0.03203736 9.86947744 -0.77997117 11.80599857 -2 14 C-1.85970581 11.8537974 -1.71261836 9.70803782 -1.5625 7.5625 C-1.48128906 6.36753906 -1.40007812 5.17257813 -1.31640625 3.94140625 C-1 1 -1 1 0 0 Z " fill="#E49D7B" transform="translate(236,236)"/>
<path d="M0 0 C0.66 0 1.32 0 2 0 C2.185625 0.9590625 2.185625 0.9590625 2.375 1.9375 C2.684375 2.9584375 2.684375 2.9584375 3 4 C3.66 4.33 4.32 4.66 5 5 C5 7.64 5 10.28 5 13 C2.79970166 10.79970166 2.31417391 9.4218744 1.375 6.5 C0.98441406 5.30890625 0.98441406 5.30890625 0.5859375 4.09375 C0 2 0 2 0 0 Z " fill="#E18C70" transform="translate(146,340)"/>
<path d="M0 0 C-0.99 3.3 -1.98 6.6 -3 10 C-3.33 10 -3.66 10 -4 10 C-4 8.02 -4 6.04 -4 4 C-4.66 4 -5.32 4 -6 4 C-5.67 3.01 -5.34 2.02 -5 1 C-3 0 -3 0 0 0 Z " fill="#E58965" transform="translate(250,317)"/>
<path d="M0 0 C0.99 0.33 1.98 0.66 3 1 C0.22719294 4.08089673 -2.06326356 5.68775452 -6 7 C-5.67 5.68 -5.34 4.36 -5 3 C-3.35 2.67 -1.7 2.34 0 2 C0 1.34 0 0.68 0 0 Z " fill="#E5916E" transform="translate(320,353)"/>
<path d="M0 0 C1 3 1 3 0.22265625 4.82421875 C-0.8515625 6.54947917 -1.92578125 8.27473958 -3 10 C-3.99 10 -4.98 10 -6 10 C-4.6302836 6.00499382 -2.74277578 3.19990508 0 0 Z " fill="#E69470" transform="translate(297,276)"/>
<path d="M0 0 C0.33 0.66 0.66 1.32 1 2 C0.22265625 3.9453125 0.22265625 3.9453125 -0.9375 6.125 C-1.31777344 6.84945313 -1.69804687 7.57390625 -2.08984375 8.3203125 C-2.39019531 8.87460937 -2.69054687 9.42890625 -3 10 C-3.99 10 -4.98 10 -6 10 C-4.6302836 6.00499382 -2.74277578 3.19990508 0 0 Z " fill="#E19069" transform="translate(308,260)"/>
<path d="M0 0 C1.24142712 4.96570849 0.37261666 7.15547062 -1 12 C-1.66 12 -2.32 12 -3 12 C-3 12.66 -3 13.32 -3 14 C-3.66 13.67 -4.32 13.34 -5 13 C-3.35 8.71 -1.7 4.42 0 0 Z " fill="#E59E6E" transform="translate(304,174)"/>
<path d="M0 0 C0.66 0 1.32 0 2 0 C0.85569823 3.87302138 -0.23320098 7.00263439 -3 10 C-3.66 10 -4.32 10 -5 10 C-4.67 8.68 -4.34 7.36 -4 6 C-3.34 6 -2.68 6 -2 6 C-1.7834375 5.071875 -1.7834375 5.071875 -1.5625 4.125 C-1 2 -1 2 0 0 Z " fill="#E3987F" transform="translate(233,369)"/>
<path d="M0 0 C1.60080151 4.00200378 0.29279692 7.04556236 -1 11 C-3.1519437 7.77208445 -3.20086443 6.71599191 -3 3 C-2.34 3 -1.68 3 -1 3 C-0.67 2.01 -0.34 1.02 0 0 Z " fill="#E49B6D" transform="translate(248,197)"/>
<path d="M0 0 C0.33 0.99 0.66 1.98 1 3 C0.67 3.33 0.34 3.66 0 4 C-0.23192865 5.51469448 -0.41215238 7.03754562 -0.5625 8.5625 C-0.64628906 9.38878906 -0.73007813 10.21507812 -0.81640625 11.06640625 C-0.87699219 11.70449219 -0.93757812 12.34257812 -1 13 C-1.99 12.01 -2.98 11.02 -4 10 C-3.52449439 8.51965236 -3.04448784 7.04074979 -2.5625 5.5625 C-2.29566406 4.73878906 -2.02882812 3.91507813 -1.75390625 3.06640625 C-1 1 -1 1 0 0 Z " fill="#E87330" transform="translate(254,169)"/>
<path d="M0 0 C1.37478516 0.01740234 1.37478516 0.01740234 2.77734375 0.03515625 C3.69644531 0.04417969 4.61554688 0.05320312 5.5625 0.0625 C6.27277344 0.07410156 6.98304688 0.08570313 7.71484375 0.09765625 C7.71484375 0.42765625 7.71484375 0.75765625 7.71484375 1.09765625 C2.64007581 2.3607096 -2.01311979 3.36801709 -7.28515625 3.09765625 C-6.64578125 2.78828125 -6.00640625 2.47890625 -5.34765625 2.16015625 C-1.25884046 0.0537966 -1.25884046 0.0537966 0 0 Z " fill="#E5A081" transform="translate(251.28515625,385.90234375)"/>
<path d="M0 0 C0.99 0 1.98 0 3 0 C4.15837626 4.05431692 3.83691257 6.21812119 2 10 C1.67 10 1.34 10 1 10 C0.67 6.7 0.34 3.4 0 0 Z " fill="#EA7E59" transform="translate(232,350)"/>
<path d="M0 0 C0.33 0 0.66 0 1 0 C1.19402245 4.17148265 1.01430083 7.28944583 -1 11 C-1.99 11.33 -2.98 11.66 -4 12 C-2.66666667 8 -1.33333333 4 0 0 Z " fill="#E5A27A" transform="translate(291,207)"/>
<path d="M0 0 C0.99 0.495 0.99 0.495 2 1 C2 1.66 2 2.32 2 3 C2.66 3 3.32 3 4 3 C4.66 4.65 5.32 6.3 6 8 C5.01 8.66 4.02 9.32 3 10 C2.49596232 8.70990357 1.99690074 7.41786211 1.5 6.125 C1.2215625 5.40570313 0.943125 4.68640625 0.65625 3.9453125 C0 2 0 2 0 0 Z " fill="#E2A074" transform="translate(360,199)"/>
<path d="M0 0 C0.99 0 1.98 0 3 0 C1.79618552 2.49361571 0.54571278 4.68143083 -1 7 C-1.66 7 -2.32 7 -3 7 C-3 5.68 -3 4.36 -3 3 C-2.01 3 -1.02 3 0 3 C0 2.01 0 1.02 0 0 Z " fill="#E89C7F" transform="translate(352,320)"/>
<path d="M0 0 C0.99 0.33 1.98 0.66 3 1 C2.01 3.97 1.02 6.94 0 10 C-1 7 -1 7 -1 4 C-1.66 3.34 -2.32 2.68 -3 2 C-2.01 1.34 -1.02 0.68 0 0 Z " fill="#EA6233" transform="translate(252,299)"/>
<path d="M0 0 C0.33 0 0.66 0 1 0 C1.6875 3.3125 1.6875 3.3125 2 7 C0.5625 8.9375 0.5625 8.9375 -1 10 C-2.31223496 6.06329512 -1.24296256 3.87511856 0 0 Z " fill="#E6A285" transform="translate(157,251)"/>
<path d="M0 0 C1.5625 1.125 1.5625 1.125 3 3 C2.6875 6.1875 2.6875 6.1875 2 9 C0 7 0 7 -0.125 3.375 C-0.08375 2.26125 -0.0425 1.1475 0 0 Z " fill="#E08453" transform="translate(373,224)"/>
<path d="M0 0 C0.33 0.99 0.66 1.98 1 3 C0.67 3.66 0.34 4.32 0 5 C-0.66 5 -1.32 5 -2 5 C-2.33 6.32 -2.66 7.64 -3 9 C-3.66 9 -4.32 9 -5 9 C-3.7508258 5.54074837 -2.32472205 2.85306797 0 0 Z " fill="#E39C7B" transform="translate(256,336)"/>
<path d="M0 0 C0.33 0 0.66 0 1 0 C1 1.98 1 3.96 1 6 C-0.65 6.33 -2.3 6.66 -4 7 C-2.68 4.69 -1.36 2.38 0 0 Z " fill="#E3946F" transform="translate(290,286)"/>
<path d="M0 0 C0.66 1.32 1.32 2.64 2 4 C1.01 4 0.02 4 -1 4 C-1 4.66 -1 5.32 -1 6 C-1.99 5.67 -2.98 5.34 -4 5 C-2.68 3.35 -1.36 1.7 0 0 Z " fill="#E46236" transform="translate(301,363)"/>
<path d="M0 0 C1 2 2 4 3 6 C1.35 6 -0.3 6 -2 6 C-1.125 1.125 -1.125 1.125 0 0 Z " fill="#E76B2F" transform="translate(276,251)"/>
<path d="M0 0 C0.33 0 0.66 0 1 0 C1.36923077 6.52307692 1.36923077 6.52307692 -0.5 8.9375 C-0.995 9.288125 -1.49 9.63875 -2 10 C-1.125 2.25 -1.125 2.25 0 0 Z " fill="#E4AA8C" transform="translate(183,160)"/>
</svg>
