<?xml version="1.0" encoding="UTF-8"?>
<svg version="1.1" xmlns="http://www.w3.org/2000/svg" width="400" height="400">
<path d="M0 0 C1.10730469 0.51433594 2.21460938 1.02867188 3.35546875 1.55859375 C19.20786275 9.12590732 33.15323593 20.13986741 46 32 C49.73666986 35.28726752 49.73666986 35.28726752 53.48046875 38.56640625 C72.86468429 57.28945475 87.16945203 81.061097 97 106 C97.41306396 107.04341553 97.41306396 107.04341553 97.83447266 108.10791016 C110.46802144 140.84547871 112.90887719 179.63562973 106 214 C105.70198486 215.48886719 105.70198486 215.48886719 105.39794922 217.0078125 C96.62573189 259.37729363 74.404817 300.73337868 40 328 C39.07316406 328.7528125 38.14632813 329.505625 37.19140625 330.28125 C28.90224607 336.91127992 20.16432138 342.65535945 11 348 C10.28634277 348.41781738 9.57268555 348.83563477 8.83740234 349.26611328 C-34.6661568 374.3528118 -88.51534389 380.56343284 -137 368 C-167.3402224 359.50473773 -194.45906115 345.5768225 -217.703125 324.109375 C-219.75935351 322.22100188 -221.86286408 320.42019417 -224 318.625 C-229.10405702 314.15511439 -233.59189205 309.14632344 -238 304 C-238.43715332 303.49114258 -238.87430664 302.98228516 -239.32470703 302.45800781 C-268.80807573 267.68164678 -283.51649299 222.63517531 -283.3125 177.375 C-283.31067719 176.53550812 -283.30885437 175.69601624 -283.30697632 174.83108521 C-283.26122617 162.31417142 -282.72011011 150.25627948 -280 138 C-279.82307617 137.14744629 -279.64615234 136.29489258 -279.46386719 135.41650391 C-276.98394843 123.53302448 -273.80261608 112.15557833 -269 101 C-268.52868652 99.89906006 -268.52868652 99.89906006 -268.04785156 98.77587891 C-247.27177145 51.01905196 -208.64807562 13.8627375 -160.75 -6.125 C-109.01455294 -26.36276997 -49.97238882 -24.08630848 0 0 Z " fill="#4B5EA9" transform="translate(287,23)"/>
<path d="M0 0 C1.35327565 2.34432548 2.5439716 4.62026711 3.6875 7.0625 C4.00783203 7.72572266 4.32816406 8.38894531 4.65820312 9.07226562 C5.4478598 10.71050858 6.22512362 12.35471454 7 14 C8.06992188 13.855625 9.13984375 13.71125 10.2421875 13.5625 C31.2127968 10.935916 52.04738758 11.50881891 73 14 C73.47050781 13.00097656 73.94101563 12.00195312 74.42578125 10.97265625 C75.05415545 9.66901425 75.68309095 8.36564269 76.3125 7.0625 C76.62123047 6.40314453 76.92996094 5.74378906 77.24804688 5.06445312 C78.08950978 3.33723979 79.03947665 1.6639473 80 0 C83.40171016 -1.13390339 84.59794868 -0.84013988 88.0234375 -0.03125 C89.5401001 0.3256189 89.5401001 0.3256189 91.08740234 0.68969727 C92.17230957 0.95709717 93.2572168 1.22449707 94.375 1.5 C96.0468335 1.90786743 96.0468335 1.90786743 97.75244141 2.32397461 C108.37590418 4.98248295 118.72168871 8.23206452 129 12 C130.7325 12.61294922 130.7325 12.61294922 132.5 13.23828125 C142.89118755 17.3467535 147.67731219 26.6161552 152.9375 36 C153.45546143 36.92006836 153.97342285 37.84013672 154.50708008 38.78808594 C167.68563974 62.45419868 176.63236827 87.43916899 182 114 C182.17789062 114.83305664 182.35578125 115.66611328 182.5390625 116.52441406 C185.43112085 130.56581643 185.28180431 144.78914913 185.3125 159.0625 C185.31814972 160.55398056 185.31814972 160.55398056 185.32391357 162.07559204 C185.32940721 164.9373357 185.31852708 167.79847102 185.30078125 170.66015625 C185.3015416 171.52699036 185.30230194 172.39382446 185.30308533 173.28692627 C185.25307155 177.60706464 185.09838729 181.10508379 183 185 C180.04443615 187.81122236 176.44975012 189.83984136 173 192 C172.29987793 192.4429541 171.59975586 192.8859082 170.87841797 193.34228516 C155.24185841 203.17314253 139.31795707 211.19625715 122 217.625 C121.04947754 217.98045898 120.09895508 218.33591797 119.11962891 218.70214844 C118.23452637 219.01958008 117.34942383 219.33701172 116.4375 219.6640625 C115.25994141 220.08872803 115.25994141 220.08872803 114.05859375 220.52197266 C112 221 112 221 109 220 C107.58959961 218.23754883 107.58959961 218.23754883 106.15234375 215.95703125 C105.62962891 215.13009766 105.10691406 214.30316406 104.56835938 213.45117188 C104.03017578 212.58041016 103.49199219 211.70964844 102.9375 210.8125 C102.39544922 209.96107422 101.85339844 209.10964844 101.29492188 208.23242188 C98.6005334 203.92606304 96.30721513 199.960922 95 195 C95.99 194.55269531 96.98 194.10539063 98 193.64453125 C104.95734442 190.46913693 111.63831754 187.28439839 118 183 C116.58017295 181.11564938 116.58017295 181.11564938 114 180 C112.03653138 180.38110397 112.03653138 180.38110397 109.9296875 181.20703125 C109.12635986 181.49376709 108.32303223 181.78050293 107.49536133 182.07592773 C106.67189209 182.38087158 105.84842285 182.68581543 105 183 C61.16460817 198.90902604 14.095957 200.692737 -28.96875 180.90625 C-31.95715062 179.73075812 -31.95715062 179.73075812 -34.84375 180.71875 C-37.1334358 181.81647498 -37.1334358 181.81647498 -38 184 C-37.44538086 184.26216309 -36.89076172 184.52432617 -36.31933594 184.79443359 C-33.79600823 185.98750008 -31.27300122 187.18124325 -28.75 188.375 C-27.87730469 188.7875 -27.00460938 189.2 -26.10546875 189.625 C-25.26113281 190.02460938 -24.41679687 190.42421875 -23.546875 190.8359375 C-22.77182617 191.20251465 -21.99677734 191.5690918 -21.19824219 191.94677734 C-19.12040807 192.94231004 -17.0574431 193.96308146 -15 195 C-16.47988598 200.3342783 -18.97621063 204.51854987 -21.9375 209.125 C-22.60168945 210.17880859 -22.60168945 210.17880859 -23.27929688 211.25390625 C-25.40213565 214.60109466 -27.5500417 217.87893101 -30 221 C-54.98471741 215.07846614 -85.32127175 201.90908176 -104 184 C-104.93196803 181.2666776 -105.13335411 178.72990554 -105.16113281 175.85595703 C-105.17058929 175.04556473 -105.18004578 174.23517242 -105.18978882 173.40022278 C-105.19418976 172.52822739 -105.1985907 171.65623199 -105.203125 170.7578125 C-105.21018463 169.84613815 -105.21724426 168.93446381 -105.22451782 167.99516296 C-105.45064591 130.15927478 -105.45064591 130.15927478 -102 114 C-101.80664062 113.04319336 -101.61328125 112.08638672 -101.4140625 111.10058594 C-94.97375035 79.78357426 -82.59779915 51.20808709 -66 24 C-65.62053223 23.33363525 -65.24106445 22.66727051 -64.85009766 21.98071289 C-61.57510784 16.70184483 -57.60854546 14.98476193 -51.875 12.9375 C-50.55254272 12.44008301 -50.55254272 12.44008301 -49.20336914 11.93261719 C-46.47913771 10.92326479 -43.74383364 9.95465752 -41 9 C-40.18031738 8.71205566 -39.36063477 8.42411133 -38.51611328 8.12744141 C-29.63563932 5.05224353 -20.68578894 2.55022725 -11.5 0.5625 C-10.69232178 0.3862207 -9.88464355 0.20994141 -9.05249023 0.02832031 C-3.37749803 -1.12583268 -3.37749803 -1.12583268 0 0 Z " fill="#FDFEFE" transform="translate(160,90)"/>
<path d="M0 0 C6.62576185 3.79070029 11.05482844 9.156301 13.9296875 16.22265625 C16.08035646 24.61993114 15.686181 33.86160042 11.9453125 41.72265625 C8.23135387 47.9528768 4.03450279 52.68028392 -2.8515625 55.3125 C-9.80346168 57.03433261 -17.21927576 57.12507736 -23.5 53.3828125 C-31.59347927 47.1440889 -36.25231494 39.52731876 -37.75 29.40234375 C-38.17672318 20.98789595 -35.47215214 13.10072079 -30.1875 6.5625 C-21.69019329 -2.18684547 -11.48317285 -5.19764666 0 0 Z " fill="#4B5EA8" transform="translate(259.375,184.0625)"/>
<path d="M0 0 C8.19056631 4.79070859 12.67350875 10.13171925 16.5625 18.6875 C18.99916034 29.24636146 16.43642819 37.80534467 11.625 47.25 C6.86903599 52.77720142 1.12787144 56.39903994 -6.1328125 57.2109375 C-13.38829838 57.48592676 -18.77361132 56.26965014 -24.6875 51.9375 C-31.79387744 44.8980376 -34.78285405 37.95265628 -35.125 28.0625 C-34.91006035 19.32473588 -32.58906526 11.91249509 -26.50390625 5.4765625 C-18.54301363 -1.26879598 -9.95180127 -2.86746816 0 0 Z " fill="#4A5DA7" transform="translate(160.6875,183.0625)"/>
<path d="M0 0 C2.1875 1.375 2.1875 1.375 4.1875 4.375 C1.66793257 5.64839482 -0.85308649 6.91876642 -3.375 8.1875 C-4.07947266 8.54392578 -4.78394531 8.90035156 -5.50976562 9.26757812 C-9.88628925 11.46592409 -14.29124598 13.49163926 -18.8125 15.375 C-17.24768699 20.8394264 -14.56695218 25.18742767 -11.47070312 29.87109375 C-10.52870278 31.33794728 -9.66356834 32.85358401 -8.8125 34.375 C-9.1425 35.035 -9.4725 35.695 -9.8125 36.375 C-11.7925 33.405 -13.7725 30.435 -15.8125 27.375 C-16.8025 28.695 -17.7925 30.015 -18.8125 31.375 C-18.80089844 30.77171875 -18.78929687 30.1684375 -18.77734375 29.546875 C-18.76832031 28.74765625 -18.75929688 27.9484375 -18.75 27.125 C-18.73839844 26.33609375 -18.72679687 25.5471875 -18.71484375 24.734375 C-18.80864694 22.46808998 -19.18008937 20.5461105 -19.8125 18.375 C-21.4625 18.375 -23.1125 18.375 -24.8125 18.375 C-24.8125 17.715 -24.8125 17.055 -24.8125 16.375 C-25.76125 16.271875 -26.71 16.16875 -27.6875 16.0625 C-30.8125 15.375 -30.8125 15.375 -32.8125 12.375 C-34.87175139 11.65117533 -34.87175139 11.65117533 -36.8125 11.375 C-36.03124756 11.11807373 -35.24999512 10.86114746 -34.44506836 10.59643555 C-31.51634541 9.63163121 -28.58856661 8.66402547 -25.66137695 7.69458008 C-23.78341863 7.07355133 -21.90441316 6.45569195 -20.02539062 5.83789062 C-12.72285261 3.44772702 -12.72285261 3.44772702 -5.6171875 0.54296875 C-2.8125 -0.625 -2.8125 -0.625 0 0 Z " fill="#47599D" transform="translate(274.8125,269.625)"/>
<path d="M0 0 C4.69902239 1.56204945 9.39524381 3.13184865 14.0859375 4.71875 C27.42840124 9.23832242 27.42840124 9.23832242 41 13 C37.25 15 37.25 15 35 15 C35 14.34 35 13.68 35 13 C33.3603125 13.99 33.3603125 13.99 31.6875 15 C29.06292462 16.58464929 28.1743622 17 25 17 C24.67 17.66 24.34 18.32 24 19 C22.68 18.34 21.36 17.68 20 17 C19.01 19.475 19.01 19.475 18 22 C16.75453595 19.50907189 17.2232422 18.58919267 18 16 C16.92621094 15.54109375 15.85242188 15.0821875 14.74609375 14.609375 C13.30980296 13.98979858 11.87361026 13.36999474 10.4375 12.75 C9.73302734 12.44964844 9.02855469 12.14929688 8.30273438 11.83984375 C3.67259467 9.83416111 -0.66104425 7.57714586 -5 5 C-3.35 3.35 -1.7 1.7 0 0 Z " fill="#475899" transform="translate(126,269)"/>
<path d="M0 0 C5.06773278 -0.16892443 9.69428499 0.03268923 14.6875 0.9375 C28.09389921 3.32999594 41.33264681 3.01169353 54.875 2.5625 C56.64190768 2.50911959 58.40883488 2.45638114 60.17578125 2.40429688 C64.45078132 2.27691147 68.72542521 2.14090951 73 2 C72.67 2.66 72.34 3.32 72 4 C68.28721829 4.77024459 64.46526771 4.91124989 60.6875 5.1875 C59.53064697 5.27281982 58.37379395 5.35813965 57.18188477 5.44604492 C38.89055494 6.62173185 18.80408179 7.13248703 1 2 C0.67 1.34 0.34 0.68 0 0 Z " fill="#50598F" transform="translate(158,391)"/>
<path d="M0 0 C3 1 3 1 5 2 C7.09821215 1.60061233 7.09821215 1.60061233 9 1 C5.48797809 5.02034087 1.37320757 7.29168361 -3.25 9.8125 C-4.03906738 10.2453833 -4.82813477 10.6782666 -5.64111328 11.12426758 C-10.96700279 14.00207746 -16.35422602 16.70366743 -21.875 19.1875 C-22.8635498 19.64249878 -22.8635498 19.64249878 -23.87207031 20.10668945 C-26.57296611 21.27837049 -28.48659424 22.06807137 -31.4453125 21.67578125 C-32.21488281 21.34126953 -32.21488281 21.34126953 -33 21 C-31.68 19.02 -30.36 17.04 -29 15 C-28.401875 15.165 -27.80375 15.33 -27.1875 15.5 C-22.39613718 16.59516864 -19.10860654 14.91321094 -14.8125 13 C-14.15830078 12.71382813 -13.50410156 12.42765625 -12.83007812 12.1328125 C-11.21790725 11.42675226 -9.60866281 10.71401678 -8 10 C-8 9.34 -8 8.68 -8 8 C-7.01 7.360625 -6.02 6.72125 -5 6.0625 C-4.01 5.381875 -3.02 4.70125 -2 4 C-2 3.01 -2 2.02 -2 1 C-1.34 0.67 -0.68 0.34 0 0 Z " fill="#4D5A95" transform="translate(300,362)"/>
<path d="M0 0 C0.33 0.99 0.66 1.98 1 3 C-0.109375 5.04296875 -0.109375 5.04296875 -1.75 7.1875 C-2.28109375 7.90292969 -2.8121875 8.61835937 -3.359375 9.35546875 C-3.90078125 9.89816406 -4.4421875 10.44085938 -5 11 C-5.99 11 -6.98 11 -8 11 C-8.2475 11.94875 -8.495 12.8975 -8.75 13.875 C-10.17321469 17.43303673 -10.69106337 17.55234022 -14 19 C-15.13350534 21.01669827 -15.13350534 21.01669827 -16 23 C-16.66 23.33 -17.32 23.66 -18 24 C-19.01691264 25.99145391 -20.01642648 27.99187074 -21 30 C-21.66 30.66 -22.32 31.32 -23 32 C-23.99 31.67 -24.98 31.34 -26 31 C-20.72990992 23.98098623 -15.34066526 17.10105148 -9.625 10.4375 C-9.12581055 9.85468262 -8.62662109 9.27186523 -8.11230469 8.67138672 C-5.51201899 5.66343654 -2.85777778 2.76974197 0 0 Z " fill="#56619C" transform="translate(63,58)"/>
<path d="M0 0 C0.66 0 1.32 0 2 0 C1.44271087 3.34373475 0.64826111 6.03312999 -1 9 C-1.66 9 -2.32 9 -3 9 C-3.144375 10.2375 -3.28875 11.475 -3.4375 12.75 C-3.78688502 15.56504499 -4.20379366 18.2701497 -5 21 C-5.66 21 -6.32 21 -7 21 C-7.19335938 21.67546875 -7.38671875 22.3509375 -7.5859375 23.046875 C-7.84632812 23.93890625 -8.10671875 24.8309375 -8.375 25.75 C-8.63023438 26.63171875 -8.88546875 27.5134375 -9.1484375 28.421875 C-9.9209934 30.76080572 -10.83625676 32.83442562 -12 35 C-13.74819485 30.88966093 -12.04979725 27.57836092 -10.5 23.6875 C-10.23171387 22.99269531 -9.96342773 22.29789063 -9.68701172 21.58203125 C-6.79657135 14.23238597 -3.44857062 7.10119868 0 0 Z " fill="#586698" transform="translate(25,109)"/>
<path d="M0 0 C0.99 0 1.98 0 3 0 C3.4125 1.11375 3.825 2.2275 4.25 3.375 C4.83118379 4.9174783 5.41474048 6.45906354 6 8 C6.33644531 8.886875 6.67289063 9.77375 7.01953125 10.6875 C7.36371094 11.574375 7.70789063 12.46125 8.0625 13.375 C8.38347656 14.20773437 8.70445313 15.04046875 9.03515625 15.8984375 C9.92416061 18.15588505 9.92416061 18.15588505 12 20 C13.27674231 22.1514948 14.49776961 24.30174065 15.6875 26.5 C16.02072266 27.09425781 16.35394531 27.68851562 16.69726562 28.30078125 C17.52952554 29.83380055 18.2720537 31.41478743 19 33 C18.67 33.66 18.34 34.32 18 35 C13.65897752 29.12373787 10.17153415 22.81251187 6.75 16.375 C6.31381348 15.56377686 5.87762695 14.75255371 5.42822266 13.91674805 C3.02192106 9.33280429 1.21508436 5.03584962 0 0 Z " fill="#515B8E" transform="translate(18,274)"/>
<path d="M0 0 C-1.50720702 5.00204329 -4.4940354 8.10395018 -8 11.8125 C-8.81984375 12.7087207 -8.81984375 12.7087207 -9.65625 13.62304688 C-11.05814589 15.12630533 -12.52470177 16.56870925 -14 18 C-14.66 18 -15.32 18 -16 18 C-16 17.01 -16 16.02 -16 15 C-15.34 15 -14.68 15 -14 15 C-14.0825 14.236875 -14.165 13.47375 -14.25 12.6875 C-14 10 -14 10 -12.375 8.3125 C-9.66142562 6.81289311 -6.96877282 5.87713742 -4 5 C-4.66 3.68 -5.32 2.36 -6 1 C-4 0 -4 0 0 0 Z " fill="#515F9C" transform="translate(352,323)"/>
<path d="M0 0 C0.33 0.99 0.66 1.98 1 3 C-0.3125 4.5 -0.3125 4.5 -2 6 C-2.99 6 -3.98 6 -5 6 C-5 6.66 -5 7.32 -5 8 C-6.65 8.66 -8.3 9.32 -10 10 C-9.67 11.32 -9.34 12.64 -9 14 C-11.31 14.33 -13.62 14.66 -16 15 C-16.33 16.32 -16.66 17.64 -17 19 C-17.99 18.67 -18.98 18.34 -20 18 C-14.11327841 10.67622578 -7.62934205 5.37868615 0 0 Z " fill="#565F9A" transform="translate(86,39)"/>
<path d="M0 0 C0.66 0.33 1.32 0.66 2 1 C2.68603516 3.38916016 2.68603516 3.38916016 3.2890625 6.5390625 C3.61777344 8.24642578 3.61777344 8.24642578 3.953125 9.98828125 C4.17484375 11.18839844 4.3965625 12.38851562 4.625 13.625 C4.85445313 14.80191406 5.08390625 15.97882813 5.3203125 17.19140625 C6.39282325 22.86677565 7.3220139 28.22069783 7 34 C6.34 34 5.68 34 5 34 C5.020625 33.030625 5.04125 32.06125 5.0625 31.0625 C5.35618499 28.12534105 5.35618499 28.12534105 4 27 C3.42941715 24.10569632 2.91375893 21.22246486 2.4375 18.3125 C2.29892578 17.50876953 2.16035156 16.70503906 2.01757812 15.87695312 C1.2966828 11.53382511 0.83575359 7.42037087 1 3 C0.01 2.67 -0.98 2.34 -2 2 C-1.34 1.34 -0.68 0.68 0 0 Z " fill="#535D95" transform="translate(388,146)"/>
<path d="M0 0 C6.48129652 0.41151089 12.62502935 1.47175811 18.9375 2.9375 C19.68314209 3.10733398 20.42878418 3.27716797 21.19702148 3.45214844 C24.60965216 4.26866028 27.05195772 5.03463848 30 7 C27.50935112 7.68707555 25.62113708 8 23 8 C22.34 7.34 21.68 6.68 21 6 C18.63952637 5.64721014 18.63952637 5.64721014 15.9375 5.5625 C10.68999362 5.1753322 5.76820368 4.31756877 1 2 C0.67 1.34 0.34 0.68 0 0 Z " fill="#5A669B" transform="translate(230,6)"/>
<path d="M0 0 C2.0625 1.4375 2.0625 1.4375 4.0625 4.4375 C1.9646477 5.63755531 -0.1395249 6.82252983 -2.25 8 C-2.84490234 8.34224609 -3.43980469 8.68449219 -4.05273438 9.03710938 C-5.64032559 9.91516262 -7.28743931 10.68336268 -8.9375 11.4375 C-9.9275 11.1075 -10.9175 10.7775 -11.9375 10.4375 C-8.6375 8.7875 -5.3375 7.1375 -1.9375 5.4375 C-1.9375 4.1175 -1.9375 2.7975 -1.9375 1.4375 C-3.2575 1.7675 -4.5775 2.0975 -5.9375 2.4375 C-6.2675 3.7575 -6.5975 5.0775 -6.9375 6.4375 C-7.5975 6.4375 -8.2575 6.4375 -8.9375 6.4375 C-8.9375 5.7775 -8.9375 5.1175 -8.9375 4.4375 C-9.9275 4.1075 -10.9175 3.7775 -11.9375 3.4375 C-3.97419784 -0.76101661 -3.97419784 -0.76101661 0 0 Z " fill="#425187" transform="translate(274.9375,269.5625)"/>
<path d="M0 0 C1.32 0 2.64 0 4 0 C5.62912132 3.06032459 7.252557 6.12363037 8.875 9.1875 C9.33519531 10.05181641 9.79539062 10.91613281 10.26953125 11.80664062 C10.71425781 12.64775391 11.15898437 13.48886719 11.6171875 14.35546875 C12.22989502 15.51018677 12.22989502 15.51018677 12.85498047 16.68823242 C16 23.03795309 16 23.03795309 16 27 C15.34 27 14.68 27 14 27 C14 25.68 14 24.36 14 23 C13.34 23 12.68 23 12 23 C12 21.35 12 19.7 12 18 C11.34 18 10.68 18 10 18 C9.69707031 17.19175781 9.39414062 16.38351563 9.08203125 15.55078125 C6.75802277 9.62277192 4.93464638 5.088707 0 1 C0 0.67 0 0.34 0 0 Z " fill="#515A94" transform="translate(366,100)"/>
<path d="M0 0 C4.39383706 1.59623144 8.28995807 3.78024333 12.3125 6.125 C12.95767578 6.49753906 13.60285156 6.87007813 14.26757812 7.25390625 C15.84675945 8.16632213 17.42361864 9.08275509 19 10 C16 12 16 12 13.0625 11.9375 C9.2395145 10.76719832 8.28794411 9.20312176 6 6 C4.67607028 4.98758315 3.34400833 3.98560611 2 3 C1.34 2.01 0.68 1.02 0 0 Z " fill="#44548F" transform="translate(68,283)"/>
<path d="M0 0 C2.1640625 0.0234375 2.1640625 0.0234375 4.625 0.375 C5.85089844 0.54128906 5.85089844 0.54128906 7.1015625 0.7109375 C7.72804688 0.80632812 8.35453125 0.90171875 9 1 C5.8897926 3.0734716 3.23775892 4.05321889 -0.3125 5.1875 C-1.42238281 5.55230469 -2.53226563 5.91710937 -3.67578125 6.29296875 C-7.18285704 7.03889204 -9.53873255 6.82211647 -13 6 C-12.67 5.34 -12.34 4.68 -12 4 C-9.78515625 3.4375 -9.78515625 3.4375 -7.0625 3 C-3.07684725 2.4451989 -3.07684725 2.4451989 0 0 Z " fill="#5C649A" transform="translate(257,384)"/>
<path d="M0 0 C5.75 0.875 5.75 0.875 8 2 C7.6875 3.9375 7.6875 3.9375 7 6 C6.01 6.33 5.02 6.66 4 7 C4.99 7.99 5.98 8.98 7 10 C2.44684052 9.38188466 -1.28459767 7.53234107 -5.3125 5.4375 C-6.28026367 4.9434668 -6.28026367 4.9434668 -7.26757812 4.43945312 C-8.84785228 3.63175745 -10.42432105 2.81662387 -12 2 C-11.34 1.67 -10.68 1.34 -10 1 C-7.1796875 2.21484375 -7.1796875 2.21484375 -3.875 3.9375 C-2.23144531 4.78634766 -2.23144531 4.78634766 -0.5546875 5.65234375 C0.28835937 6.09707031 1.13140625 6.54179687 2 7 C2 6.01 2 5.02 2 4 C2.66 3.67 3.32 3.34 4 3 C2.68 2.01 1.36 1.02 0 0 Z " fill="#3F4E8A" transform="translate(137,274)"/>
<path d="M0 0 C1.20462891 0.40798828 1.20462891 0.40798828 2.43359375 0.82421875 C3.23925781 1.08847656 4.04492188 1.35273438 4.875 1.625 C6.87109375 2.51171875 6.87109375 2.51171875 7.87109375 4.51171875 C6.88109375 4.51171875 5.89109375 4.51171875 4.87109375 4.51171875 C4.87109375 5.50171875 4.87109375 6.49171875 4.87109375 7.51171875 C-1.83103391 5.57554854 -1.83103391 5.57554854 -4.12890625 2.51171875 C-4.12890625 1.85171875 -4.12890625 1.19171875 -4.12890625 0.51171875 C-2.12890625 -0.48828125 -2.12890625 -0.48828125 0 0 Z " fill="#4D60A8" transform="translate(134.12890625,273.48828125)"/>
<path d="M0 0 C1.32 0 2.64 0 4 0 C4 0.66 4 1.32 4 2 C6.97 2.33 9.94 2.66 13 3 C13 3.66 13 4.32 13 5 C13.9075 5.103125 14.815 5.20625 15.75 5.3125 C19.01961575 6.00414949 20.53717737 6.82134921 23 9 C17.14016367 8.48334032 12.39106117 7.24718923 7 4.9375 C6.32066406 4.65583984 5.64132813 4.37417969 4.94140625 4.08398438 C3.29060213 3.39808689 1.64474531 2.70030171 0 2 C0 1.34 0 0.68 0 0 Z " fill="#505B92" transform="translate(119,378)"/>
<path d="M0 0 C3 0 3 0 4.359375 1.3203125 C5.04773437 2.21363281 5.04773437 2.21363281 5.75 3.125 C8.81213907 6.90266403 12.22554503 9.95140176 16 13 C15.34 13.66 14.68 14.32 14 15 C12.41224451 13.60919892 10.82999061 12.21211596 9.25 10.8125 C8.36828125 10.03519531 7.4865625 9.25789063 6.578125 8.45703125 C4.1160634 6.11061194 2.02000341 3.73266817 0 1 C0 0.67 0 0.34 0 0 Z " fill="#4D578D" transform="translate(54,331)"/>
<path d="M0 0 C0.66 0.66 1.32 1.32 2 2 C1.38125 2.2475 0.7625 2.495 0.125 2.75 C-2.37818306 4.22246063 -2.83045281 5.41028837 -4 8 C-4.99 8.495 -4.99 8.495 -6 9 C-7.01691264 10.99145391 -8.01642648 12.99187074 -9 15 C-9.66 15.66 -10.32 16.32 -11 17 C-11.99 16.67 -12.98 16.34 -14 16 C-12.42323368 13.89062368 -10.83902921 11.78760742 -9.25 9.6875 C-8.8065625 9.09259766 -8.363125 8.49769531 -7.90625 7.88476562 C-5.5252529 4.75095327 -3.34886555 2.16737326 0 0 Z " fill="#525E97" transform="translate(51,73)"/>
<path d="M0 0 C0.99 0.33 1.98 0.66 3 1 C0.25339075 6.91577376 -2.93467666 11.90479475 -7 17 C-7.33 16.34 -7.66 15.68 -8 15 C-6.75874818 12.38838269 -5.4689476 9.89498214 -4.0625 7.375 C-3.48338867 6.31539063 -3.48338867 6.31539063 -2.89257812 5.234375 C-1.93551304 3.48566349 -0.96865969 1.74231568 0 0 Z " fill="#4E5892" transform="translate(366,299)"/>
<path d="M0 0 C0.66 0 1.32 0 2 0 C1.51358785 6.84817102 0.64006048 13.33042073 -1 20 C-1.66 20 -2.32 20 -3 20 C-3.125 12.25 -3.125 12.25 -2 10 C-1.34 10 -0.68 10 0 10 C0 6.7 0 3.4 0 0 Z " fill="#545F9A" transform="translate(391,231)"/>
<path d="M0 0 C3.88185804 2.85530714 6.54737608 5.8132134 9.3125 9.75 C10.00988281 10.73484375 10.70726562 11.7196875 11.42578125 12.734375 C11.94527344 13.48203125 12.46476562 14.2296875 13 15 C12.34 15.66 11.68 16.32 11 17 C8 13.25 8 13.25 8 11 C7.34 11 6.68 11 6 11 C5.34 9.02 4.68 7.04 4 5 C3.01 5 2.02 5 1 5 C0.67 3.35 0.34 1.7 0 0 Z " fill="#4F5F96" transform="translate(346,69)"/>
<path d="M0 0 C4.12429072 1.45563202 7.40447903 3.52807933 11 6 C11.86625 6.495 12.7325 6.99 13.625 7.5 C16.12368817 9.07811885 17.99172195 10.84296061 20 13 C15.35313791 11.65741859 11.7540782 9.76374371 7.75 7.0625 C6.71359375 6.37285156 5.6771875 5.68320312 4.609375 4.97265625 C2 3 2 3 0 0 Z " fill="#4C568D" transform="translate(84,358)"/>
<path d="M0 0 C0.66 0.33 1.32 0.66 2 1 C1.67 1.99 1.34 2.98 1 4 C0.34 4 -0.32 4 -1 4 C-1 4.66 -1 5.32 -1 6 C-1.99 6.66 -2.98 7.32 -4 8 C-4.33 8.845625 -4.66 9.69125 -5 10.5625 C-5.33 11.366875 -5.66 12.17125 -6 13 C-6.99 13.33 -7.98 13.66 -9 14 C-8.47929737 9.86330684 -7.3269206 7.78546392 -4.5 4.75 C-3.8709375 4.06421875 -3.241875 3.3784375 -2.59375 2.671875 C-1.73729192 1.77343369 -0.87770076 0.87770076 0 0 Z " fill="#3C4C82" transform="translate(234,186)"/>
<path d="M0 0 C6.41421206 1.69787966 9.64916881 6.77766481 12.9375 12.1875 C14.03331302 15.08818153 14.18906301 16.18948744 13 19 C12.67 17.35 12.34 15.7 12 14 C10.68 13.67 9.36 13.34 8 13 C8.66 13 9.32 13 10 13 C8.00344219 8.06732775 5.50591343 5.41770811 1.42578125 2.19921875 C0.95527344 1.80347656 0.48476563 1.40773437 0 1 C0 0.67 0 0.34 0 0 Z " fill="#404E85" transform="translate(259,185)"/>
<path d="M0 0 C-2.56464655 2.83943011 -4.18967428 4.42267792 -8 5 C-8.86625 5.226875 -9.7325 5.45375 -10.625 5.6875 C-11.800625 5.8421875 -11.800625 5.8421875 -13 6 C-13.66 5.34 -14.32 4.68 -15 4 C-13.06767179 3.13419713 -11.12892806 2.28270059 -9.1875 1.4375 C-8.10855469 0.96183594 -7.02960938 0.48617188 -5.91796875 -0.00390625 C-3 -1 -3 -1 0 0 Z " fill="#576799" transform="translate(134,16)"/>
<path d="M0 0 C4.75349085 1.38192554 6.55069283 3.59931497 9.3125 7.625 C10.00988281 8.62789063 10.70726562 9.63078125 11.42578125 10.6640625 C11.94527344 11.43492187 12.46476562 12.20578125 13 13 C12.67 13.66 12.34 14.32 12 15 C10.36932995 13.25500253 8.74548753 11.50441212 7.125 9.75 C6.66480469 9.25886719 6.20460938 8.76773437 5.73046875 8.26171875 C3.33815688 5.66137976 1.35854595 3.27924885 0 0 Z " fill="#50568F" transform="translate(41,316)"/>
<path d="M0 0 C3.45615727 1.21432553 5.48806925 2.38340546 8 5 C8.845625 5.474375 9.69125 5.94875 10.5625 6.4375 C13.15777979 8.10114089 13.92565703 9.16764125 15 12 C10.70697803 10.58446303 7.99477764 8.48999477 4.6875 5.4375 C3.80449219 4.63183594 2.92148438 3.82617188 2.01171875 2.99609375 C1.34785156 2.33738281 0.68398437 1.67867188 0 1 C0 0.67 0 0.34 0 0 Z " fill="#4C588F" transform="translate(69,346)"/>
<path d="M0 0 C0.33 0.66 0.66 1.32 1 2 C3.01669827 3.13350534 3.01669827 3.13350534 5 4 C3.68 5.32 2.36 6.64 1 8 C-0.98 7.34 -2.96 6.68 -5 6 C-4.34 5.01 -3.68 4.02 -3 3 C-2.34 3.33 -1.68 3.66 -1 4 C-0.67 2.68 -0.34 1.36 0 0 Z " fill="#4E5FA9" transform="translate(145,276)"/>
<path d="M0 0 C0.66 0 1.32 0 2 0 C0.1668733 5.99932374 -2.07321751 11.44920563 -5 17 C-5.66 15.68 -6.32 14.36 -7 13 C-6.34 13 -5.68 13 -5 13 C-4.87625 12.21625 -4.7525 11.4325 -4.625 10.625 C-4 8 -4 8 -2 6 C-2 4.68 -2 3.36 -2 2 C-1.34 2 -0.68 2 0 2 C0 1.34 0 0.68 0 0 Z " fill="#5B6798" transform="translate(379,276)"/>
<path d="M0 0 C1.65 0 3.3 0 5 0 C4.39363767 5.76044212 2.24341721 10.72014369 0 16 C-1.15957207 12.52128379 -0.77456651 11.65780355 0.4375 8.3125 C0.72496094 7.50425781 1.01242188 6.69601563 1.30859375 5.86328125 C1.53675781 5.24839844 1.76492187 4.63351563 2 4 C1.34 4 0.68 4 0 4 C0 2.68 0 1.36 0 0 Z " fill="#44528E" transform="translate(66,159)"/>
<path d="M0 0 C0.66 0 1.32 0 2 0 C2.33 0.99 2.66 1.98 3 3 C3.66 3.33 4.32 3.66 5 4 C5.144375 4.66 5.28875 5.32 5.4375 6 C5.623125 6.66 5.80875 7.32 6 8 C6.99 8.33 7.98 8.66 9 9 C9 11.31 9 13.62 9 16 C5.49702126 11.97806144 0 5.60566856 0 0 Z " fill="#45528E" transform="translate(309,119)"/>
<path d="M0 0 C0 3 0 3 -2 5.1875 C-2.66 5.785625 -3.32 6.38375 -4 7 C-4.99 6.67 -5.98 6.34 -7 6 C-9.00875442 6.27571139 -11.01178687 6.60235737 -13 7 C-4.25 0 -4.25 0 0 0 Z " fill="#626EAB" transform="translate(114,23)"/>
<path d="M0 0 C-1.39153744 4.42761914 -3.52071486 6.9556255 -7 10 C-7.66 10 -8.32 10 -9 10 C-8.1875 8.0625 -8.1875 8.0625 -7 6 C-6.01 5.67 -5.02 5.34 -4 5 C-4.66 3.68 -5.32 2.36 -6 1 C-4 0 -4 0 0 0 Z " fill="#4D5893" transform="translate(352,323)"/>
<path d="M0 0 C9.59453303 5.0022779 9.59453303 5.0022779 13 9 C9.1936543 8.32829194 5.64793184 7.27253436 2 6 C2 4.68 2 3.36 2 2 C1.01 1.67 0.02 1.34 -1 1 C-0.67 0.67 -0.34 0.34 0 0 Z " fill="#566297" transform="translate(301,31)"/>
<path d="M0 0 C0.66 0.33 1.32 0.66 2 1 C1.195625 1.45375 0.39125 1.9075 -0.4375 2.375 C-3.08856572 3.74725665 -3.08856572 3.74725665 -4 6 C-3.34 6.33 -2.68 6.66 -2 7 C-2.99 7.33 -3.98 7.66 -5 8 C-5.66 7.34 -6.32 6.68 -7 6 C-8.98 6.66 -10.96 7.32 -13 8 C-10.61664713 5.32561064 -8.12963852 3.84841988 -4.9375 2.25 C-4.05964844 1.80140625 -3.18179687 1.3528125 -2.27734375 0.890625 C-1.52582031 0.59671875 -0.77429688 0.3028125 0 0 Z " fill="#3D4D89" transform="translate(313,293)"/>
<path d="M0 0 C0.66 0.33 1.32 0.66 2 1 C-3.97332123 4.4753869 -8.11509775 5.57374185 -15 5 C-13.68 4.67 -12.36 4.34 -11 4 C-11 3.34 -11 2.68 -11 2 C-10.2575 2.020625 -9.515 2.04125 -8.75 2.0625 C-5.43872658 1.98724379 -2.95503937 1.47751968 0 0 Z " fill="#3A4A85" transform="translate(260,235)"/>
<path d="M0 0 C0 0.99 0 1.98 0 3 C-1.28926992 3.36279456 -2.58153272 3.71496698 -3.875 4.0625 C-4.95394531 4.35833984 -4.95394531 4.35833984 -6.0546875 4.66015625 C-8 5 -8 5 -10 4 C-9.67 3.01 -9.34 2.02 -9 1 C-5.94152152 0.45627049 -3.11227195 0 0 0 Z " fill="#56609D" transform="translate(163,7)"/>
<path d="M0 0 C1 1.33333333 2 2.66666667 3 4 C3.5775 4.66 4.155 5.32 4.75 6 C6 8 6 8 5.8125 10.1875 C5 12 5 12 3 13 C2.49242138 11.58603098 1.99425075 10.16868271 1.5 8.75 C1.08234375 7.56664062 1.08234375 7.56664062 0.65625 6.359375 C0 4 0 4 0 0 Z " fill="#515B97" transform="translate(14,261)"/>
<path d="M0 0 C0.78375 0.495 1.5675 0.99 2.375 1.5 C4.78552327 3.16537965 4.78552327 3.16537965 7 3 C6.67 5.31 6.34 7.62 6 10 C2.46413986 6.82679218 0.41421969 4.83256305 0 0 Z " fill="#41528F" transform="translate(225,222)"/>
<path d="M0 0 C0.99 0 1.98 0 3 0 C3.50615298 1.26839526 4.00469099 2.53983102 4.5 3.8125 C4.91765625 4.87404297 4.91765625 4.87404297 5.34375 5.95703125 C6 8 6 8 6 11 C5.34 11 4.68 11 4 11 C3.32880451 9.5437455 2.66318193 8.08492133 2 6.625 C1.62875 5.81289063 1.2575 5.00078125 0.875 4.1640625 C0 2 0 2 0 0 Z " fill="#545D9A" transform="translate(18,274)"/>
<path d="M0 0 C1.62463842 -0.05395478 3.24978541 -0.09277195 4.875 -0.125 C5.77992188 -0.14820313 6.68484375 -0.17140625 7.6171875 -0.1953125 C10 0 10 0 12 2 C8.27569643 2.69289369 4.78916254 3.11144596 1 3 C0.67 2.01 0.34 1.02 0 0 Z " fill="#505D98" transform="translate(218,5)"/>
<path d="M0 0 C0.66 0.33 1.32 0.66 2 1 C1.01 3.64 0.02 6.28 -1 9 C-2.32 9 -3.64 9 -5 9 C-3.7508258 5.54074837 -2.32472205 2.85306797 0 0 Z " fill="#48558C" transform="translate(134,189)"/>
<path d="M0 0 C0.66 0.66 1.32 1.32 2 2 C1.67 2.66 1.34 3.32 1 4 C3.475 4.99 3.475 4.99 6 6 C6 6.66 6 7.32 6 8 C2.54074837 6.7508258 -0.14693203 5.32472205 -3 3 C-2.01 2.01 -1.02 1.02 0 0 Z " fill="#596498" transform="translate(106,368)"/>
<path d="M0 0 C0.33 0.66 0.66 1.32 1 2 C1.66 2.33 2.32 2.66 3 3 C1.68 3.33 0.36 3.66 -1 4 C-1.33 5.32 -1.66 6.64 -2 8 C-3.65 8.33 -5.3 8.66 -7 9 C-6.57847656 8.51789063 -6.15695313 8.03578125 -5.72265625 7.5390625 C-5.17480469 6.90742187 -4.62695312 6.27578125 -4.0625 5.625 C-3.51722656 4.99851562 -2.97195312 4.37203125 -2.41015625 3.7265625 C-0.93041376 2.04367666 -0.93041376 2.04367666 0 0 Z " fill="#606BA0" transform="translate(56,65)"/>
<path d="M0 0 C0 0.66 0 1.32 0 2 C-1.04800781 2.30744141 -1.04800781 2.30744141 -2.1171875 2.62109375 C-3.02726563 2.89050781 -3.93734375 3.15992188 -4.875 3.4375 C-5.77992188 3.70433594 -6.68484375 3.97117187 -7.6171875 4.24609375 C-9.98275381 4.92613826 -9.98275381 4.92613826 -12 6 C-12.99 5.34 -13.98 4.68 -15 4 C-12.87607494 3.3299166 -10.75082476 2.66403203 -8.625 2 C-7.44164062 1.62875 -6.25828125 1.2575 -5.0390625 0.875 C-2 0 -2 0 0 0 Z " fill="#5F6999" transform="translate(149,10)"/>
<path d="M0 0 C7.75 0.75 7.75 0.75 10 3 C6.69903842 3.8252404 4.1967 4.37001429 1 3 C0.67 2.01 0.34 1.02 0 0 Z " fill="#45599B" transform="translate(77,291)"/>
<path d="M0 0 C0.99 0.33 1.98 0.66 3 1 C2.67 4.63 2.34 8.26 2 12 C1.67 12 1.34 12 1 12 C0.67 8.04 0.34 4.08 0 0 Z " fill="#6068A6" transform="translate(393,180)"/>
<path d="M0 0 C0.66 0.33 1.32 0.66 2 1 C1.01 2.32 0.02 3.64 -1 5 C-3.64 4.34 -6.28 3.68 -9 3 C-5.91190305 1.23537317 -4.76687864 1 -1 1 C-0.67 0.67 -0.34 0.34 0 0 Z " fill="#E3EEFA" transform="translate(131,306)"/>
<path d="M0 0 C0.66 0.33 1.32 0.66 2 1 C-1.08290155 5.22797927 -1.08290155 5.22797927 -3 7 C-5.8125 7.375 -5.8125 7.375 -8 7 C-5.42215154 4.35247996 -3.08351902 2.05567935 0 0 Z " fill="#425288" transform="translate(340,276)"/>
<path d="M0 0 C0.66 0 1.32 0 2 0 C2 1.32 2 2.64 2 4 C0 5.75 0 5.75 -2 7 C-2.99 6.34 -3.98 5.68 -5 5 C-4.360625 4.731875 -3.72125 4.46375 -3.0625 4.1875 C-0.66868314 3.11332248 -0.66868314 3.11332248 0 0 Z " fill="#E5F1F8" transform="translate(171,230)"/>
<path d="M0 0 C3.00825564 1.50412782 3.30662971 3.86048301 4.40234375 6.921875 C5.10104707 9.35135321 5.23571669 11.48568864 5 14 C3.23662322 11.35493484 2.3439149 9.40786033 1.375 6.4375 C0.98441406 5.25994141 0.98441406 5.25994141 0.5859375 4.05859375 C0 2 0 2 0 0 Z " fill="#4D5D8F" transform="translate(382,128)"/>
<path d="M0 0 C3.81684226 1.55500981 6.19195732 4.03595495 9 7 C8.4225 6.67 7.845 6.34 7.25 6 C4.80116138 4.72924102 4.80116138 4.72924102 1 5 C0.34 4.34 -0.32 3.68 -1 3 C-0.67 2.01 -0.34 1.02 0 0 Z " fill="#505F94" transform="translate(315,41)"/>
<path d="M0 0 C0.33 1.32 0.66 2.64 1 4 C-2.80504787 5.79682816 -3.70600835 6.07349791 -8 5 C-4.04 2.525 -4.04 2.525 0 0 Z " fill="#626B9E" transform="translate(95,33)"/>
<path d="M0 0 C-1.69179328 2.04219706 -2.63727666 2.91793306 -5.26171875 3.51171875 C-6.06222656 3.56972656 -6.86273438 3.62773437 -7.6875 3.6875 C-8.49574219 3.75324219 -9.30398438 3.81898438 -10.13671875 3.88671875 C-11.05904297 3.94279297 -11.05904297 3.94279297 -12 4 C-9.94577945 1.94577945 -8.66990976 1.31862408 -6 0.3125 C-5.29875 0.04050781 -4.5975 -0.23148437 -3.875 -0.51171875 C-2 -1 -2 -1 0 0 Z " fill="#414D89" transform="translate(291,305)"/>
<path d="M0 0 C0.66 0.33 1.32 0.66 2 1 C2 1.66 2 2.32 2 3 C-2.43076923 5.09230769 -2.43076923 5.09230769 -5.3125 4.625 C-5.869375 4.41875 -6.42625 4.2125 -7 4 C-4.61426621 2.10786631 -2.92824652 0.97608217 0 0 Z " fill="#E8EFF6" transform="translate(266,280)"/>
<path d="M0 0 C2.31 1.65 4.62 3.3 7 5 C5.02 5.99 5.02 5.99 3 7 C0 2.25 0 2.25 0 0 Z " fill="#5B689C" transform="translate(332,55)"/>
<path d="M0 0 C0.66 0.66 1.32 1.32 2 2 C3.31747324 2.69748583 4.64914193 3.36959957 6 4 C2.18510326 5.46726798 -0.29011622 4.43336419 -4 3 C-2.68 2.01 -1.36 1.02 0 0 Z " fill="#60659E" transform="translate(144,385)"/>
<path d="M0 0 C0.66 0.33 1.32 0.66 2 1 C0.68 3.64 -0.64 6.28 -2 9 C-2.66 8.67 -3.32 8.34 -4 8 C-2.25 2.25 -2.25 2.25 0 0 Z " fill="#E2ECF4" transform="translate(241,89)"/>
<path d="M0 0 C2.88437779 1.29299694 4.87219421 2.65941363 7 5 C6.67 5.99 6.34 6.98 6 8 C6 7.34 6 6.68 6 6 C5.34 6 4.68 6 4 6 C4 5.34 4 4.68 4 4 C1.525 3.01 1.525 3.01 -1 2 C-0.67 1.34 -0.34 0.68 0 0 Z " fill="#515D93" transform="translate(325,49)"/>
<path d="M0 0 C0.99 0 1.98 0 3 0 C4.6875 2 4.6875 2 6 4 C5.34 4.66 4.68 5.32 4 6 C3.01 5.67 2.02 5.34 1 5 C0.67 3.35 0.34 1.7 0 0 Z " fill="#5364A6" transform="translate(321,346)"/>
<path d="M0 0 C3.75376152 1.25125384 4.24073289 2.5652404 6 6 C6 6.66 6 7.32 6 8 C2.24623848 6.74874616 1.75926711 5.4347596 0 2 C0 1.34 0 0.68 0 0 Z " fill="#EAF1FB" transform="translate(258,291)"/>
<path d="M0 0 C1.32 0.99 2.64 1.98 4 3 C3.67 3.99 3.34 4.98 3 6 C0.5 4.625 0.5 4.625 -2 3 C-2 2.34 -2 1.68 -2 1 C-1.34 0.67 -0.68 0.34 0 0 Z " fill="#E8F1F8" transform="translate(84,288)"/>
<path d="M0 0 C1.258125 0.12375 2.51625 0.2475 3.8125 0.375 C4.87404297 0.47941406 4.87404297 0.47941406 5.95703125 0.5859375 C8 1 8 1 11 3 C9.02 3.33 7.04 3.66 5 4 C5 3.34 5 2.68 5 2 C3.35 1.67 1.7 1.34 0 1 C0 0.67 0 0.34 0 0 Z " fill="#3C4E88" transform="translate(156,280)"/>
<path d="M0 0 C4.455 0.99 4.455 0.99 9 2 C6.08235 3.9451 4.37462715 4.45276317 1 5 C1.33 4.01 1.66 3.02 2 2 C1.34 1.34 0.68 0.68 0 0 Z " fill="#414E91" transform="translate(146,277)"/>
<path d="M0 0 C0.66 0 1.32 0 2 0 C3.35439668 2.70879335 3.06501451 5.00933268 3 8 C2.01 8.495 2.01 8.495 1 9 C0.67 6.03 0.34 3.06 0 0 Z " fill="#5F679D" transform="translate(6,230)"/>
<path d="M0 0 C1.98 0.99 1.98 0.99 4 2 C3.67 4.64 3.34 7.28 3 10 C0.70366176 6.55549263 0.45983515 4.06187717 0 0 Z " fill="#3C4B88" transform="translate(336,179)"/>
<path d="M0 0 C0.33 0 0.66 0 1 0 C1.125 6.75 1.125 6.75 0 9 C-0.66 9 -1.32 9 -2 9 C-1.125 1.125 -1.125 1.125 0 0 Z " fill="#616C9D" transform="translate(10,150)"/>
<path d="M0 0 C0.99 0 1.98 0 3 0 C3.33 0.66 3.66 1.32 4 2 C3.06553465 4.03144641 2.06775224 6.03533587 1 8 C-0.42944945 5.64561267 -1.08661261 4.51967567 -0.625 1.75 C-0.41875 1.1725 -0.2125 0.595 0 0 Z " fill="#40518A" transform="translate(77,137)"/>
<path d="M0 0 C-0.598125 0.2475 -1.19625 0.495 -1.8125 0.75 C-4.28647521 2.16370012 -5.43370255 3.65055383 -7 6 C-7.33 4.35 -7.66 2.7 -8 1 C-4.93251126 -0.86240388 -3.40254489 -1.2151946 0 0 Z " fill="#3E4D87" transform="translate(244,89)"/>
<path d="M0 0 C0.66 0 1.32 0 2 0 C1.42655063 2.86724686 1.1385485 3.8614515 -1 6 C-1.99 5.67 -2.98 5.34 -4 5 C-2.71937515 3.2925002 -1.38232443 1.62626404 0 0 Z " fill="#5663A0" transform="translate(41,84)"/>
<path d="M0 0 C0.66 0.66 1.32 1.32 2 2 C-0.8125 3.5625 -0.8125 3.5625 -4 5 C-4.99 4.67 -5.98 4.34 -7 4 C-4.61426621 2.10786631 -2.92824652 0.97608217 0 0 Z " fill="#E6F0F8" transform="translate(309,293)"/>
<path d="M0 0 C0.99 0.66 1.98 1.32 3 2 C2.1875 3.9375 2.1875 3.9375 1 6 C0.01 6.33 -0.98 6.66 -2 7 C-1.125 2.25 -1.125 2.25 0 0 Z " fill="#49568E" transform="translate(227,193)"/>
<path d="M0 0 C0.33 0.66 0.66 1.32 1 2 C0.06421005 4.35981813 -0.93347808 6.69631264 -2 9 C-2.66 7.68 -3.32 6.36 -4 5 C-3.34 5 -2.68 5 -2 5 C-1.7834375 4.0409375 -1.7834375 4.0409375 -1.5625 3.0625 C-1 1 -1 1 0 0 Z " fill="#455798" transform="translate(334,157)"/>
<path d="M0 0 C0.66 0.33 1.32 0.66 2 1 C-0.0140476 4.0210714 -1.63279613 5.60667426 -5 7 C-4.60196439 4.11424181 -4.20990931 3.17810487 -1.9375 1.25 C-1.298125 0.8375 -0.65875 0.425 0 0 Z " fill="#ECF4F8" transform="translate(86,132)"/>
<path d="M0 0 C0.66 0 1.32 0 2 0 C1.40138258 2.35171131 0.73075648 4.6859378 0 7 C-0.99 7.495 -0.99 7.495 -2 8 C-1.125 2.25 -1.125 2.25 0 0 Z " fill="#4F5C92" transform="translate(20,120)"/>
<path d="M0 0 C3.3 0.99 6.6 1.98 10 3 C9.67 3.66 9.34 4.32 9 5 C2.25 3.125 2.25 3.125 0 2 C0 1.34 0 0.68 0 0 Z " fill="#E4EEF8" transform="translate(279,99)"/>
<path d="M0 0 C-0.33 0.66 -0.66 1.32 -1 2 C-2.875 2.5625 -2.875 2.5625 -5 3 C-5.99 3.33 -6.98 3.66 -8 4 C-8 3.01 -8 2.02 -8 1 C-2.25 -1.125 -2.25 -1.125 0 0 Z " fill="#EAF3FB" transform="translate(127,98)"/>
<path d="M0 0 C-1 3 -1 3 -2.8125 4.25 C-5.33943414 5.11637742 -6.52221994 4.88492145 -9 4 C-2.25 0 -2.25 0 0 0 Z " fill="#616B9C" transform="translate(110,25)"/>
</svg>
