<?xml version="1.0" encoding="UTF-8"?>
<svg version="1.1" xmlns="http://www.w3.org/2000/svg" width="400" height="400">
<path d="M0 0 C0.9089502 -0.00570007 1.81790039 -0.01140015 2.75439453 -0.01727295 C4.67397921 -0.02668348 6.59357975 -0.03324116 8.51318359 -0.03710938 C11.40101615 -0.04675316 14.28811714 -0.07778886 17.17578125 -0.109375 C28.04304651 -0.17111883 37.87618524 0.60599707 48.4375 3.203125 C49.86485672 3.48473862 51.29418153 3.75688902 52.7265625 4.01171875 C60.84177099 5.54163511 68.58740397 7.65861112 76.4375 10.203125 C78.76543556 10.8918861 81.09912987 11.55055659 83.4375 12.203125 C83.4375 12.863125 83.4375 13.523125 83.4375 14.203125 C84.5925 14.368125 85.7475 14.533125 86.9375 14.703125 C99.35063862 17.50045201 110.737658 25.40449649 121.3046875 32.19921875 C124.19706615 34.12675088 124.19706615 34.12675088 126.4375 35.203125 C126.4375 35.863125 126.4375 36.523125 126.4375 37.203125 C127.241875 37.47125 128.04625 37.739375 128.875 38.015625 C129.720625 38.4075 130.56625 38.799375 131.4375 39.203125 C131.7675 40.193125 132.0975 41.183125 132.4375 42.203125 C133.0975 42.203125 133.7575 42.203125 134.4375 42.203125 C134.4375 42.863125 134.4375 43.523125 134.4375 44.203125 C135.25734375 44.30173828 135.25734375 44.30173828 136.09375 44.40234375 C139.44858404 45.54857871 141.36021618 47.59422528 143.9375 50.015625 C144.4521582 50.49902344 144.96681641 50.98242188 145.49707031 51.48046875 C147.15314154 53.04526046 148.79597716 54.62308777 150.4375 56.203125 C151.00791016 56.74630371 151.57832031 57.28948242 152.16601562 57.84912109 C153.84984296 59.4571476 155.5208392 61.07732848 157.1875 62.703125 C157.71279297 63.20690674 158.23808594 63.71068848 158.77929688 64.22973633 C160.0579859 65.49705446 161.2555479 66.84513748 162.4375 68.203125 C162.4375 69.193125 162.4375 70.183125 162.4375 71.203125 C163.7575 71.863125 165.0775 72.523125 166.4375 73.203125 C166.4375 74.193125 166.4375 75.183125 166.4375 76.203125 C167.0975 76.203125 167.7575 76.203125 168.4375 76.203125 C168.4375 76.863125 168.4375 77.523125 168.4375 78.203125 C169.4275 78.533125 170.4175 78.863125 171.4375 79.203125 C172.625 81.765625 172.625 81.765625 173.4375 84.203125 C174.0975 84.203125 174.7575 84.203125 175.4375 84.203125 C175.89189453 85.0384375 175.89189453 85.0384375 176.35546875 85.890625 C178.92194455 90.56555938 181.59211867 95.11554421 184.51953125 99.57421875 C185.4375 101.203125 185.4375 101.203125 185.4375 103.203125 C186.0975 103.203125 186.7575 103.203125 187.4375 103.203125 C190.66451976 110.0553925 193.57091268 116.96888504 196.2265625 124.0625 C197.07619863 126.26607242 197.98112 128.44874248 198.92578125 130.61328125 C204.37807278 143.56071257 207.90774274 157.09584293 207.4375 171.203125 C208.0975 171.203125 208.7575 171.203125 209.4375 171.203125 C210.5421741 176.56286051 210.5988286 181.7573609 210.60546875 187.203125 C210.60879715 188.15703125 210.61212555 189.1109375 210.61555481 190.09375 C210.62060181 192.10416178 210.62296383 194.11458189 210.62280273 196.125 C210.62499266 199.19284874 210.64318153 202.26033962 210.66210938 205.328125 C210.66504311 207.28645711 210.66702804 209.24479092 210.66796875 211.203125 C210.67515427 212.11578125 210.68233978 213.0284375 210.68974304 213.96875 C210.67238456 218.82707963 210.20878529 222.61671623 208.4375 227.203125 C208.16270645 228.72233851 207.93455603 230.25099574 207.76171875 231.78515625 C207.65851318 232.6268335 207.55530762 233.46851074 207.44897461 234.33569336 C207.34206299 235.2200708 207.23515137 236.10444824 207.125 237.015625 C205.84625464 246.78113385 203.53443871 255.87142519 200.4375 265.203125 C200.05722656 266.34910156 199.67695313 267.49507813 199.28515625 268.67578125 C199.00542969 269.50980469 198.72570312 270.34382813 198.4375 271.203125 C197.7775 271.203125 197.1175 271.203125 196.4375 271.203125 C196.334375 272.028125 196.23125 272.853125 196.125 273.703125 C194.49427626 282.0049913 190.57905437 288.91745867 186.4375 296.203125 C185.82261719 297.2859375 185.82261719 297.2859375 185.1953125 298.390625 C184.27872472 299.99632622 183.3584794 301.59993864 182.4375 303.203125 C182.1075 303.863125 181.7775 304.523125 181.4375 305.203125 C180.7775 305.203125 180.1175 305.203125 179.4375 305.203125 C179.14875 306.13125 178.86 307.059375 178.5625 308.015625 C177.4375 311.203125 177.4375 311.203125 175.4375 314.203125 C174.7775 314.203125 174.1175 314.203125 173.4375 314.203125 C173.19 315.110625 172.9425 316.018125 172.6875 316.953125 C171.36901753 320.38117943 170.11167788 321.7720542 167.4375 324.203125 C166.90125 324.945625 166.365 325.688125 165.8125 326.453125 C165.131875 327.319375 165.131875 327.319375 164.4375 328.203125 C163.7775 328.203125 163.1175 328.203125 162.4375 328.203125 C162.0353125 329.069375 162.0353125 329.069375 161.625 329.953125 C160.40820811 332.25862543 159.13416121 334.22368692 157.4375 336.203125 C156.7775 336.203125 156.1175 336.203125 155.4375 336.203125 C155.4375 336.863125 155.4375 337.523125 155.4375 338.203125 C154.7775 338.203125 154.1175 338.203125 153.4375 338.203125 C153.1075 339.193125 152.7775 340.183125 152.4375 341.203125 C151.7775 341.203125 151.1175 341.203125 150.4375 341.203125 C150.4375 341.863125 150.4375 342.523125 150.4375 343.203125 C149.7775 343.203125 149.1175 343.203125 148.4375 343.203125 C148.4375 343.863125 148.4375 344.523125 148.4375 345.203125 C142.96130952 350.203125 142.96130952 350.203125 140.4375 350.203125 C140.4375 350.863125 140.4375 351.523125 140.4375 352.203125 C139.7775 352.203125 139.1175 352.203125 138.4375 352.203125 C138.4375 352.863125 138.4375 353.523125 138.4375 354.203125 C136.78678604 355.22924449 135.11779994 356.22620643 133.4375 357.203125 C132.99019531 357.66332031 132.54289062 358.12351562 132.08203125 358.59765625 C130.04532231 360.58598731 127.85427336 361.94966715 125.4375 363.453125 C121.09700557 366.16174997 121.09700557 366.16174997 116.796875 368.93359375 C107.22904951 375.19278497 96.99835891 381.83248327 85.78125 384.53515625 C83.18242326 385.27582187 80.78280479 386.33200992 78.31152344 387.41625977 C65.65689949 392.72968512 52.16835504 395.66857771 38.4375 395.203125 C38.4375 395.863125 38.4375 396.523125 38.4375 397.203125 C33.14607491 398.28747775 28.03141332 398.36437875 22.65625 398.37109375 C21.72453979 398.37442215 20.79282959 398.37775055 19.83288574 398.38117981 C17.86955252 398.38622607 15.90621079 398.38858885 13.94287109 398.38842773 C10.94744735 398.39061773 7.95239011 398.40880752 4.95703125 398.42773438 C3.04427209 398.43066812 1.13151118 398.43265304 -0.78125 398.43359375 C-1.67203247 398.44077927 -2.56281494 398.44796478 -3.48059082 398.45536804 C-8.28599991 398.43778994 -12.02320809 397.94582233 -16.5625 396.203125 C-18.09344842 395.92807486 -19.63384111 395.70001276 -21.1796875 395.52734375 C-22.026521 395.42413818 -22.87335449 395.32093262 -23.74584961 395.21459961 C-24.63409424 395.10768799 -25.52233887 395.00077637 -26.4375 394.890625 C-35.93447881 393.65051815 -44.53939128 391.39332563 -53.5625 388.203125 C-55.5615905 387.53373601 -57.56128124 386.86612419 -59.5625 386.203125 C-59.5625 385.543125 -59.5625 384.883125 -59.5625 384.203125 C-60.3875 384.1 -61.2125 383.996875 -62.0625 383.890625 C-68.43533593 382.63881794 -74.06858186 380.07012476 -79.80078125 377.0703125 C-81.72489316 376.07385308 -81.72489316 376.07385308 -84.5625 375.203125 C-84.5625 374.543125 -84.5625 373.883125 -84.5625 373.203125 C-85.5215625 372.8628125 -85.5215625 372.8628125 -86.5 372.515625 C-90.69980276 370.71570953 -94.59900784 368.46797766 -98.5625 366.203125 C-99.573125 365.64625 -100.58375 365.089375 -101.625 364.515625 C-102.264375 364.0825 -102.90375 363.649375 -103.5625 363.203125 C-103.5625 362.543125 -103.5625 361.883125 -103.5625 361.203125 C-104.7690625 360.8009375 -104.7690625 360.8009375 -106 360.390625 C-106.845625 359.99875 -107.69125 359.606875 -108.5625 359.203125 C-109.0575 357.718125 -109.0575 357.718125 -109.5625 356.203125 C-110.2225 356.203125 -110.8825 356.203125 -111.5625 356.203125 C-111.5625 355.543125 -111.5625 354.883125 -111.5625 354.203125 C-112.1090625 354.13738281 -112.655625 354.07164062 -113.21875 354.00390625 C-116.57358404 352.85767129 -118.48521618 350.81202472 -121.0625 348.390625 C-121.83883789 347.66335205 -121.83883789 347.66335205 -122.63085938 346.92138672 C-126.49414029 343.27829884 -130.29285514 339.56784273 -134.0625 335.828125 C-134.55427734 335.34110107 -135.04605469 334.85407715 -135.55273438 334.35229492 C-143.5625 326.30524246 -143.5625 326.30524246 -143.5625 322.203125 C-144.2225 322.203125 -144.8825 322.203125 -145.5625 322.203125 C-145.5625 321.543125 -145.5625 320.883125 -145.5625 320.203125 C-146.5525 319.873125 -147.5425 319.543125 -148.5625 319.203125 C-149.75 316.640625 -149.75 316.640625 -150.5625 314.203125 C-151.2225 314.203125 -151.8825 314.203125 -152.5625 314.203125 C-153.01689453 313.3678125 -153.01689453 313.3678125 -153.48046875 312.515625 C-156.04694455 307.84069062 -158.71711867 303.29070579 -161.64453125 298.83203125 C-162.5625 297.203125 -162.5625 297.203125 -162.5625 295.203125 C-163.2225 295.203125 -163.8825 295.203125 -164.5625 295.203125 C-173.5625 275.80148566 -173.5625 275.80148566 -173.5625 271.203125 C-174.2225 271.203125 -174.8825 271.203125 -175.5625 271.203125 C-175.84222656 270.19765625 -176.12195313 269.1921875 -176.41015625 268.15625 C-177.12851008 265.63664131 -177.90907307 263.17370005 -178.74609375 260.6875 C-181.972732 251.07794806 -183.85476059 241.65033106 -185.1394043 231.6015625 C-185.56162003 228.97319422 -185.56162003 228.97319422 -186.59033203 225.56469727 C-187.82309613 220.71343256 -187.83278205 216.02521164 -187.79296875 211.04296875 C-187.79251053 210.09426407 -187.79205231 209.14555939 -187.7915802 208.16810608 C-187.78857505 206.17382548 -187.78074128 204.17954686 -187.76831055 202.18530273 C-187.75003375 199.14623629 -187.74780137 196.10747513 -187.74804688 193.06835938 C-187.74313128 191.12239322 -187.73730278 189.17642911 -187.73046875 187.23046875 C-187.72935593 186.32924789 -187.7282431 185.42802704 -187.72709656 184.49949646 C-187.62832214 171.26894714 -187.62832214 171.26894714 -185.5625 169.203125 C-185.31411601 167.84847262 -185.11943961 166.48386323 -184.94921875 165.1171875 C-184.83771484 164.27406006 -184.72621094 163.43093262 -184.61132812 162.56225586 C-184.49208984 161.65999268 -184.37285156 160.75772949 -184.25 159.828125 C-183.30543709 153.09336775 -182.13505466 146.95036119 -179.52734375 140.6328125 C-178.49735121 138.03906611 -177.80337693 135.47146746 -177.125 132.765625 C-174.22099417 121.81736772 -169.05988517 112.04582374 -163.5625 102.203125 C-163.04816406 101.27242188 -162.53382813 100.34171875 -162.00390625 99.3828125 C-160.86239968 97.31969298 -159.71568701 95.2597304 -158.5625 93.203125 C-157.9025 93.203125 -157.2425 93.203125 -156.5625 93.203125 C-156.376875 92.419375 -156.19125 91.635625 -156 90.828125 C-153.49988885 84.52349687 -149.42296717 78.92551071 -144.5625 74.203125 C-143.7890625 73.1203125 -143.7890625 73.1203125 -143 72.015625 C-142.525625 71.4175 -142.05125 70.819375 -141.5625 70.203125 C-140.9025 70.203125 -140.2425 70.203125 -139.5625 70.203125 C-139.335625 69.48125 -139.10875 68.759375 -138.875 68.015625 C-137.29914872 64.63880083 -135.35373384 62.64545461 -132.5625 60.203125 C-131.9025 60.203125 -131.2425 60.203125 -130.5625 60.203125 C-130.2325 59.213125 -129.9025 58.223125 -129.5625 57.203125 C-128.9025 57.203125 -128.2425 57.203125 -127.5625 57.203125 C-127.5625 56.543125 -127.5625 55.883125 -127.5625 55.203125 C-126.9025 55.203125 -126.2425 55.203125 -125.5625 55.203125 C-125.5625 54.543125 -125.5625 53.883125 -125.5625 53.203125 C-120.08630952 48.203125 -120.08630952 48.203125 -117.5625 48.203125 C-117.19125 47.275 -117.19125 47.275 -116.8125 46.328125 C-115.31247691 43.77808575 -114.1927751 43.44090152 -111.5625 42.203125 C-110.985 41.625625 -110.4075 41.048125 -109.8125 40.453125 C-105.55169137 36.19231637 -100.83859267 31.59538079 -94.5625 31.203125 C-94.0675 29.718125 -94.0675 29.718125 -93.5625 28.203125 C-91.81882964 27.26154301 -90.06194616 26.34068175 -88.265625 25.50390625 C-85.50901129 24.17738549 -82.82876736 22.73576467 -80.14453125 21.26928711 C-69.61857468 15.53489934 -59.08749195 11.54032806 -47.5625 8.203125 C-46.36238281 7.84992187 -45.16226563 7.49671875 -43.92578125 7.1328125 C-36.09058735 4.92225623 -28.48245666 3.49136036 -20.4140625 2.59765625 C-17.66828293 2.51008297 -17.66828293 2.51008297 -16.5625 1.203125 C-11.03305401 0.17773696 -5.61300702 0.02782241 0 0 Z " fill="#9A5AB4" transform="translate(188.5625,0.796875)"/>
<path d="M0 0 C0.8886676 -0.00191345 1.77733521 -0.0038269 2.69293213 -0.00579834 C4.56189255 -0.00715067 6.43086267 -0.00352129 8.29980469 0.00488281 C11.11936218 0.0155446 13.93827516 0.00498121 16.7578125 -0.0078125 C40.80767574 -0.02584963 40.80767574 -0.02584963 47.390625 3.265625 C49.42645623 3.65192539 51.4693568 4.00159284 53.515625 4.328125 C54.61132812 4.50472656 55.70703125 4.68132813 56.8359375 4.86328125 C58.10050781 5.06244141 58.10050781 5.06244141 59.390625 5.265625 C59.390625 5.925625 59.390625 6.585625 59.390625 7.265625 C60.586875 7.389375 61.783125 7.513125 63.015625 7.640625 C66.66659313 8.08887554 69.93587399 8.97009337 73.390625 10.265625 C73.390625 10.925625 73.390625 11.585625 73.390625 12.265625 C74.7828125 12.3275 74.7828125 12.3275 76.203125 12.390625 C80.93666617 13.0365461 84.66848723 15.4176163 88.7421875 17.79296875 C91.33092208 19.31601425 91.33092208 19.31601425 94.0390625 20.26953125 C96.49145294 21.30833451 97.57833862 22.36961887 99.390625 24.265625 C101.32214845 25.39308537 101.32214845 25.39308537 103.390625 26.328125 C105.91807752 27.52004863 108.04351841 28.70088727 110.390625 30.265625 C110.390625 30.925625 110.390625 31.585625 110.390625 32.265625 C111.380625 32.265625 112.370625 32.265625 113.390625 32.265625 C115.1150082 33.87250338 116.77134607 35.5528812 118.390625 37.265625 C119.39912675 38.21863108 120.41637313 39.16245389 121.44140625 40.09765625 C121.9712915 40.58218262 122.50117676 41.06670898 123.04711914 41.56591797 C123.59360107 42.06494629 124.14008301 42.56397461 124.703125 43.078125 C138.83550297 56.08254796 138.83550297 56.08254796 143.390625 63.265625 C144.050625 63.595625 144.710625 63.925625 145.390625 64.265625 C146.41199957 65.91927906 147.40674794 67.58939002 148.390625 69.265625 C149.21352937 70.43967098 150.04750151 71.60601371 150.890625 72.765625 C152.88312541 75.52310325 154.67077299 78.32754448 156.390625 81.265625 C156.77089844 81.82636719 157.15117187 82.38710937 157.54296875 82.96484375 C161.81874458 89.37200936 165.390625 96.45680432 165.390625 104.265625 C166.050625 104.265625 166.710625 104.265625 167.390625 104.265625 C169.3274188 110.53264883 171.15597199 116.83233247 172.953125 123.140625 C173.26769653 124.21739502 173.26769653 124.21739502 173.58862305 125.31591797 C177.06331463 137.63166255 177.7366048 149.51231119 177.70629883 162.23632812 C177.70314684 164.99649903 177.72664294 167.75558639 177.75195312 170.515625 C177.7916939 181.49373744 176.86388253 191.56030317 174.390625 202.265625 C174.17059814 203.29703613 173.95057129 204.32844727 173.72387695 205.39111328 C173.14367692 208.08672676 172.52511543 210.7698445 171.890625 213.453125 C171.69082031 214.34064453 171.49101562 215.22816406 171.28515625 216.14257812 C170.20452066 220.73011711 169.01595915 224.29628689 166.390625 228.265625 C165.65674397 230.0598466 164.96908979 231.87365059 164.328125 233.703125 C163.99167969 234.65703125 163.65523438 235.6109375 163.30859375 236.59375 C162.31747288 239.47854437 161.33167422 242.36405658 160.390625 245.265625 C159.730625 245.265625 159.070625 245.265625 158.390625 245.265625 C158.205 246.049375 158.019375 246.833125 157.828125 247.640625 C156.14502041 251.88497571 153.80038918 255.12265258 151.12890625 258.80078125 C149.66757803 260.87291182 148.40512314 262.9138157 147.203125 265.140625 C145.5069483 268.06506758 143.84017511 269.97937823 141.390625 272.265625 C140.730625 273.255625 140.070625 274.245625 139.390625 275.265625 C138.730625 275.265625 138.070625 275.265625 137.390625 275.265625 C137.11605469 275.85601562 136.84148437 276.44640625 136.55859375 277.0546875 C133.38119866 283.06942203 127.9253759 288.37132862 122.390625 292.265625 C121.730625 292.265625 121.070625 292.265625 120.390625 292.265625 C120.390625 292.925625 120.390625 293.585625 120.390625 294.265625 C118.41115908 295.62925708 116.4087005 296.95981144 114.390625 298.265625 C113.94074219 298.73226563 113.49085938 299.19890625 113.02734375 299.6796875 C110.89517631 301.74570178 108.54274776 303.14877141 106.015625 304.703125 C103.15424661 306.46488277 100.47750626 308.19428238 97.87890625 310.328125 C95.31592598 312.32378938 92.93017243 313.54862802 89.953125 314.828125 C86.97684305 316.13099541 84.04761559 317.4371297 81.140625 318.890625 C76.1076362 321.4071194 71.68192732 323.30015497 66.15625 324.35546875 C64.81481934 324.61444946 64.81481934 324.61444946 63.44628906 324.87866211 C62.76791992 325.00635986 62.08955078 325.13405762 61.390625 325.265625 C61.38515656 324.00560921 61.38515656 324.00560921 61.37957764 322.72013855 C61.34154094 314.76189956 61.28451216 306.80406387 61.20672226 298.84611034 C61.16739419 294.75587159 61.13513453 290.66584339 61.11962891 286.57543945 C61.10436464 282.61995765 61.06974936 278.66505529 61.02231598 274.70983315 C61.00760197 273.20899842 60.99958978 271.70808091 60.99874115 270.2071743 C60.98615283 259.09590355 59.68042879 249.68061867 53.390625 240.265625 C52.400625 239.605625 51.410625 238.945625 50.390625 238.265625 C50.390625 237.605625 50.390625 236.945625 50.390625 236.265625 C49.75125 235.9975 49.111875 235.729375 48.453125 235.453125 C46.390625 234.265625 46.390625 234.265625 45.390625 231.265625 C46.25228271 231.12987061 47.11394043 230.99411621 48.00170898 230.85424805 C51.24004086 230.34029961 54.47712016 229.81948573 57.71362305 229.29418945 C59.10674457 229.06948206 60.50029427 228.84741103 61.89428711 228.62817383 C76.28838951 226.38220435 76.28838951 226.38220435 89.390625 220.265625 C91.05135349 219.58430049 92.718392 218.91820373 94.390625 218.265625 C99.04398373 216.22978055 101.93578919 213.97325367 105.390625 210.265625 C107.23662709 208.47866349 109.08489293 206.69417625 110.9375 204.9140625 C112.6233269 203.21771385 112.6233269 203.21771385 113.390625 200.265625 C114.050625 200.265625 114.710625 200.265625 115.390625 200.265625 C115.65875 199.37875 115.926875 198.491875 116.203125 197.578125 C117.390625 194.265625 117.390625 194.265625 118.83203125 191.92578125 C124.32027283 182.55863208 125.19064032 171.88779978 125.390625 161.265625 C125.41108887 160.39599121 125.43155273 159.52635742 125.45263672 158.63037109 C125.85433656 139.4450537 124.76961447 121.8887203 112.078125 106.453125 C109.09331906 100.81515823 110.13445895 94.91461487 110.734375 88.7109375 C111.90907875 75.8692897 109.70901346 64.98227775 104.390625 53.265625 C90.66440272 52.39411882 77.99917804 56.04748625 66.390625 63.265625 C64.72756626 64.16813858 63.06107234 65.06436135 61.390625 65.953125 C58.40532474 67.54675527 58.40532474 67.54675527 56.0625 69.92578125 C53.37247058 72.08157586 50.97538636 71.34480745 47.640625 71.015625 C46.44953125 70.90734375 45.2584375 70.7990625 44.03125 70.6875 C41.77249892 70.42575631 39.51774876 70.12112582 37.27441406 69.74975586 C32.69340571 69.17871364 28.2204406 69.10349217 23.609375 69.09765625 C22.67822876 69.09432785 21.74708252 69.09099945 20.78771973 69.08757019 C18.82104991 69.08252508 16.85437159 69.08016112 14.88769531 69.08032227 C11.92758446 69.0781521 8.96785676 69.06001558 6.0078125 69.04101562 C-3.61610242 69.01339675 -12.93110319 69.25686304 -22.43554688 70.8347168 C-28.7065749 71.68612945 -33.15633682 71.68962572 -38.609375 68.265625 C-39.269375 67.275625 -39.929375 66.285625 -40.609375 65.265625 C-42.094375 64.770625 -42.094375 64.770625 -43.609375 64.265625 C-43.609375 63.605625 -43.609375 62.945625 -43.609375 62.265625 C-44.5375 61.9975 -45.465625 61.729375 -46.421875 61.453125 C-49.609375 60.265625 -49.609375 60.265625 -50.9140625 58.82421875 C-53.32545022 56.60729778 -55.79560875 56.05650923 -58.921875 55.140625 C-60.03175781 54.80804688 -61.14164062 54.47546875 -62.28515625 54.1328125 C-65.38658365 53.32374448 -68.44070717 52.73541236 -71.609375 52.265625 C-71.609375 51.605625 -71.609375 50.945625 -71.609375 50.265625 C-75.569375 50.265625 -79.529375 50.265625 -83.609375 50.265625 C-83.8775 51.090625 -84.145625 51.915625 -84.421875 52.765625 C-85.49771075 55.93650932 -86.67718772 59.03531468 -87.92578125 62.140625 C-89.81323309 68.00790387 -89.8014279 73.91701556 -89.796875 80.015625 C-89.7978418 81.3454541 -89.7978418 81.3454541 -89.79882812 82.70214844 C-89.74956742 88.79480164 -89.18524098 94.35612756 -87.609375 100.265625 C-88.269375 100.265625 -88.929375 100.265625 -89.609375 100.265625 C-89.8775 100.9875 -90.145625 101.709375 -90.421875 102.453125 C-91.60412634 105.25319396 -93.02888212 107.67361667 -94.609375 110.265625 C-96.36082354 113.56643185 -97.90105517 116.58236188 -98.609375 120.265625 C-99.269375 120.265625 -99.929375 120.265625 -100.609375 120.265625 C-100.79113281 121.33490234 -100.79113281 121.33490234 -100.9765625 122.42578125 C-101.22792969 123.86244141 -101.22792969 123.86244141 -101.484375 125.328125 C-101.64679688 126.26785156 -101.80921875 127.20757812 -101.9765625 128.17578125 C-102.609375 131.265625 -102.609375 131.265625 -103.63671875 134.45117188 C-104.67235756 138.51262286 -104.86529145 142.23251045 -104.8046875 146.38671875 C-104.80044266 147.50386009 -104.80044266 147.50386009 -104.79611206 148.64356995 C-104.78501417 150.99692601 -104.7599301 153.34988609 -104.734375 155.703125 C-104.72433172 157.30923925 -104.71520824 158.91535954 -104.70703125 160.52148438 C-104.68510907 164.43634796 -104.65065261 168.3509196 -104.609375 172.265625 C-103.949375 172.265625 -103.289375 172.265625 -102.609375 172.265625 C-102.49980469 172.966875 -102.39023438 173.668125 -102.27734375 174.390625 C-100.5718016 184.5961455 -97.74812032 191.90423051 -91.609375 200.265625 C-91.16851562 200.88566406 -90.72765625 201.50570312 -90.2734375 202.14453125 C-86.55832567 206.94411214 -82.01861018 209.7471773 -76.8046875 212.78515625 C-75.71800781 213.51798828 -75.71800781 213.51798828 -74.609375 214.265625 C-74.609375 214.925625 -74.609375 215.585625 -74.609375 216.265625 C-73.90941406 216.54535156 -73.20945312 216.82507813 -72.48828125 217.11328125 C-70.55643099 217.8865456 -68.62675679 218.66526704 -66.69921875 219.44921875 C-60.22892459 222.02290453 -53.85727365 224.12267786 -47.0703125 225.6875 C-44.609375 226.265625 -44.609375 226.265625 -41.609375 227.265625 C-40.1305563 227.47639 -38.64640648 227.65115874 -37.16015625 227.80078125 C-36.31259766 227.88779297 -35.46503906 227.97480469 -34.59179688 228.06445312 C-33.27018555 228.1949707 -33.27018555 228.1949707 -31.921875 228.328125 C-31.02919922 228.41900391 -30.13652344 228.50988281 -29.21679688 228.60351562 C-27.01461235 228.82726699 -24.81215732 229.04785101 -22.609375 229.265625 C-23.609375 232.265625 -23.609375 232.265625 -25.859375 233.578125 C-32.18978791 237.46269656 -36.29061506 244.41326471 -38.21875 251.5078125 C-38.34765625 252.08789062 -38.4765625 252.66796875 -38.609375 253.265625 C-61.31479833 258.47670576 -61.31479833 258.47670576 -70.609375 254.265625 C-70.609375 253.605625 -70.609375 252.945625 -70.609375 252.265625 C-71.19203125 252.15089844 -71.7746875 252.03617188 -72.375 251.91796875 C-80.24884244 249.61913713 -86.33037438 241.87759138 -90.609375 235.265625 C-90.609375 234.275625 -90.609375 233.285625 -90.609375 232.265625 C-91.269375 232.265625 -91.929375 232.265625 -92.609375 232.265625 C-93.104375 231.564375 -93.599375 230.863125 -94.109375 230.140625 C-97.96762571 225.70363668 -102.50469269 221.82379527 -108.53759766 221.00341797 C-112.90973058 220.75574322 -117.24215676 220.95118529 -121.609375 221.265625 C-121.24728242 224.92322642 -121.24728242 224.92322642 -118.98046875 227.62890625 C-118.34238281 227.94214844 -117.70429687 228.25539063 -117.046875 228.578125 C-115.9125 229.135 -114.778125 229.691875 -113.609375 230.265625 C-113.609375 230.925625 -113.609375 231.585625 -113.609375 232.265625 C-112.84625 232.53375 -112.083125 232.801875 -111.296875 233.078125 C-108.66730939 234.24002608 -107.47236508 235.14859082 -105.609375 237.265625 C-104.866875 237.884375 -104.866875 237.884375 -104.109375 238.515625 C-100.80467855 242.37110419 -99.35970454 247.31345003 -98.609375 252.265625 C-97.949375 252.265625 -97.289375 252.265625 -96.609375 252.265625 C-96.42761719 252.80832031 -96.24585938 253.35101563 -96.05859375 253.91015625 C-95.68154297 254.98330078 -95.68154297 254.98330078 -95.296875 256.078125 C-95.05324219 256.78582031 -94.80960938 257.49351562 -94.55859375 258.22265625 C-93.5238424 260.44971368 -92.40946461 261.61854301 -90.609375 263.265625 C-85.609375 268.80083627 -85.609375 268.80083627 -85.609375 271.265625 C-84.825625 271.575 -84.041875 271.884375 -83.234375 272.203125 C-80.609375 273.265625 -80.609375 273.265625 -78.609375 274.265625 C-78.609375 274.925625 -78.609375 275.585625 -78.609375 276.265625 C-77.743125 276.389375 -76.876875 276.513125 -75.984375 276.640625 C-72.609375 277.265625 -72.609375 277.265625 -69.81787109 278.29248047 C-66.33349379 279.34930043 -63.53197285 279.49427269 -59.8984375 279.4609375 C-58.77646973 279.45594238 -57.65450195 279.45094727 -56.49853516 279.44580078 C-55.0913623 279.42759277 -53.68418945 279.40938477 -52.234375 279.390625 C-47.738125 279.349375 -43.241875 279.308125 -38.609375 279.265625 C-38.609375 294.775625 -38.609375 310.285625 -38.609375 326.265625 C-46.38281577 324.32226481 -52.65105387 322.71202511 -59.609375 319.265625 C-60.26292969 318.95753906 -60.91648437 318.64945312 -61.58984375 318.33203125 C-67.13964786 315.662365 -72.37869867 312.50864433 -77.609375 309.265625 C-78.2590625 308.86859375 -78.90875 308.4715625 -79.578125 308.0625 C-80.96060475 307.18866846 -82.29271318 306.23579687 -83.609375 305.265625 C-83.609375 304.605625 -83.609375 303.945625 -83.609375 303.265625 C-84.599375 303.265625 -85.589375 303.265625 -86.609375 303.265625 C-86.939375 302.605625 -87.269375 301.945625 -87.609375 301.265625 C-88.434375 300.894375 -89.259375 300.523125 -90.109375 300.140625 C-94.88798617 297.58065473 -98.86526294 294.18446229 -102.609375 290.265625 C-102.609375 289.605625 -102.609375 288.945625 -102.609375 288.265625 C-103.599375 288.265625 -104.589375 288.265625 -105.609375 288.265625 C-105.939375 286.945625 -106.269375 285.625625 -106.609375 284.265625 C-107.929375 283.935625 -109.249375 283.605625 -110.609375 283.265625 C-110.609375 282.275625 -110.609375 281.285625 -110.609375 280.265625 C-111.15722656 280.07355469 -111.70507812 279.88148438 -112.26953125 279.68359375 C-115.64100773 277.64044523 -117.7032802 274.6760543 -120.046875 271.578125 C-120.51158203 270.97806641 -120.97628906 270.37800781 -121.45507812 269.75976562 C-122.8563848 267.94021679 -124.23691572 266.10701396 -125.609375 264.265625 C-126.08221924 263.63374268 -126.55506348 263.00186035 -127.04223633 262.35083008 C-129.50890609 258.98967795 -131.22599671 256.48278621 -131.609375 252.265625 C-132.599375 251.935625 -133.589375 251.605625 -134.609375 251.265625 C-135.984375 248.890625 -135.984375 248.890625 -137.609375 245.265625 C-138.01542969 244.38519531 -138.42148438 243.50476563 -138.83984375 242.59765625 C-140.86828786 238.18980555 -142.83536804 233.78257444 -144.609375 229.265625 C-145.27515285 227.57777413 -145.94181732 225.89027272 -146.609375 224.203125 C-146.939375 223.36652344 -147.269375 222.52992188 -147.609375 221.66796875 C-148.54309123 219.32128045 -148.54309123 219.32128045 -149.60498047 217.38256836 C-151.33587453 213.73439567 -151.94270103 209.83136947 -152.734375 205.890625 C-152.91323242 205.00536133 -153.09208984 204.12009766 -153.27636719 203.20800781 C-154.68257686 195.80197023 -155.0589196 188.80798442 -154.609375 181.265625 C-155.269375 181.265625 -155.929375 181.265625 -156.609375 181.265625 C-156.609375 171.695625 -156.609375 162.125625 -156.609375 152.265625 C-155.949375 152.265625 -155.289375 152.265625 -154.609375 152.265625 C-154.65578125 151.33105469 -154.7021875 150.39648438 -154.75 149.43359375 C-154.97042653 141.41164245 -154.46062499 134.00499592 -152.796875 126.140625 C-152.63155273 125.34809326 -152.46623047 124.55556152 -152.29589844 123.73901367 C-151.26470107 119.17776167 -149.75703611 115.44226068 -147.609375 111.265625 C-146.56402801 107.73211368 -145.66590884 104.17933783 -144.76953125 100.60546875 C-143.54878475 97.09119853 -142.01827548 95.058414 -139.609375 92.265625 C-138.87183504 90.56607639 -138.13664687 88.86495947 -137.44921875 87.14453125 C-136.21257564 84.37790178 -134.57582164 81.9171071 -132.9296875 79.37890625 C-131.54417934 77.16127337 -130.32890635 74.89063256 -129.109375 72.578125 C-127.06068002 68.83285448 -124.71672558 66.21760805 -121.609375 63.265625 C-120.7321272 62.09507246 -119.87871626 60.90636939 -119.046875 59.703125 C-117.12305659 56.93234251 -115.18088579 54.48244465 -112.609375 52.265625 C-111.949375 52.265625 -111.289375 52.265625 -110.609375 52.265625 C-109.949375 50.945625 -109.289375 49.625625 -108.609375 48.265625 C-107.949375 48.265625 -107.289375 48.265625 -106.609375 48.265625 C-106.37992188 47.688125 -106.15046875 47.110625 -105.9140625 46.515625 C-104.27279169 43.68516995 -102.33422558 42.24058568 -99.734375 40.265625 C-96.45668687 37.76088422 -93.51173894 35.19274258 -90.609375 32.265625 C-88.97305608 31.21670262 -87.30451637 30.21655797 -85.609375 29.265625 C-84.2790625 28.4303125 -84.2790625 28.4303125 -82.921875 27.578125 C-80.609375 26.265625 -80.609375 26.265625 -78.609375 26.265625 C-78.609375 25.605625 -78.609375 24.945625 -78.609375 24.265625 C-76.65352175 23.26078296 -74.69461263 22.26188695 -72.734375 21.265625 C-71.64382812 20.70875 -70.55328125 20.151875 -69.4296875 19.578125 C-66.609375 18.265625 -66.609375 18.265625 -64.609375 18.265625 C-64.609375 17.605625 -64.609375 16.945625 -64.609375 16.265625 C-61.309375 15.275625 -58.009375 14.285625 -54.609375 13.265625 C-54.609375 12.605625 -54.609375 11.945625 -54.609375 11.265625 C-44.23579869 7.82143366 -44.23579869 7.82143366 -38.609375 8.265625 C-38.609375 7.605625 -38.609375 6.945625 -38.609375 6.265625 C-32.91734741 3.74799741 -28.04553479 2.85626224 -21.83203125 2.57421875 C-19.22346706 2.32442897 -17.02737388 1.89917814 -14.50854492 1.26293945 C-9.62848195 0.16086039 -4.98772726 -0.02428558 0 0 Z " fill="#EDEDEE" transform="translate(188.609375,33.734375)"/>
<path d="M0 0 C2 2 2 2 2.24050903 4.822052 C2.23606781 6.02562347 2.23162659 7.22919495 2.22705078 8.46923828 C2.22734283 9.13277313 2.22763489 9.79630798 2.22793579 10.47994995 C2.22654056 12.67686972 2.21097067 14.87345186 2.1953125 17.0703125 C2.19158305 18.59202896 2.18873576 20.11374781 2.18673706 21.63546753 C2.17909523 25.64356092 2.15944213 29.6515097 2.1373291 33.6595459 C2.11688244 37.74827112 2.10773788 41.83701966 2.09765625 45.92578125 C2.07619667 53.95058724 2.04205421 61.97527564 2 70 C3.65 70 5.3 70 7 70 C4.35261084 71.4606285 3.10551666 72 0 72 C0 48.24 0 24.48 0 0 Z " fill="#FAEAFC" transform="translate(250,287)"/>
<path d="M0 0 C1.79206547 0.14084796 3.58364917 0.28783701 5.375 0.4375 C6.87160156 0.55931641 6.87160156 0.55931641 8.3984375 0.68359375 C11 1 11 1 13 2 C15.44350894 2.13218708 17.86338219 2.20973992 20.30859375 2.24609375 C21.7923237 2.27902784 23.27604752 2.31223956 24.75976562 2.34570312 C27.10127599 2.3931479 29.44276066 2.43758811 31.78442383 2.47680664 C34.04274285 2.51650969 36.30055417 2.56805271 38.55859375 2.62109375 C39.2586705 2.6295079 39.95874725 2.63792206 40.68003845 2.64659119 C44.32144887 2.73925186 45.88591647 2.92394431 49 5 C42.98601473 5.04955115 36.97214914 5.08579131 30.95800781 5.10986328 C28.91339039 5.11990179 26.86878726 5.13353542 24.82421875 5.15087891 C21.88017239 5.1752217 18.93631637 5.18650478 15.9921875 5.1953125 C15.0825827 5.20563507 14.17297791 5.21595764 13.23580933 5.22659302 C8.41195461 5.22743991 4.53073798 4.88400471 0 3 C0 2.01 0 1.02 0 0 Z " fill="#A783B5" transform="translate(172,394)"/>
<path d="M0 0 C3.58762851 3.58762851 2.86996016 9.12350611 3 14 C2.73453464 18.25376629 2.17691789 22.48200083 1.68359375 26.71484375 C1.22601429 33.65642151 2.85792008 36.97945328 7.11328125 42.3828125 C11.25427961 48.12705454 13.80842031 55.04066753 15 62 C14.34 62 13.68 62 13 62 C13 61.34 13 60.68 13 60 C12.34 60 11.68 60 11 60 C11 58.68 11 57.36 11 56 C10.34 56 9.68 56 9 56 C8.67 53.03 8.34 50.06 8 47 C7.34 47 6.68 47 6 47 C3 41.25 3 41.25 3 39 C2.01 38.67 1.02 38.34 0 38 C0 25.46 0 12.92 0 0 Z " fill="#AA83BC" transform="translate(298,102)"/>
<path d="M0 0 C0.66 0 1.32 0 2 0 C-0.63534132 7.02757686 -4.24322259 13.52279757 -8 20 C-8.33 20.66 -8.66 21.32 -9 22 C-9.66 22 -10.32 22 -11 22 C-11.28875 22.928125 -11.5775 23.85625 -11.875 24.8125 C-13 28 -13 28 -15 31 C-15.66 31 -16.32 31 -17 31 C-17.33 31.66 -17.66 32.32 -18 33 C-18 31.68 -18 30.36 -18 29 C-17.34 29 -16.68 29 -16 29 C-15.5978125 27.7315625 -15.5978125 27.7315625 -15.1875 26.4375 C-13.9521405 22.86145933 -12.523012 19.46139092 -11 16 C-10.34 16 -9.68 16 -9 16 C-9 15.01 -9 14.02 -9 13 C-8.01 12.67 -7.02 12.34 -6 12 C-5.8453125 10.39125 -5.8453125 10.39125 -5.6875 8.75 C-5.02599507 5.14179128 -4.42516579 3.63604977 -2 1 C-1.34 1.33 -0.68 1.66 0 2 C0 1.34 0 0.68 0 0 Z " fill="#A67BB6" transform="translate(379,284)"/>
<path d="M0 0 C1.65 0 3.3 0 5 0 C4.34 1.32 3.68 2.64 3 4 C2.34 4 1.68 4 1 4 C0.731875 4.5775 0.46375 5.155 0.1875 5.75 C-1.02929189 8.05550043 -2.30333879 10.02056192 -4 12 C-4.66 12 -5.32 12 -6 12 C-6 12.66 -6 13.32 -6 14 C-6.66 14 -7.32 14 -8 14 C-8.33 14.99 -8.66 15.98 -9 17 C-9.66 17 -10.32 17 -11 17 C-11 17.66 -11 18.32 -11 19 C-11.66 19 -12.32 19 -13 19 C-13 19.66 -13 20.32 -13 21 C-15.5 22.625 -15.5 22.625 -18 24 C-17.01 21.03 -16.02 18.06 -15 15 C-13.35 14.67 -11.7 14.34 -10 14 C-10 13.01 -10 12.02 -10 11 C-7.625 8.9375 -7.625 8.9375 -5 7 C-4.34 6.34 -3.68 5.68 -3 5 C-2.01 5 -1.02 5 0 5 C0 3.35 0 1.7 0 0 Z " fill="#A67CB6" transform="translate(350,325)"/>
<path d="M0 0 C2.64 0.66 5.28 1.32 8 2 C8 2.99 8 3.98 8 5 C10.475 5.99 10.475 5.99 13 7 C13 7.66 13 8.32 13 9 C19.6 9 26.2 9 33 9 C33 9.33 33 9.66 33 10 C25.06854338 11.44208302 16.46770407 12.46030976 9 9 C9 8.34 9 7.68 9 7 C8.443125 6.9175 7.88625 6.835 7.3125 6.75 C4.26322081 5.76104459 2.34810037 4.15242534 0 2 C0 1.34 0 0.68 0 0 Z " fill="#EAD5EF" transform="translate(109,279)"/>
<path d="M0 0 C0.33 0 0.66 0 1 0 C1.22537111 3.12401779 1.42738648 6.24911333 1.625 9.375 C1.68945312 10.26445312 1.75390625 11.15390625 1.8203125 12.0703125 C1.871875 12.92109375 1.9234375 13.771875 1.9765625 14.6484375 C2.02893066 15.43395996 2.08129883 16.21948242 2.13525391 17.02880859 C2 19 2 19 0 21 C-0.61056087 23.02213278 -1.14363995 25.06827978 -1.625 27.125 C-2.01558594 28.76855469 -2.01558594 28.76855469 -2.4140625 30.4453125 C-2.70410156 31.70988281 -2.70410156 31.70988281 -3 33 C-3.66 33 -4.32 33 -5 33 C-5 33.66 -5 34.32 -5 35 C-5.66 35 -6.32 35 -7 35 C-7 35.66 -7 36.32 -7 37 C-7.66 36.67 -8.32 36.34 -9 36 C-8.4225 34.948125 -7.845 33.89625 -7.25 32.8125 C-1.9770217 22.11642303 -0.32542963 11.76428096 0 0 Z " fill="#E1CBEB" transform="translate(314,195)"/>
<path d="M0 0 C0.66 0.33 1.32 0.66 2 1 C0.96552734 1.65355469 0.96552734 1.65355469 -0.08984375 2.3203125 C-1.02957031 2.91585938 -1.96929687 3.51140625 -2.9375 4.125 C-3.94039063 4.76050781 -4.94328125 5.39601563 -5.9765625 6.05078125 C-8.62504753 7.75826707 -11.22057704 9.52115393 -13.8125 11.3125 C-17.09186804 13.52430399 -20.13224427 15.00826776 -24 16 C-23.67 15.01 -23.34 14.02 -23 13 C-21.35 12.67 -19.7 12.34 -18 12 C-17.8453125 11.071875 -17.8453125 11.071875 -17.6875 10.125 C-16.73465655 7.17984753 -14.79722362 6.48402862 -12.25 4.9375 C-9.22416937 3.67673724 -6.24172967 3.37404573 -3 3 C-3 2.34 -3 1.68 -3 1 C-2.01 0.67 -1.02 0.34 0 0 Z " fill="#B088BE" transform="translate(314,362)"/>
<path d="M0 0 C0.33 0 0.66 0 1 0 C1 15.18 1 30.36 1 46 C-0.32 45.34 -1.64 44.68 -3 44 C-2.01 43.505 -2.01 43.505 -1 43 C-1.00523682 41.98164063 -1.01047363 40.96328125 -1.01586914 39.9140625 C-1.03408736 36.10466403 -1.04549301 32.29526934 -1.05493164 28.48583984 C-1.05993363 26.84292959 -1.06673733 25.20002373 -1.07543945 23.55712891 C-1.0876874 21.18390819 -1.09326979 18.81074677 -1.09765625 16.4375 C-1.10281754 15.71320801 -1.10797882 14.98891602 -1.11329651 14.24267578 C-1.11381759 9.4125661 -0.68027235 4.78309137 0 0 Z " fill="#FBE9FD" transform="translate(149,314)"/>
<path d="M0 0 C2.04119788 1.61594832 4.04072937 3.2856382 6 5 C6 5.66 6 6.32 6 7 C6.639375 7.2475 7.27875 7.495 7.9375 7.75 C10 9 10 9 10.75 11.125 C10.87375 12.053125 10.87375 12.053125 11 13 C11.99 12.67 12.98 12.34 14 12 C14.33 13.65 14.66 15.3 15 17 C10.46850055 14.17621696 6.82715373 11.08293633 3.125 7.25 C2.62742187 6.74339844 2.12984375 6.23679687 1.6171875 5.71484375 C0.40676798 4.48114693 -0.79729853 3.24122216 -2 2 C-1.34 1.34 -0.68 0.68 0 0 Z " fill="#A479B4" transform="translate(58,336)"/>
<path d="M0 0 C3.43752007 1.5277867 6.18953688 3.50181056 9 6 C9 6.66 9 7.32 9 8 C9.66 8 10.32 8 11 8 C11.99 9.485 11.99 9.485 13 11 C13.99 11.66 14.98 12.32 16 13 C12.23312136 13 11.08809695 12.76462683 8 11 C8 10.34 8 9.68 8 9 C7.195625 8.731875 6.39125 8.46375 5.5625 8.1875 C4.716875 7.795625 3.87125 7.40375 3 7 C2.67 6.01 2.34 5.02 2 4 C1.34 4 0.68 4 0 4 C0 2.68 0 1.36 0 0 Z " fill="#A374B3" transform="translate(77,353)"/>
<path d="M0 0 C0.66 0.33 1.32 0.66 2 1 C0.57785337 5.85900097 -1.18330215 9.81519176 -4 14 C-6.75 15.4375 -6.75 15.4375 -9 16 C-7.51637716 9.73581469 -3.75837844 5.08486495 0 0 Z " fill="#B08BC1" transform="translate(41,78)"/>
<path d="M0 0 C0.99 0 1.98 0 3 0 C3 5.94 3 11.88 3 18 C2.34 18 1.68 18 1 18 C0.67 18.99 0.34 19.98 0 21 C0 14.07 0 7.14 0 0 Z " fill="#F4EDF9" transform="translate(316,177)"/>
<path d="M0 0 C1.72985242 0.11512153 3.45888751 0.24255677 5.1875 0.375 C6.15042969 0.44460938 7.11335937 0.51421875 8.10546875 0.5859375 C11.01508938 1.00215853 13.32890774 1.79874096 16 3 C16 3.66 16 4.32 16 5 C10.26157749 5.20413361 5.39460953 5.27141454 0 3 C0 2.01 0 1.02 0 0 Z " fill="#B186C2" transform="translate(172,394)"/>
<path d="M0 0 C0.33 0 0.66 0 1 0 C0.63282337 7.22114047 0.63282337 7.22114047 -2.4375 11 C-5 13 -5 13 -7 13 C-7.12375 13.804375 -7.2475 14.60875 -7.375 15.4375 C-7.684375 16.7059375 -7.684375 16.7059375 -8 18 C-8.66 18.33 -9.32 18.66 -10 19 C-8.18460889 11.58715295 -5.09668761 5.799679 0 0 Z " fill="#E7D3EE" transform="translate(58,110)"/>
<path d="M0 0 C2.475 0.495 2.475 0.495 5 1 C5 2.65 5 4.3 5 6 C5.61875 6.2475 6.2375 6.495 6.875 6.75 C9.39525827 8.23250486 10.01231659 9.28387064 11 12 C11 12.99 11 13.98 11 15 C10.01 14.67 9.02 14.34 8 14 C6.8125 11.4375 6.8125 11.4375 6 9 C5.34 9 4.68 9 4 9 C0 2.25 0 2.25 0 0 Z " fill="#B790C6" transform="translate(32,306)"/>
<path d="M0 0 C3.3 0.33 6.6 0.66 10 1 C8.73850149 4.78449552 7.41155305 5.13176857 4 7 C3.01 7.66 2.02 8.32 1 9 C0.375 7.1875 0.375 7.1875 0 5 C0.66 4.01 1.32 3.02 2 2 C1.34 2 0.68 2 0 2 C0 1.34 0 0.68 0 0 Z " fill="#E5D2ED" transform="translate(156,262)"/>
<path d="M0 0 C0.99 0.33 1.98 0.66 3 1 C4.1875 3.5625 4.1875 3.5625 5 6 C5.66 6 6.32 6 7 6 C11 12.75 11 12.75 11 15 C9.68 14.67 8.36 14.34 7 14 C6.67 12.02 6.34 10.04 6 8 C4.68 8 3.36 8 2 8 C1.34 5.36 0.68 2.72 0 0 Z " fill="#B087C0" transform="translate(357,79)"/>
<path d="M0 0 C-0.6875 1.875 -0.6875 1.875 -2 4 C-4.3125 5.0625 -4.3125 5.0625 -7 6 C-8.6829392 6.97236487 -10.35443434 7.96564444 -12 9 C-12.66 8.34 -13.32 7.68 -14 7 C-12.61423347 4.22846695 -10.65868859 3.51925062 -8 2 C-4.77208445 -0.1519437 -3.71599191 -0.20086443 0 0 Z " fill="#E9DAEE" transform="translate(111,61)"/>
<path d="M0 0 C5.19525146 1.3606611 8.17555757 3.35767388 12 7 C12 7.66 12 8.32 12 9 C10.35 9 8.7 9 7 9 C7 8.34 7 7.68 7 7 C4.66785852 5.79371992 2.50357861 4.8345262 0 4 C0 2.68 0 1.36 0 0 Z " fill="#9D6AB3" transform="translate(290,22)"/>
<path d="M0 0 C6.76923077 -0.30769231 6.76923077 -0.30769231 10 2 C10.68268138 3.32520503 11.3507041 4.65812182 12 6 C12.99 6.33 13.98 6.66 15 7 C15 7.99 15 8.98 15 10 C15.66 10 16.32 10 17 10 C17 10.66 17 11.32 17 12 C16.01 12 15.02 12 14 12 C13.484375 11.29875 12.96875 10.5975 12.4375 9.875 C9.41793572 6.31346264 6.08706881 4.49968598 2.046875 2.234375 C1.37140625 1.82703125 0.6959375 1.4196875 0 1 C0 0.67 0 0.34 0 0 Z " fill="#E3CFEC" transform="translate(82,254)"/>
<path d="M0 0 C0.66 0.33 1.32 0.66 2 1 C1.09009456 5.2688117 0.14650446 9.49154334 -1.0625 13.6875 C-1.9401518 16.78853637 -2.53378287 19.81418292 -3 23 C-3.33 23 -3.66 23 -4 23 C-4.09875339 17.84287869 -4.06644464 12.70856827 -3.6875 7.5625 C-3.62949219 6.75941406 -3.57148437 5.95632812 -3.51171875 5.12890625 C-2.9054293 2.60655703 -1.96587889 1.63911081 0 0 Z " fill="#EDDCF4" transform="translate(86,155)"/>
<path d="M0 0 C0.33 0.66 0.66 1.32 1 2 C0.34 2 -0.32 2 -1 2 C-1.185625 2.721875 -1.37125 3.44375 -1.5625 4.1875 C-3.53685054 8.05035976 -6.24250537 9.92773365 -10 12 C-12.9375 12.8125 -12.9375 12.8125 -15 13 C-13.71034824 11.62437146 -12.37310707 10.29233607 -11 9 C-10.34 9 -9.68 9 -9 9 C-8.67 8.01 -8.34 7.02 -8 6 C-4.55555556 3 -4.55555556 3 -2 3 C-2 2.34 -2 1.68 -2 1 C-1.34 0.67 -0.68 0.34 0 0 Z " fill="#A073B6" transform="translate(311,325)"/>
<path d="M0 0 C-0.33 0.99 -0.66 1.98 -1 3 C-7.34241995 4.15316726 -13.56688704 4.09507063 -20 4 C-19.67 3.34 -19.34 2.68 -19 2 C-16.3828125 1.62109375 -16.3828125 1.62109375 -13.125 1.4375 C-8.59800551 1.1702437 -4.48986684 0 0 0 Z " fill="#E2CDEA" transform="translate(177,35)"/>
<path d="M0 0 C-1.36253583 3.11824121 -2.85108253 5.04737351 -5.4375 7.25 C-6.33275391 8.03117188 -6.33275391 8.03117188 -7.24609375 8.828125 C-9 10 -9 10 -12 10 C-10.87084496 6.61253488 -9.77256927 5.62548634 -7.125 3.3125 C-6.42632812 2.68988281 -5.72765625 2.06726563 -5.0078125 1.42578125 C-3 0 -3 0 0 0 Z " fill="#E6D4EB" transform="translate(302,239)"/>
<path d="M0 0 C0.66 0 1.32 0 2 0 C0.31326082 4.49797113 -1.81673892 8.72886302 -4 13 C-4.33 13 -4.66 13 -5 13 C-5.36923077 5.61538462 -5.36923077 5.61538462 -3.5 2.5 C-3.005 2.005 -2.51 1.51 -2 1 C-1.34 1.33 -0.68 1.66 0 2 C0 1.34 0 0.68 0 0 Z " fill="#B991C8" transform="translate(379,284)"/>
<path d="M0 0 C1.12377697 3.30435084 0.89554742 5.0506862 -0.4375 8.25 C-0.72496094 8.95640625 -1.01242188 9.6628125 -1.30859375 10.390625 C-1.53675781 10.92171875 -1.76492187 11.4528125 -2 12 C-2.66 12 -3.32 12 -4 12 C-4.33 13.98 -4.66 15.96 -5 18 C-5.66 18 -6.32 18 -7 18 C-6.19467867 14.2936916 -4.86169666 10.84736952 -3.5 7.3125 C-3.0565625 6.15363281 -2.613125 4.99476562 -2.15625 3.80078125 C-1 1 -1 1 0 0 Z " fill="#C7A5D3" transform="translate(20,113)"/>
<path d="M0 0 C0.33 0.66 0.66 1.32 1 2 C1.99 2.33 2.98 2.66 4 3 C5.03435556 4.64556566 6.02763513 6.3170608 7 8 C8.60778647 10.05680792 10.29639308 12.0201325 12 14 C11.34 14.66 10.68 15.32 10 16 C4.555 9.07 4.555 9.07 -1 2 C-0.67 1.34 -0.34 0.68 0 0 Z " fill="#EBDAF3" transform="translate(64,296)"/>
<path d="M0 0 C2.64 0 5.28 0 8 0 C8 0.66 8 1.32 8 2 C6.58603098 2.50757862 5.16868271 3.00574925 3.75 3.5 C2.56664062 3.91765625 2.56664062 3.91765625 1.359375 4.34375 C-1 5 -1 5 -5 5 C-5 4.34 -5 3.68 -5 3 C-3.35 2.67 -1.7 2.34 0 2 C0 1.34 0 0.68 0 0 Z " fill="#B38AC4" transform="translate(250,389)"/>
<path d="M0 0 C0 1.65 0 3.3 0 5 C-3.13498292 6.85776765 -5.37471432 7.20140476 -9 7 C-9 7.66 -9 8.32 -9 9 C-9.66 8.67 -10.32 8.34 -11 8 C-3.28571429 0 -3.28571429 0 0 0 Z " fill="#B692C2" transform="translate(88,35)"/>
<path d="M0 0 C4.95 0 9.9 0 15 0 C15 0.33 15 0.66 15 1 C11.04 1 7.08 1 3 1 C3 2.98 3 4.96 3 7 C1.68 6.34 0.36 5.68 -1 5 C-0.67 3.35 -0.34 1.7 0 0 Z " fill="#A076B5" transform="translate(67,254)"/>
<path d="M0 0 C0.66 0 1.32 0 2 0 C1.71515154 1.73030291 1.42180062 3.45920714 1.125 5.1875 C0.96257812 6.15042969 0.80015625 7.11335937 0.6328125 8.10546875 C0.01960483 10.91032604 -0.85666343 13.37224747 -2 16 C-3.61949011 13.42786866 -4.04408751 12.32330841 -3.625 9.25 C-3.41875 8.5075 -3.2125 7.765 -3 7 C-2.34 7 -1.68 7 -1 7 C-0.67 4.69 -0.34 2.38 0 0 Z " fill="#B796C9" transform="translate(392,246)"/>
<path d="M0 0 C0.33 0 0.66 0 1 0 C1.37634203 6.80203375 0.77471079 11.75690073 -2 18 C-2.33 18 -2.66 18 -3 18 C-2.41509121 11.85845775 -1.45933748 5.99320151 0 0 Z " fill="#AD86BD" transform="translate(362,236)"/>
<path d="M0 0 C3.96 0 7.92 0 12 0 C12 0.33 12 0.66 12 1 C8.37 1 4.74 1 1 1 C1 2.65 1 4.3 1 6 C0.01 6.33 -0.98 6.66 -2 7 C-2.12375 7.804375 -2.2475 8.60875 -2.375 9.4375 C-2.58125 10.283125 -2.7875 11.12875 -3 12 C-3.99 12.495 -3.99 12.495 -5 13 C-3.78184562 8.31479085 -2.30440013 4.29456388 0 0 Z " fill="#B99AC9" transform="translate(105,84)"/>
<path d="M0 0 C0.66 0 1.32 0 2 0 C1.67 1.65 1.34 3.3 1 5 C0.34 5 -0.32 5 -1 5 C-1.33 5.66 -1.66 6.32 -2 7 C-2.66 7 -3.32 7 -4 7 C-4.99 8.485 -4.99 8.485 -6 10 C-7.32 9.67 -8.64 9.34 -10 9 C-4.25 4 -4.25 4 -2 4 C-1.34 2.68 -0.68 1.36 0 0 Z " fill="#B794C5" transform="translate(73,45)"/>
<path d="M0 0 C0 0.66 0 1.32 0 2 C-1.32 2.33 -2.64 2.66 -4 3 C-4 3.66 -4 4.32 -4 5 C-10.96428571 8.34821429 -10.96428571 8.34821429 -15 7 C-12.87767021 5.82823482 -10.75242209 4.66245215 -8.625 3.5 C-7.72007813 2.99919922 -7.72007813 2.99919922 -6.796875 2.48828125 C-2.2265625 0 -2.2265625 0 0 0 Z " fill="#C3A1CE" transform="translate(118,18)"/>
<path d="M0 0 C0.66 0 1.32 0 2 0 C0.95125002 2.62187494 0.35068687 3.79371361 -2.125 5.25 C-2.74375 5.4975 -3.3625 5.745 -4 6 C-4 6.66 -4 7.32 -4 8 C-7.46153846 11 -7.46153846 11 -10 11 C-9.67 10.01 -9.34 9.02 -9 8 C-8.34 8 -7.68 8 -7 8 C-6.67 7.01 -6.34 6.02 -6 5 C-4.33333333 4.33333333 -2.66666667 3.66666667 -1 3 C-0.67 2.01 -0.34 1.02 0 0 Z " fill="#EEDEF4" transform="translate(313,320)"/>
<path d="M0 0 C0.33 0 0.66 0 1 0 C1.226875 1.093125 1.45375 2.18625 1.6875 3.3125 C2.65747195 7.12488211 2.65747195 7.12488211 5.625 8.9375 C6.40875 9.288125 7.1925 9.63875 8 10 C7.67 10.99 7.34 11.98 7 13 C6.67 12.01 6.34 11.02 6 10 C5.236875 9.9175 4.47375 9.835 3.6875 9.75 C1 9 1 9 -0.9375 7.25 C-2 5 -2 5 -1.1875 2.25 C-0.795625 1.5075 -0.40375 0.765 0 0 Z " fill="#F6E4F7" transform="translate(65,253)"/>
<path d="M0 0 C0.33 0 0.66 0 1 0 C1.33 6.27 1.66 12.54 2 19 C0.02 19.99 0.02 19.99 -2 21 C-1.01 10.605 -1.01 10.605 0 0 Z " fill="#DCC4E4" transform="translate(314,195)"/>
<path d="M0 0 C0 2.57705197 -0.16361517 5.00483701 -0.4375 7.5625 C-0.51871094 8.34753906 -0.59992187 9.13257813 -0.68359375 9.94140625 C-1 12 -1 12 -2 14 C-2.66 14 -3.32 14 -4 14 C-4.33 14.66 -4.66 15.32 -5 16 C-3.72093023 3.72093023 -3.72093023 3.72093023 0 0 Z " fill="#E1C9E6" transform="translate(47,129)"/>
<path d="M0 0 C1.53445094 3.06890187 0.54984289 5.70094266 0 9 C0.66 9.33 1.32 9.66 2 10 C0.625 12.5 0.625 12.5 -1 15 C-1.66 15 -2.32 15 -3 15 C-2.88529863 13.24929483 -2.75780972 11.49942464 -2.625 9.75 C-2.55539063 8.77546875 -2.48578125 7.8009375 -2.4140625 6.796875 C-2.01534751 4.10366811 -1.36492937 2.33036721 0 0 Z " fill="#E0CAE9" transform="translate(39,150)"/>
<path d="M0 0 C0.66 0.99 1.32 1.98 2 3 C1.67 3.99 1.34 4.98 1 6 C-0.33333333 6.33333333 -1.66666667 6.66666667 -3 7 C-3.33 7.99 -3.66 8.98 -4 10 C-5.65 10.33 -7.3 10.66 -9 11 C-8.34 10.01 -7.68 9.02 -7 8 C-6.34 8 -5.68 8 -5 8 C-4.731875 7.236875 -4.46375 6.47375 -4.1875 5.6875 C-3.05575888 3.12619116 -2.08776599 1.80307062 0 0 Z " fill="#B994C5" transform="translate(54,63)"/>
<path d="M0 0 C5.94 1.485 5.94 1.485 12 3 C12 3.66 12 4.32 12 5 C13.32 5.33 14.64 5.66 16 6 C9.40770855 6.7013076 5.50623443 4.49602186 0 1 C0 0.67 0 0.34 0 0 Z " fill="#EBD8EF" transform="translate(250,41)"/>
<path d="M0 0 C2.31 0 4.62 0 7 0 C6.67 0.66 6.34 1.32 6 2 C5.34 2 4.68 2 4 2 C4 2.66 4 3.32 4 4 C3.34 4 2.68 4 2 4 C2 4.66 2 5.32 2 6 C-0.5 7.625 -0.5 7.625 -3 9 C-2.01 6.03 -1.02 3.06 0 0 Z " fill="#B391C2" transform="translate(335,340)"/>
<path d="M0 0 C0.66 0 1.32 0 2 0 C2.36428777 1.9147688 2.71605306 3.83192293 3.0625 5.75 C3.25972656 6.81734375 3.45695312 7.8846875 3.66015625 8.984375 C3.97156937 11.74771905 3.8991416 13.40946617 3 16 C2.49193553 14.27318563 1.99389533 12.54342021 1.5 10.8125 C1.08234375 9.36810547 1.08234375 9.36810547 0.65625 7.89453125 C0.03322392 5.14654124 -0.12302812 2.80401584 0 0 Z " fill="#9566AC" transform="translate(295,94)"/>
<path d="M0 0 C0.66 1.32 1.32 2.64 2 4 C-0.25 6.0625 -0.25 6.0625 -3 8 C-5.3125 7.75 -5.3125 7.75 -7 7 C-2.25 1.125 -2.25 1.125 0 0 Z " fill="#9D6EB1" transform="translate(328,308)"/>
<path d="M0 0 C0.66 0 1.32 0 2 0 C3.65 3.96 5.3 7.92 7 12 C6.01 11.67 5.02 11.34 4 11 C4 10.01 4 9.02 4 8 C3.34 8 2.68 8 2 8 C1.67 8.66 1.34 9.32 1 10 C0.67 6.7 0.34 3.4 0 0 Z " fill="#C5A0CF" transform="translate(374,104)"/>
<path d="M0 0 C0.33 0.99 0.66 1.98 1 3 C-0.28965176 4.37562854 -1.62689293 5.70766393 -3 7 C-3.66 7 -4.32 7 -5 7 C-4.67 8.32 -4.34 9.64 -4 11 C-5.65 11.66 -7.3 12.32 -9 13 C-8.690625 12.401875 -8.38125 11.80375 -8.0625 11.1875 C-6.89790296 8.91043228 -6.89790296 8.91043228 -6 6 C-4.37446717 4.29319053 -2.70884005 2.62339805 -1 1 C-0.67 0.67 -0.34 0.34 0 0 Z " fill="#DFC9E6" transform="translate(68,96)"/>
<path d="M0 0 C1.32 0 2.64 0 4 0 C2.83917375 3.48247874 2.09067524 3.88819244 -0.9375 5.75 C-1.64777344 6.19859375 -2.35804688 6.6471875 -3.08984375 7.109375 C-3.72019531 7.40328125 -4.35054688 7.6971875 -5 8 C-5.66 7.67 -6.32 7.34 -7 7 C-5.6875 5.5 -5.6875 5.5 -4 4 C-3.01 4 -2.02 4 -1 4 C-0.67 2.68 -0.34 1.36 0 0 Z " fill="#BD96CB" transform="translate(297,370)"/>
<path d="M0 0 C-0.33 1.32 -0.66 2.64 -1 4 C-2.98 4.33 -4.96 4.66 -7 5 C-7 5.66 -7 6.32 -7 7 C-7.99 6.67 -8.98 6.34 -10 6 C-8.90398831 4.99106869 -7.79786082 3.99311775 -6.6875 3 C-6.07261719 2.443125 -5.45773437 1.88625 -4.82421875 1.3125 C-3 0 -3 0 0 0 Z " fill="#9667AB" transform="translate(318,358)"/>
<path d="M0 0 C0.66 0 1.32 0 2 0 C2.042721 1.66611905 2.04063832 3.33382885 2 5 C1.67 5.33 1.34 5.66 1 6 C0.76807135 7.51469448 0.58784762 9.03754562 0.4375 10.5625 C0.35371094 11.38878906 0.26992188 12.21507812 0.18359375 13.06640625 C0.12300781 13.70449219 0.06242187 14.34257812 0 15 C-0.33 15 -0.66 15 -1 15 C-1.22304441 13.25181409 -1.4278645 11.50129677 -1.625 9.75 C-1.74101562 8.77546875 -1.85703125 7.8009375 -1.9765625 6.796875 C-2.00112537 3.86570607 -1.5312717 2.45471036 0 0 Z " fill="#B78FC8" transform="translate(396,222)"/>
<path d="M0 0 C0.556875 0.226875 1.11375 0.45375 1.6875 0.6875 C-3.9375 5.6875 -3.9375 5.6875 -7.3125 5.6875 C-7.6425 6.3475 -7.9725 7.0075 -8.3125 7.6875 C-8.6425 7.0275 -8.9725 6.3675 -9.3125 5.6875 C-6.95107153 2.1453573 -4.52382785 -0.61132809 0 0 Z " fill="#9D72B4" transform="translate(253.3125,98.3125)"/>
<path d="M0 0 C0 0.66 0 1.32 0 2 C-5.41538462 5.07692308 -5.41538462 5.07692308 -8.375 4.6875 C-8.91125 4.460625 -9.4475 4.23375 -10 4 C-10 3.34 -10 2.68 -10 2 C-3.375 -1.125 -3.375 -1.125 0 0 Z " fill="#9863AC" transform="translate(134,45)"/>
<path d="M0 0 C3.63 0.33 7.26 0.66 11 1 C11 1.33 11 1.66 11 2 C8.03 2 5.06 2 2 2 C2 2.66 2 3.32 2 4 C0.35 4 -1.3 4 -3 4 C-3 3.34 -3 2.68 -3 2 C-2.01 2 -1.02 2 0 2 C0 1.34 0 0.68 0 0 Z " fill="#B188C7" transform="translate(225,394)"/>
<path d="M0 0 C2.64 0.33 5.28 0.66 8 1 C8.33 2.32 8.66 3.64 9 5 C4.545 4.01 4.545 4.01 0 3 C0 2.01 0 1.02 0 0 Z " fill="#A17BB0" transform="translate(129,384)"/>
<path d="M0 0 C0.89203125 0.01804687 1.7840625 0.03609375 2.703125 0.0546875 C3.71632813 0.08949219 3.71632813 0.08949219 4.75 0.125 C4.42 1.445 4.09 2.765 3.75 4.125 C3.42 3.795 3.09 3.465 2.75 3.125 C0.73405418 2.89072222 -1.288474 2.71163876 -3.3125 2.5625 C-4.41722656 2.47871094 -5.52195312 2.39492187 -6.66015625 2.30859375 C-7.51480469 2.24800781 -8.36945313 2.18742187 -9.25 2.125 C-6.03817851 0.21891902 -3.71117397 -0.09766247 0 0 Z " fill="#956AA8" transform="translate(288.25,85.875)"/>
<path d="M0 0 C2.5 1.125 2.5 1.125 5 3 C5.3125 6.1875 5.3125 6.1875 5 9 C4.34 9 3.68 9 3 9 C3 8.01 3 7.02 3 6 C2.34 6 1.68 6 1 6 C0.67 4.02 0.34 2.04 0 0 Z " fill="#E7D7EE" transform="translate(345,120)"/>
<path d="M0 0 C1.27609323 0.90933009 2.54565553 1.82782853 3.8125 2.75 C4.87404297 3.51570313 4.87404297 3.51570313 5.95703125 4.296875 C8.02977691 6.02482358 9.47375854 7.78526476 11 10 C10.443125 9.71125 9.88625 9.4225 9.3125 9.125 C7.00295584 7.91869695 7.00295584 7.91869695 4.375 7.25 C2 6 2 6 0.6875 2.875 C0.460625 1.92625 0.23375 0.9775 0 0 Z " fill="#BE9DCB" transform="translate(326,46)"/>
<path d="M0 0 C-4.88182883 2.75385216 -9.55432314 3.97137215 -15 5 C-13.61147985 2.22295969 -12.03211518 1.96617263 -9.1875 0.8125 C-7.87845703 0.26529297 -7.87845703 0.26529297 -6.54296875 -0.29296875 C-3.85198664 -1.04115271 -2.584628 -0.9458895 0 0 Z " fill="#F0DFF6" transform="translate(273,351)"/>
<path d="M0 0 C0.66 0 1.32 0 2 0 C2 2.31 2 4.62 2 7 C1.34 7 0.68 7 0 7 C0 7.66 0 8.32 0 9 C-0.66 9 -1.32 9 -2 9 C-2 7.02 -2 5.04 -2 3 C-1.34 3 -0.68 3 0 3 C0 2.01 0 1.02 0 0 Z " fill="#8F5EA3" transform="translate(379,277)"/>
<path d="M0 0 C0.99 0 1.98 0 3 0 C4.31626692 3.61973402 5 6.09567131 5 10 C4.34 10 3.68 10 3 10 C2.49596232 8.70990357 1.99690074 7.41786211 1.5 6.125 C1.2215625 5.40570313 0.943125 4.68640625 0.65625 3.9453125 C0 2 0 2 0 0 Z " fill="#A072B6" transform="translate(87,215)"/>
<path d="M0 0 C0.66 0.99 1.32 1.98 2 3 C1.01 3.33 0.02 3.66 -1 4 C-2.20882096 6.00016466 -2.20882096 6.00016466 -3 8 C-3.99 8 -4.98 8 -6 8 C-6 8.66 -6 9.32 -6 10 C-6.66 9.67 -7.32 9.34 -8 9 C-6.38405168 6.95880212 -4.7143618 4.95927063 -3 3 C-2.34 3 -1.68 3 -1 3 C-0.67 2.01 -0.34 1.02 0 0 Z " fill="#E2D1EA" transform="translate(79,83)"/>
<path d="M0 0 C4.29 0 8.58 0 13 0 C13.33 1.98 13.66 3.96 14 6 C13.01 5.67 12.02 5.34 11 5 C10.67 4.01 10.34 3.02 10 2 C6.7 1.67 3.4 1.34 0 1 C0 0.67 0 0.34 0 0 Z " fill="#E6D3EE" transform="translate(283,85)"/>
<path d="M0 0 C1.32 0 2.64 0 4 0 C4.33 1.32 4.66 2.64 5 4 C5.99 3.67 6.98 3.34 8 3 C8.33 4.65 8.66 6.3 9 8 C5.27885429 5.68462045 2.38770339 3.71420527 0 0 Z " fill="#C1A1CE" transform="translate(64,345)"/>
<path d="M0 0 C2.97 0.495 2.97 0.495 6 1 C6 2.32 6 3.64 6 5 C6.66 5.33 7.32 5.66 8 6 C8 6.99 8 7.98 8 9 C7.34 9 6.68 9 6 9 C2 4.52941176 2 4.52941176 2 2 C1.34 2 0.68 2 0 2 C0 1.34 0 0.68 0 0 Z " fill="#9360A7" transform="translate(50,328)"/>
<path d="M0 0 C0.33 0.66 0.66 1.32 1 2 C0.22265625 3.7265625 0.22265625 3.7265625 -0.9375 5.625 C-1.618125 6.73875 -2.29875 7.8525 -3 9 C-3.66 9 -4.32 9 -5 9 C-5.33 9.66 -5.66 10.32 -6 11 C-6 9.68 -6 8.36 -6 7 C-5.34 7 -4.68 7 -4 7 C-3.71125 6.030625 -3.4225 5.06125 -3.125 4.0625 C-2 1 -2 1 0 0 Z " fill="#BD9CCB" transform="translate(367,306)"/>
<path d="M0 0 C0.33 0 0.66 0 1 0 C1 1.65 1 3.3 1 5 C0.01 5.33 -0.98 5.66 -2 6 C-3.22520264 9.00847418 -3.22520264 9.00847418 -4 12 C-4.6875 10.3125 -4.6875 10.3125 -5 8 C-3.6875 5.25 -3.6875 5.25 -2 3 C-1.34 3 -0.68 3 0 3 C0 2.01 0 1.02 0 0 Z " fill="#DAC4E2" transform="translate(349,273)"/>
<path d="M0 0 C1.75 0.25 1.75 0.25 4 1 C5.546875 1.433125 5.546875 1.433125 7.125 1.875 C10 3 10 3 12 6 C10.68 6 9.36 6 8 6 C8 5.34 8 4.68 8 4 C4.7 3.34 1.4 2.68 -2 2 C-1.34 1.34 -0.68 0.68 0 0 Z " fill="#A378B6" transform="translate(254,40)"/>
<path d="M0 0 C2.875 0.3125 2.875 0.3125 6 1 C6.66 1.99 7.32 2.98 8 4 C8.99 4.66 9.98 5.32 11 6 C7.23312136 6 6.08809695 5.76462683 3 4 C3 3.34 3 2.68 3 2 C2.01 1.67 1.02 1.34 0 1 C0 0.67 0 0.34 0 0 Z " fill="#C4A7D3" transform="translate(82,360)"/>
<path d="M0 0 C1.23086034 3.69258103 0.66728638 4.58206293 -1 8 C-2.5 10.3125 -2.5 10.3125 -4 12 C-4.66 12 -5.32 12 -6 12 C-4.66355783 8.40188648 -3.0247216 5.25716084 -1 2 C-0.67 1.34 -0.34 0.68 0 0 Z " fill="#A075B6" transform="translate(347,279)"/>
<path d="M0 0 C1.32 0.66 2.64 1.32 4 2 C4 2.99 4 3.98 4 5 C3.34 5 2.68 5 2 5 C1.67 5.99 1.34 6.98 1 8 C-0.42944945 5.64561267 -1.08661261 4.51967567 -0.625 1.75 C-0.41875 1.1725 -0.2125 0.595 0 0 Z " fill="#ECDCF3" transform="translate(54,278)"/>
<path d="M0 0 C0.95465783 2.16967689 1.14401212 3.56328793 0.3984375 5.82421875 C-0.35870385 7.5684743 -1.17609198 9.28627131 -2 11 C-2.66 10.67 -3.32 10.34 -4 10 C-3.67 7.69 -3.34 5.38 -3 3 C-2.01 3 -1.02 3 0 3 C0 2.01 0 1.02 0 0 Z " fill="#B797C7" transform="translate(384,272)"/>
<path d="M0 0 C0.56203125 0.14308594 1.1240625 0.28617187 1.703125 0.43359375 C4.04545453 1.01120902 6.39417659 1.54283307 8.75 2.0625 C9.54921875 2.23910156 10.3484375 2.41570312 11.171875 2.59765625 C11.77515625 2.73042969 12.3784375 2.86320312 13 3 C13 3.33 13 3.66 13 4 C7.78020872 4.1799928 3.92737019 3.97094808 -1 2 C-0.67 1.34 -0.34 0.68 0 0 Z " fill="#9560AD" transform="translate(143,257)"/>
<path d="M0 0 C0.66 0 1.32 0 2 0 C3.3271261 3.9813783 3.06915913 7.85045227 3 12 C2.67 12 2.34 12 2 12 C2 10.35 2 8.7 2 7 C1.34 7 0.68 7 0 7 C0 4.69 0 2.38 0 0 Z " fill="#925FA9" transform="translate(5,231)"/>
<path d="M0 0 C0.66 0 1.32 0 2 0 C3.125 2.3125 3.125 2.3125 4 5 C3.01 6.485 3.01 6.485 2 8 C0.68 7.67 -0.64 7.34 -2 7 C-1.67 6.34 -1.34 5.68 -1 5 C-0.34 5 0.32 5 1 5 C0.67 3.35 0.34 1.7 0 0 Z " fill="#A275B8" transform="translate(100,129)"/>
<path d="M0 0 C1.65 0 3.3 0 5 0 C2.62949916 2.62002725 0.12723983 4.35819909 -3 6 C-3.99 6 -4.98 6 -6 6 C-5.67 5.01 -5.34 4.02 -5 3 C-2.4375 1.8125 -2.4375 1.8125 0 1 C0 0.67 0 0.34 0 0 Z " fill="#EFDCF0" transform="translate(252,95)"/>
<path d="M0 0 C4.875 1.75 4.875 1.75 6 4 C5.67 4.66 5.34 5.32 5 6 C3 5 1 4 -1 3 C-0.67 2.01 -0.34 1.02 0 0 Z " fill="#A57CB7" transform="translate(93,365)"/>
<path d="M0 0 C0.33 0 0.66 0 1 0 C1 1.98 1 3.96 1 6 C-0.65 6.66 -2.3 7.32 -4 8 C-2.25 2.25 -2.25 2.25 0 0 Z " fill="#BB97CA" transform="translate(26,102)"/>
<path d="M0 0 C0.33 0.66 0.66 1.32 1 2 C1.99 2 2.98 2 4 2 C4 2.66 4 3.32 4 4 C0.04 4 -3.92 4 -8 4 C-8 3.67 -8 3.34 -8 3 C-6.02 3 -4.04 3 -2 3 C-2 2.34 -2 1.68 -2 1 C-1.34 0.67 -0.68 0.34 0 0 Z " fill="#F6EEF8" transform="translate(290,81)"/>
<path d="M0 0 C0.66 0.99 1.32 1.98 2 3 C1.34 3 0.68 3 0 3 C-0.33 4.32 -0.66 5.64 -1 7 C-2.65 7 -4.3 7 -6 7 C-5.67 6.34 -5.34 5.68 -5 5 C-4.34 5 -3.68 5 -3 5 C-2.67 4.01 -2.34 3.02 -2 2 C-1.34 2 -0.68 2 0 2 C0 1.34 0 0.68 0 0 Z " fill="#B38AC4" transform="translate(61,56)"/>
<path d="M0 0 C1.32 0.66 2.64 1.32 4 2 C3.34 2 2.68 2 2 2 C2 2.66 2 3.32 2 4 C1.34 4 0.68 4 0 4 C0 4.66 0 5.32 0 6 C-1.32 6.33 -2.64 6.66 -4 7 C-3.67 5.68 -3.34 4.36 -3 3 C-2.01 3 -1.02 3 0 3 C0 2.01 0 1.02 0 0 Z " fill="#B88DC8" transform="translate(327,349)"/>
<path d="M0 0 C0.99 0.33 1.98 0.66 3 1 C3 1.66 3 2.32 3 3 C3.99 3 4.98 3 6 3 C6.33 3.99 6.66 4.98 7 6 C5.35 6.33 3.7 6.66 2 7 C1.34 4.69 0.68 2.38 0 0 Z " fill="#AC79C1" transform="translate(99,334)"/>
<path d="M0 0 C0.33 0.99 0.66 1.98 1 3 C-0.62339805 4.70884005 -2.29319053 6.37446717 -4 8 C-4.66 8 -5.32 8 -6 8 C-4.55746343 4.63408134 -2.66735273 2.48952921 0 0 Z " fill="#F2E4F6" transform="translate(323,310)"/>
<path d="M0 0 C1.98 0 3.96 0 6 0 C5.34 2.64 4.68 5.28 4 8 C2.66666667 5.33333333 1.33333333 2.66666667 0 0 Z " fill="#E7DBEE" transform="translate(307,149)"/>
<path d="M0 0 C0.75 1.6875 0.75 1.6875 1 4 C-0.9375 6.75 -0.9375 6.75 -3 9 C-3.66 8.67 -4.32 8.34 -5 8 C-2.25 2.25 -2.25 2.25 0 0 Z " fill="#A077B5" transform="translate(97,138)"/>
<path d="M0 0 C0.66 0.33 1.32 0.66 2 1 C-0.75 7.875 -0.75 7.875 -3 9 C-3.26218749 5.85375007 -3.24754367 4.38162983 -1.5 1.6875 C-1.005 1.130625 -0.51 0.57375 0 0 Z " fill="#9568A8" transform="translate(49,121)"/>
<path d="M0 0 C2.35171131 0.59861742 4.6859378 1.26924352 7 2 C7.33 2.66 7.66 3.32 8 4 C6.02 4.33 4.04 4.66 2 5 C1.34 3.35 0.68 1.7 0 0 Z " fill="#EAD6F2" transform="translate(278,53)"/>
<path d="M0 0 C5.75 1.625 5.75 1.625 8 5 C5.36 4.67 2.72 4.34 0 4 C0 2.68 0 1.36 0 0 Z " fill="#C8A9D2" transform="translate(290,22)"/>
<path d="M0 0 C0 0.66 0 1.32 0 2 C-1.45635371 2.22174933 -2.91522956 2.42698698 -4.375 2.625 C-5.18710938 2.74101563 -5.99921875 2.85703125 -6.8359375 2.9765625 C-7.55007812 2.98429688 -8.26421875 2.99203125 -9 3 C-9.66 2.34 -10.32 1.68 -11 1 C-7.27569643 0.30710631 -3.78916254 -0.11144596 0 0 Z " fill="#BA98C9" transform="translate(167,4)"/>
<path d="M0 0 C0.86625 0.4640625 0.86625 0.4640625 1.75 0.9375 C3.91340309 2.09252028 3.91340309 2.09252028 6.125 2.3125 C8 3 8 3 9.25 5.5625 C9.4975 6.366875 9.745 7.17125 10 8 C6.05205855 6.32971708 3.18203882 3.8204435 0 1 C0 0.67 0 0.34 0 0 Z " fill="#DCC2E4" transform="translate(88,325)"/>
<path d="M0 0 C2.97 1.65 5.94 3.3 9 5 C8.67 5.66 8.34 6.32 8 7 C4.5625 5.75 4.5625 5.75 1 4 C0.67 2.68 0.34 1.36 0 0 Z " fill="#D9BCE6" transform="translate(105,243)"/>
<path d="M0 0 C-0.33 0.99 -0.66 1.98 -1 3 C-3.31 3.33 -5.62 3.66 -8 4 C-8 3.01 -8 2.02 -8 1 C-2.25 0 -2.25 0 0 0 Z " fill="#B08BC1" transform="translate(283,380)"/>
<path d="M0 0 C1.65 0 3.3 0 5 0 C4.34 1.32 3.68 2.64 3 4 C2.34 4 1.68 4 1 4 C0.67 4.66 0.34 5.32 0 6 C0 4.02 0 2.04 0 0 Z " fill="#B88FC6" transform="translate(350,325)"/>
<path d="M0 0 C0.66 0 1.32 0 2 0 C0.50163895 3.11198065 -1.19933758 6.0534615 -3 9 C-3.625 7.1875 -3.625 7.1875 -4 5 C-3.34 4.01 -2.68 3.02 -2 2 C-1.34 2 -0.68 2 0 2 C0 1.34 0 0.68 0 0 Z " fill="#F2E1F7" transform="translate(339,289)"/>
<path d="M0 0 C0.66 0 1.32 0 2 0 C1.47731534 2.76276177 0.89130413 5.3260876 0 8 C-0.66 8 -1.32 8 -2 8 C-1.125 1.125 -1.125 1.125 0 0 Z " fill="#F4E6F8" transform="translate(150,278)"/>
<path d="M0 0 C1.46726798 3.81489674 0.43336419 6.29011622 -1 10 C-1.33 10 -1.66 10 -2 10 C-2.1953125 3.9453125 -2.1953125 3.9453125 -2 2 C-1.34 1.34 -0.68 0.68 0 0 Z " fill="#E8D8F1" transform="translate(312,216)"/>
<path d="M0 0 C4 4.625 4 4.625 4 8 C2.02 7.01 0.04 6.02 -2 5 C-2 4.34 -2 3.68 -2 3 C-1.34 3 -0.68 3 0 3 C0 2.01 0 1.02 0 0 Z " fill="#E5D1EC" transform="translate(341,110)"/>
<path d="M0 0 C-0.66 1.32 -1.32 2.64 -2 4 C-4.31 4 -6.62 4 -9 4 C-8 2 -8 2 -5.625 0.875 C-3 0 -3 0 0 0 Z " fill="#9B70B3" transform="translate(266,92)"/>
<path d="M0 0 C4.875 4.625 4.875 4.625 6 8 C4.68 7.67 3.36 7.34 2 7 C1.34 4.69 0.68 2.38 0 0 Z " fill="#E6D1ED" transform="translate(324,88)"/>
<path d="M0 0 C1 3 1 3 0.0625 5.1875 C-0.4634375 6.0846875 -0.4634375 6.0846875 -1 7 C-1.99 6.67 -2.98 6.34 -4 6 C-2.25 1.125 -2.25 1.125 0 0 Z " fill="#A574B4" transform="translate(47,73)"/>
<path d="M0 0 C-0.99 0.33 -1.98 0.66 -3 1 C-3 1.66 -3 2.32 -3 3 C-5.64 2.67 -8.28 2.34 -11 2 C-11 1.67 -11 1.34 -11 1 C-7.26562152 0.12132271 -3.83225427 -0.08912219 0 0 Z " fill="#915FA3" transform="translate(248,391)"/>
<path d="M0 0 C2 1.75 2 1.75 4 4 C4 5.32 4 6.64 4 8 C3.01 7.67 2.02 7.34 1 7 C0.67 4.69 0.34 2.38 0 0 Z " fill="#A77EBD" transform="translate(39,313)"/>
<path d="M0 0 C2.475 0.495 2.475 0.495 5 1 C5 2.32 5 3.64 5 5 C5.66 5.33 6.32 5.66 7 6 C6.01 6 5.02 6 4 6 C1.8125 3 1.8125 3 0 0 Z " fill="#E9D6EF" transform="translate(98,268)"/>
<path d="M0 0 C0.33 0.99 0.66 1.98 1 3 C1.66 3 2.32 3 3 3 C2.67 5.31 2.34 7.62 2 10 C-0.4294516 6.3558226 -0.16179575 4.28758728 0 0 Z " fill="#9360A4" transform="translate(391,152)"/>
<path d="M0 0 C3.00617269 3.00617269 2.59585316 5.82381598 3 10 C2.34 9.67 1.68 9.34 1 9 C0.5859375 6.93359375 0.5859375 6.93359375 0.375 4.4375 C0.30023438 3.61121094 0.22546875 2.78492188 0.1484375 1.93359375 C0.09945313 1.29550781 0.05046875 0.65742188 0 0 Z " fill="#F3E5F8" transform="translate(358,150)"/>
<path d="M0 0 C1.875 0.25 1.875 0.25 4 1 C5.3125 2.875 5.3125 2.875 6 5 C5.67 5.99 5.34 6.98 5 8 C4.731875 7.195625 4.46375 6.39125 4.1875 5.5625 C3.795625 4.716875 3.40375 3.87125 3 3 C2.01 2.67 1.02 2.34 0 2 C0 1.34 0 0.68 0 0 Z " fill="#966AAE" transform="translate(298,138)"/>
<path d="M0 0 C2.97 0.495 2.97 0.495 6 1 C5.67 1.66 5.34 2.32 5 3 C2.36 3 -0.28 3 -3 3 C-2.01 2.67 -1.02 2.34 0 2 C0 1.34 0 0.68 0 0 Z " fill="#9261A3" transform="translate(154,6)"/>
<path d="M0 0 C-0.99 0.495 -0.99 0.495 -2 1 C-2.33 1.66 -2.66 2.32 -3 3 C-4.65 3 -6.3 3 -8 3 C-5.45189726 -0.82215411 -4.39145359 -1.46381786 0 0 Z " fill="#8F61A2" transform="translate(286,378)"/>
<path d="M0 0 C1 3 1 3 0.0625 5.1875 C-0.4634375 6.0846875 -0.4634375 6.0846875 -1 7 C-1.99 7 -2.98 7 -4 7 C-3.6875 4.625 -3.6875 4.625 -3 2 C-2.01 1.34 -1.02 0.68 0 0 Z " fill="#9562A9" transform="translate(333,343)"/>
<path d="M0 0 C0.99 0 1.98 0 3 0 C3.66 2.31 4.32 4.62 5 7 C3 7 3 7 1.375 5.75 C0 4 0 4 0 0 Z " fill="#9468AA" transform="translate(18,278)"/>
<path d="M0 0 C0.99 0.33 1.98 0.66 3 1 C4.1875 4.0625 4.1875 4.0625 5 7 C3.0625 6.3125 3.0625 6.3125 1 5 C0.25 2.375 0.25 2.375 0 0 Z " fill="#EBD6F0" transform="translate(42,257)"/>
<path d="M0 0 C0 0.99 0 1.98 0 3 C-0.99 3.66 -1.98 4.32 -3 5 C-1.125 1.125 -1.125 1.125 0 0 Z M-7 5 C-5.02 5.495 -5.02 5.495 -3 6 C-4.65 6.66 -6.3 7.32 -8 8 C-7.67 7.01 -7.34 6.02 -7 5 Z " fill="#905FA4" transform="translate(70,50)"/>
<path d="M0 0 C3.465 1.485 3.465 1.485 7 3 C6.34 3.66 5.68 4.32 5 5 C2.875 4.625 2.875 4.625 1 4 C0.67 2.68 0.34 1.36 0 0 Z " fill="#E6D7EE" transform="translate(268,47)"/>
<path d="M0 0 C-2.38573379 1.89213369 -4.07175348 3.02391783 -7 4 C-7.66 3.34 -8.32 2.68 -9 2 C-8.34 2 -7.68 2 -7 2 C-7 1.34 -7 0.68 -7 0 C-2.25 -1.125 -2.25 -1.125 0 0 Z " fill="#DBBEE3" transform="translate(141,45)"/>
<path d="M0 0 C1.67542976 0.28604898 3.34385343 0.61781233 5 1 C5 1.66 5 2.32 5 3 C5.99 3.33 6.98 3.66 8 4 C4.26512223 3.5020163 2.18762365 3.12508244 -1 1 C-0.67 0.67 -0.34 0.34 0 0 Z " fill="#9365A7" transform="translate(275,17)"/>
<path d="M0 0 C0.99 0 1.98 0 3 0 C3 0.66 3 1.32 3 2 C4.65 2.33 6.3 2.66 8 3 C7.01 3.66 6.02 4.32 5 5 C5 4.34 5 3.68 5 3 C3.02 3 1.04 3 -1 3 C-0.67 2.01 -0.34 1.02 0 0 Z " fill="#BF99CC" transform="translate(269,13)"/>
</svg>
