<?xml version="1.0" encoding="UTF-8"?>
<svg version="1.1" xmlns="http://www.w3.org/2000/svg" width="1024" height="1024">
<path d="M0 0 C4.02507897 -0.00072072 8.05015473 -0.00281398 12.07523274 -0.00549722 C25.5095666 -0.01426314 38.94389263 -0.01892369 52.37822937 -0.01816674 C53.09539974 -0.01812679 53.8125701 -0.01808683 54.5514729 -0.01804566 C55.62862852 -0.01798434 55.62862852 -0.01798434 56.72754485 -0.01792178 C68.29221494 -0.01751775 79.8568521 -0.02703657 91.42151272 -0.04118403 C103.4552848 -0.05578234 115.4890411 -0.0624415 127.5228222 -0.06159025 C134.21442501 -0.0612659 140.90598604 -0.06387536 147.59758306 -0.0747683 C175.69872491 -0.11727936 203.76499127 0.14785633 231.84981275 1.09572387 C233.70668346 1.15805282 233.70668346 1.15805282 235.60106671 1.22164094 C257.95657518 1.98890546 280.25564233 3.23479525 302.54097486 5.16725707 C303.38664014 5.2400891 304.23230542 5.31292113 305.10359693 5.3879602 C379.92880833 11.884982 455.58717774 31.4121879 512.04488111 83.85475707 C514.25664057 85.90383626 516.50519762 87.88925188 518.79097486 89.85475707 C525.24538292 95.49745459 530.7889271 101.53705775 536.15816236 108.22585082 C537.73983505 110.17830908 539.34930613 112.10858853 540.98628736 114.01491332 C579.74948788 159.15763745 599.54588348 221.37534976 599.74409986 280.36256957 C599.74692723 281.02736201 599.74975461 281.69215446 599.75266767 282.37709212 C599.76756133 285.90724859 599.77684819 289.43736535 599.78120923 292.96755004 C599.78555888 295.82575531 599.79932698 298.68365276 599.82222486 301.54176879 C600.00093803 324.33799064 599.00677575 346.76146186 593.72847486 369.04225707 C593.47130689 370.16027709 593.21413892 371.27829711 592.94917798 372.43019652 C590.64874454 382.18814823 587.8371404 391.70356989 584.54097486 401.16725707 C584.2175813 402.13187865 584.2175813 402.13187865 583.88765454 403.11598754 C573.03774616 435.390715 555.12179187 465.76808244 532.54097486 491.16725707 C532.04009351 491.75208861 531.53921216 492.33692016 531.02315259 492.93947387 C518.92406645 507.01644834 505.61984646 520.3082868 490.54097486 531.16725707 C489.42938261 531.99545725 488.31871793 532.82490374 487.20894361 533.65553832 C478.03870108 540.44230832 468.38707628 546.41641695 458.54097486 552.16725707 C457.92174146 552.53061156 457.30250806 552.89396605 456.66451001 553.26833129 C438.01441796 564.07555523 417.58691886 571.18322714 397.02266431 577.3645227 C396.20370679 577.62942504 395.38474927 577.89432738 394.54097486 578.16725707 C393.2577937 578.50176879 393.2577937 578.50176879 391.9486897 578.84303832 C388.51338215 580.73242264 387.44232227 583.50652419 385.90425611 586.94850707 C385.58344571 587.62942916 385.26263532 588.31035125 384.9321034 589.01190734 C384.24731694 590.46867962 383.56967983 591.92883026 382.89857984 593.391958 C381.1471389 597.20502178 379.33801237 600.99067478 377.53706861 604.78053832 C377.18630261 605.52237868 376.83553662 606.26421905 376.47414136 607.02853942 C365.99053752 629.15147492 352.65500669 649.93383171 337.54097486 669.16725707 C336.83585767 670.07346801 336.13074048 670.97967895 335.40425611 671.91335082 C323.85458304 686.55543128 311.44037063 700.32860596 298.29097486 713.54225707 C297.64169019 714.19621459 296.99240552 714.85017211 296.32344556 715.52394652 C291.89291333 719.93985467 287.30074456 724.10957668 282.54097486 728.16725707 C281.58384595 728.98444213 281.58384595 728.98444213 280.60738111 729.81813598 C258.92793279 748.18544636 235.64584781 763.86522917 210.54097486 777.16725707 C209.31483472 777.82226195 209.31483472 777.82226195 208.06392407 778.49049926 C151.49358159 808.48714202 86.55138826 822.21937542 22.77144361 822.37038207 C21.94503181 822.37320945 21.11862 822.37603683 20.26716542 822.37894988 C15.87723101 822.39383162 11.48732841 822.40312549 7.09737134 822.40749145 C3.55201696 822.41183614 0.00691143 822.42558694 -3.53837085 822.44850707 C-33.08466295 822.63538803 -62.41907449 821.654735 -91.58402514 816.47975707 C-92.3095357 816.35475829 -93.03504626 816.22975951 -93.78254199 816.10097289 C-133.57295801 809.21358487 -171.76471136 796.81371546 -207.63236499 778.11745238 C-209.45031439 777.17178825 -211.27632386 776.24326852 -213.10355639 775.31569457 C-234.50054976 764.32449913 -254.58634352 750.52298334 -272.67191577 734.68337035 C-274.04092927 733.52195316 -275.43521575 732.39026861 -276.83988452 731.27223754 C-283.82085319 725.7068402 -290.19694215 719.73982199 -296.47562671 713.4113977 C-298.08249821 711.7937942 -299.69981009 710.18718794 -301.31840014 708.58131957 C-307.82140899 702.08655855 -313.74329301 695.37294296 -319.45902514 688.16725707 C-320.3222482 687.13956825 -321.19065334 686.11616304 -322.06840014 685.10085082 C-379.95326089 617.60372305 -408.26061673 529.07106339 -424.77469897 313.18459105 C-424.77002062 308.85440861 -424.77719076 304.52450392 -424.79520679 300.19435668 C-424.98964984 252.94294237 -424.98964984 252.94294237 -421.45902514 231.16725707 C-421.34080401 230.41608611 -421.22258288 229.66491515 -421.10077929 228.89098144 C-420.42850279 224.72340159 -419.61685658 220.60183625 -418.70902514 216.47975707 C-418.45153491 215.2831848 -418.19404468 214.08661254 -417.92875171 212.85378051 C-405.17833582 155.13251002 -376.24534571 101.26734721 -329.45902514 64.16725707 C-328.46902514 63.37190551 -327.47902514 62.57655395 -326.45902514 61.75710082 C-297.09875698 38.59918931 -262.84488523 22.634537 -226.45902514 14.16725707 C-225.66415698 13.97969848 -224.86928882 13.79213988 -224.05033374 13.5988977 C-186.71353382 5.04270859 -146.85188915 3.83498609 -108.70902514 2.04225707 C-107.48927493 1.9843399 -107.48927493 1.9843399 -106.2448833 1.92525268 C-99.98427313 1.63349207 -93.72214718 1.39778924 -87.45902514 1.16725707 C-86.37076088 1.12579055 -85.28249661 1.08432403 -84.16125464 1.04160094 C-56.11170556 0.00448194 -28.06549373 0.00283651 0 0 Z " fill="#FEFEFE" transform="translate(424.459025144577,95.83274292945862)"/>
<path d="M0 0 C4.02507897 -0.00072072 8.05015473 -0.00281398 12.07523274 -0.00549722 C25.5095666 -0.01426314 38.94389263 -0.01892369 52.37822937 -0.01816674 C53.09539974 -0.01812679 53.8125701 -0.01808683 54.5514729 -0.01804566 C55.62862852 -0.01798434 55.62862852 -0.01798434 56.72754485 -0.01792178 C68.29221494 -0.01751775 79.8568521 -0.02703657 91.42151272 -0.04118403 C103.4552848 -0.05578234 115.4890411 -0.0624415 127.5228222 -0.06159025 C134.21442501 -0.0612659 140.90598604 -0.06387536 147.59758306 -0.0747683 C175.69872491 -0.11727936 203.76499127 0.14785633 231.84981275 1.09572387 C233.70668346 1.15805282 233.70668346 1.15805282 235.60106671 1.22164094 C257.95657518 1.98890546 280.25564233 3.23479525 302.54097486 5.16725707 C303.38664014 5.2400891 304.23230542 5.31292113 305.10359693 5.3879602 C379.92880833 11.884982 455.58717774 31.4121879 512.04488111 83.85475707 C514.25664057 85.90383626 516.50519762 87.88925188 518.79097486 89.85475707 C525.24538292 95.49745459 530.7889271 101.53705775 536.15816236 108.22585082 C537.73983505 110.17830908 539.34930613 112.10858853 540.98628736 114.01491332 C579.74948788 159.15763745 599.54588348 221.37534976 599.74409986 280.36256957 C599.74692723 281.02736201 599.74975461 281.69215446 599.75266767 282.37709212 C599.76756133 285.90724859 599.77684819 289.43736535 599.78120923 292.96755004 C599.78555888 295.82575531 599.79932698 298.68365276 599.82222486 301.54176879 C600.00093803 324.33799064 599.00677575 346.76146186 593.72847486 369.04225707 C593.47130689 370.16027709 593.21413892 371.27829711 592.94917798 372.43019652 C590.64874454 382.18814823 587.8371404 391.70356989 584.54097486 401.16725707 C584.2175813 402.13187865 584.2175813 402.13187865 583.88765454 403.11598754 C573.03774616 435.390715 555.12179187 465.76808244 532.54097486 491.16725707 C532.04009351 491.75208861 531.53921216 492.33692016 531.02315259 492.93947387 C518.92406645 507.01644834 505.61984646 520.3082868 490.54097486 531.16725707 C489.42938261 531.99545725 488.31871793 532.82490374 487.20894361 533.65553832 C478.03870108 540.44230832 468.38707628 546.41641695 458.54097486 552.16725707 C457.92174146 552.53061156 457.30250806 552.89396605 456.66451001 553.26833129 C438.01441796 564.07555523 417.58691886 571.18322714 397.02266431 577.3645227 C396.20370679 577.62942504 395.38474927 577.89432738 394.54097486 578.16725707 C393.2577937 578.50176879 393.2577937 578.50176879 391.9486897 578.84303832 C388.51338215 580.73242264 387.44232227 583.50652419 385.90425611 586.94850707 C385.58344571 587.62942916 385.26263532 588.31035125 384.9321034 589.01190734 C384.24731694 590.46867962 383.56967983 591.92883026 382.89857984 593.391958 C381.1471389 597.20502178 379.33801237 600.99067478 377.53706861 604.78053832 C377.18630261 605.52237868 376.83553662 606.26421905 376.47414136 607.02853942 C365.99053752 629.15147492 352.65500669 649.93383171 337.54097486 669.16725707 C336.83585767 670.07346801 336.13074048 670.97967895 335.40425611 671.91335082 C323.85458304 686.55543128 311.44037063 700.32860596 298.29097486 713.54225707 C297.64169019 714.19621459 296.99240552 714.85017211 296.32344556 715.52394652 C291.89291333 719.93985467 287.30074456 724.10957668 282.54097486 728.16725707 C281.58384595 728.98444213 281.58384595 728.98444213 280.60738111 729.81813598 C258.92793279 748.18544636 235.64584781 763.86522917 210.54097486 777.16725707 C209.31483472 777.82226195 209.31483472 777.82226195 208.06392407 778.49049926 C151.49358159 808.48714202 86.55138826 822.21937542 22.77144361 822.37038207 C21.94503181 822.37320945 21.11862 822.37603683 20.26716542 822.37894988 C15.87723101 822.39383162 11.48732841 822.40312549 7.09737134 822.40749145 C3.55201696 822.41183614 0.00691143 822.42558694 -3.53837085 822.44850707 C-33.08466295 822.63538803 -62.41907449 821.654735 -91.58402514 816.47975707 C-92.3095357 816.35475829 -93.03504626 816.22975951 -93.78254199 816.10097289 C-133.57295801 809.21358487 -171.76471136 796.81371546 -207.63236499 778.11745238 C-209.45031439 777.17178825 -211.27632386 776.24326852 -213.10355639 775.31569457 C-234.50054976 764.32449913 -254.58634352 750.52298334 -272.67191577 734.68337035 C-274.04092927 733.52195316 -275.43521575 732.39026861 -276.83988452 731.27223754 C-283.82085319 725.7068402 -290.19694215 719.73982199 -296.47562671 713.4113977 C-298.08249821 711.7937942 -299.69981009 710.18718794 -301.31840014 708.58131957 C-307.82140899 702.08655855 -313.74329301 695.37294296 -319.45902514 688.16725707 C-320.3222482 687.13956825 -321.19065334 686.11616304 -322.06840014 685.10085082 C-379.95326089 617.60372305 -408.26061673 529.07106339 -424.77469897 313.18459105 C-424.77002062 308.85440861 -424.77719076 304.52450392 -424.79520679 300.19435668 C-424.98964984 252.94294237 -424.98964984 252.94294237 -421.45902514 231.16725707 C-421.34080401 230.41608611 -421.22258288 229.66491515 -421.10077929 228.89098144 C-420.42850279 224.72340159 -419.61685658 220.60183625 -418.70902514 216.47975707 C-418.45153491 215.2831848 -418.19404468 214.08661254 -417.92875171 212.85378051 C-405.17833582 155.13251002 -376.24534571 101.26734721 -329.45902514 64.16725707 C-328.46902514 63.37190551 -327.47902514 62.57655395 -326.45902514 61.75710082 C-297.09875698 38.59918931 -262.84488523 22.634537 -226.45902514 14.16725707 C-225.66415698 13.97969848 -224.86928882 13.79213988 -224.05033374 13.5988977 C-186.71353382 5.04270859 -146.85188915 3.83498609 -108.70902514 2.04225707 C-107.48927493 1.9843399 -107.48927493 1.9843399 -106.2448833 1.92525268 C-99.98427313 1.63349207 -93.72214718 1.39778924 -87.45902514 1.16725707 C-86.37076088 1.12579055 -85.28249661 1.08432403 -84.16125464 1.04160094 C-56.11170556 0.00448194 -28.06549373 0.00283651 0 0 Z M-104.23636889 66.99928832 C-105.62618342 67.06144833 -105.62618342 67.06144833 -107.04407501 67.1248641 C-127.8565162 68.06111312 -148.51990622 69.45044657 -169.2235229 71.81557822 C-173.93301405 72.32747044 -178.64958802 72.75045813 -183.36809707 73.16987872 C-210.70878203 75.70578675 -236.32635441 83.08624503 -260.45902514 96.16725707 C-261.50445483 96.73186645 -262.54988452 97.29647582 -263.62699389 97.87819457 C-275.41393737 104.51126976 -286.01377966 112.35508371 -295.79886889 121.66725707 C-297.93993487 123.67941893 -300.10796069 125.52008327 -302.39652514 127.35475707 C-337.42797596 157.87071942 -353.34598044 208.72669563 -358.45902514 253.16725707 C-358.53917645 253.79772791 -358.61932775 254.42819875 -358.70190787 255.07777476 C-359.34573822 260.38066578 -359.60271663 265.57593944 -359.58841968 270.91457152 C-359.590172 271.73897735 -359.59192431 272.56338317 -359.59372973 273.41277099 C-359.5981018 276.11871539 -359.59522148 278.82459333 -359.59183764 281.53053832 C-359.59251323 283.44599967 -359.59348536 285.36146093 -359.59473681 287.27692199 C-359.59620857 291.29563246 -359.59408054 295.31432068 -359.58939624 299.33302855 C-359.58377155 304.39685542 -359.58703638 309.46062895 -359.5928266 314.52445388 C-359.62001293 342.3380494 -359.34130072 370.06049647 -357.21171069 397.80788207 C-357.01856947 400.33086682 -356.8349684 402.85442581 -356.65238452 405.37819457 C-355.48362539 421.22759919 -353.84695007 436.93606243 -351.14652514 452.60475707 C-350.92851245 453.88117064 -350.71049975 455.15758422 -350.48588061 456.47267699 C-350.03600259 459.09722932 -349.58083807 461.72072257 -349.12357593 464.34401488 C-348.69429502 466.81372059 -348.27040741 469.28437259 -347.85306811 471.75612426 C-345.06989441 488.23232687 -341.38826349 504.19836561 -336.45902514 520.16725707 C-336.15093921 521.16853637 -335.84285327 522.16981566 -335.52543139 523.20143676 C-321.56915675 567.98023083 -299.91353122 610.34149392 -269.45902514 646.16725707 C-268.57292033 647.2383027 -267.68754363 648.30995101 -266.80277514 649.38210082 C-256.62261892 661.61117016 -245.60018 673.30072177 -233.04886889 683.12428832 C-231.31559814 684.49155922 -229.61935917 685.90705667 -227.96293139 687.36647582 C-213.20260655 700.32728356 -195.94362223 711.2378627 -178.45902514 720.16725707 C-177.6264519 720.59313109 -176.79387866 721.01900512 -175.93607593 721.45778441 C-121.12439968 749.1830379 -62.26333028 757.82604872 -1.42997241 757.48982787 C1.88103606 757.47633325 5.1919119 757.48168714 8.50293565 757.48667502 C32.78460343 757.5146068 56.6299928 756.58480985 80.60347486 752.41725707 C81.36846295 752.28653808 82.13345105 752.15581908 82.92162061 752.02113891 C141.47016695 741.96535364 198.30333218 717.10181909 242.10347486 676.42116332 C244.16941672 674.51082926 246.27048064 672.67395737 248.41597486 670.85475707 C257.0632996 663.33069307 265.23975216 655.00010083 272.54097486 646.16725707 C273.21265698 645.36626586 273.21265698 645.36626586 273.89790845 644.54909301 C304.27111355 608.27187198 327.45675853 566.35800416 341.54097486 521.16725707 C342.27670728 521.11899779 343.0124397 521.07073852 343.77046704 521.02101684 C397.10374127 517.11143823 448.23566397 489.49455285 483.12447095 449.34499145 C486.41688405 445.39797803 489.50669791 441.31446913 492.54097486 437.16725707 C493.65665845 435.66872191 493.65665845 435.66872191 494.79488111 434.13991332 C516.33058159 404.2056749 528.3253332 370.43231705 533.54097486 334.16725707 C533.8046687 332.66400878 533.8046687 332.66400878 534.0736897 331.13039184 C534.72653262 325.59350617 534.74407368 320.09778241 534.77925611 314.52663207 C534.78732785 313.29100524 534.7953996 312.05537841 534.80371594 310.78230834 C534.81752987 308.15982489 534.82826402 305.53732367 534.83614087 302.91481566 C534.84754183 300.28552863 534.86779894 297.65626248 534.89766431 295.02712035 C535.44959726 246.32751639 523.9122342 198.13238856 493.54097486 159.16725707 C493.13330884 158.6438977 492.72564282 158.12053832 492.30562329 157.58131957 C480.8790846 143.12508494 467.65500928 129.73792114 452.54097486 119.16725707 C451.97233716 118.76490844 451.40369946 118.3625598 450.81783032 117.94801879 C418.15310093 94.95642012 380.65798905 81.99268352 341.54097486 75.16725707 C340.66385343 75.01083739 339.786732 74.85441772 338.88303113 74.69325805 C331.84079921 73.47028123 324.82546312 72.59707093 317.70894361 71.94850707 C316.61091413 71.84564391 315.51288465 71.74278075 314.38158154 71.63680053 C310.83109406 71.30727053 307.27993538 70.98612061 303.72847486 70.66725707 C302.50711835 70.55676024 301.28576184 70.44626342 300.02739453 70.3324182 C284.64902306 68.94971458 269.27553173 67.68880584 253.85347486 66.91725707 C253.17078534 66.88237182 252.48809583 66.84748656 251.78471875 66.81154418 C246.37188771 66.54299346 240.95710506 66.35528468 235.54097486 66.16725707 C234.45194962 66.12803948 233.36292438 66.0888219 232.24089837 66.0484159 C202.86418535 65.01895713 173.49151628 64.96785292 144.09956861 64.92897582 C142.11071687 64.92593505 140.12186514 64.92289376 138.13301353 64.91977495 C126.33167747 64.90132242 114.53034102 64.88562242 102.7289927 64.877877 C99.87196786 64.87596959 97.01494302 64.8740489 94.15791821 64.87209105 C93.4485116 64.87160731 92.73910498 64.87112357 92.00820119 64.87062518 C81.37023447 64.86293689 70.73236567 64.84107756 60.09444165 64.81056762 C5.29559916 64.65598363 -49.47929618 64.51348654 -104.23636889 66.99928832 Z " fill="#FEFEFE" transform="translate(424.459025144577,95.83274292945862)"/>
<path d="M0 0 C10.6545456 0.03049374 21.30904232 0.0482346 31.96362881 0.0554999 C33.02631961 0.05622813 33.02631961 0.05622813 34.11047892 0.05697108 C36.96360979 0.05890248 39.81674067 0.06081463 42.66987158 0.06268718 C54.42685763 0.0707317 66.18383297 0.08788669 77.94080667 0.10632335 C80.56291903 0.11033232 83.1850318 0.11407741 85.80714492 0.11754571 C115.00244229 0.15648795 144.16811794 0.29987045 173.34668545 1.35066591 C174.34746184 1.38541836 175.34823823 1.4201708 176.37934117 1.45597635 C181.47491299 1.63350523 186.56722712 1.838495 191.65918545 2.10066591 C192.41499905 2.13945864 193.17081265 2.17825136 193.94952969 2.21821962 C252.4216197 5.31151114 311.83205259 10.1207186 364.34668545 38.35066591 C365.33378506 38.87031923 365.33378506 38.87031923 366.34082608 39.4004706 C376.69990742 44.87026573 386.08932919 51.18658567 395.34668545 58.35066591 C396.25418545 59.03257997 397.16168545 59.71449404 398.09668545 60.41707216 C440.88875889 93.75053181 465.07506964 143.88876122 471.72925381 197.00398622 C472.87735263 207.56653687 472.82884747 218.17665775 472.79273038 228.78963076 C472.78422581 232.58266554 472.8131045 236.37418485 472.84473233 240.16707216 C472.95306928 277.83338803 464.46188544 314.21230054 446.34668545 347.35066591 C445.79440274 348.37039492 445.79440274 348.37039492 445.2309628 349.41072451 C436.44364989 365.46439773 425.49794482 379.74483516 412.77441983 392.87605654 C411.3861796 394.30987511 410.01459225 395.75975872 408.64356045 397.21004091 C380.24760686 426.60234375 340.38567055 446.35500681 300.34668545 453.35066591 C298.78179504 453.71556211 297.21889263 454.0892144 295.65918545 454.47566591 C292.14131898 455.28376339 288.67408817 455.62583707 285.0771542 455.90535341 C284.00231778 455.9902704 282.92748135 456.0751874 281.82007413 456.16267763 C281.00385586 456.22471376 280.1876376 456.2867499 279.34668545 456.35066591 C279.12118008 457.03354677 278.89567471 457.71642763 278.66333584 458.42000185 C273.6589473 473.47477615 268.23959005 488.05964804 261.34668545 502.35066591 C260.95899991 503.16696474 260.57131436 503.98326357 260.17188077 504.82429872 C240.47632024 546.16723209 211.67975604 585.85777229 176.34668545 615.35066591 C175.8470126 615.78008486 175.34733975 616.2095038 174.8325253 616.65193544 C158.2020032 630.9224296 139.77370606 643.21393691 120.34668545 653.35066591 C119.41396817 653.84373232 119.41396817 653.84373232 118.46240811 654.34675966 C98.20630542 665.0007753 77.24314022 672.75865916 55.34668545 679.35066591 C54.51556241 679.60831728 53.68443936 679.86596865 52.82813077 680.13142763 C41.64086475 683.57309642 30.17816664 685.56633321 18.65918545 687.53816591 C17.93175137 687.66508821 17.20431729 687.79201052 16.45483975 687.92277895 C-7.6807483 692.09179553 -31.74926294 692.70312907 -56.17675205 692.66633974 C-59.48027656 692.66172407 -62.78343147 692.66858951 -66.0869083 692.68684755 C-93.83976892 692.83852618 -121.39295516 691.88653962 -148.71581455 686.53816591 C-150.09405482 686.27612445 -151.47231044 686.01416374 -152.85058017 685.75227724 C-180.65422 680.38928411 -207.16298741 671.72485782 -232.65331455 659.35066591 C-233.48218173 658.9518622 -234.31104892 658.55305849 -235.1650333 658.14216982 C-258.53610148 646.77427467 -280.31369221 631.98787091 -299.4384708 614.38191591 C-301.41170699 612.57224603 -303.42439267 610.832267 -305.46581455 609.10066591 C-314.20005611 601.46262471 -322.29993826 593.16231745 -329.49706455 584.06160341 C-331.70937802 581.28018032 -334.01939917 578.60389737 -336.34081455 575.91316591 C-381.78535924 521.19709123 -403.44892861 453.02257427 -413.65142246 383.79732119 C-413.82807437 382.61039675 -413.82807437 382.61039675 -414.00829501 381.39949404 C-414.10931522 380.71117495 -414.21033542 380.02285585 -414.31441684 379.31367861 C-414.63147614 377.32944999 -414.63147614 377.32944999 -415.16361423 375.32445131 C-415.97658237 372.0477031 -416.25584889 368.69352216 -416.6181583 365.34285341 C-416.70460101 364.55135897 -416.79104373 363.75986452 -416.88010593 362.94438539 C-417.76315902 354.64670768 -418.42892187 346.33598812 -419.03100009 338.01375185 C-419.21324482 335.51095632 -419.40464269 333.0089771 -419.59667392 330.50691591 C-421.66182113 302.89423401 -421.86721977 275.26168844 -421.89354892 247.5867499 C-421.89795443 243.63223005 -421.911963 239.67792583 -421.93456455 235.72346865 C-422.17512999 192.70014743 -422.17512999 192.70014743 -418.65331455 172.35066591 C-418.53735935 171.6516617 -418.42140415 170.95265749 -418.30193515 170.23247133 C-417.64580359 166.34421889 -416.8572359 162.50375821 -415.96581455 158.66316591 C-415.71090244 157.54925478 -415.45599033 156.43534365 -415.19335361 155.28767763 C-407.81646228 124.37436062 -393.57462915 96.16021354 -373.04686923 71.99373232 C-371.91508213 70.65930218 -370.80098982 69.30987894 -369.69237705 67.95613466 C-338.22397629 30.27080595 -288.06581714 12.16011752 -240.59081455 7.85066591 C-238.01651161 7.61198882 -235.44229374 7.37239265 -232.8681583 7.13191591 C-231.61684588 7.01578353 -230.36553346 6.89965115 -229.07630248 6.7799996 C-226.14788618 6.50163945 -223.22351631 6.19908681 -220.29991432 5.8741139 C-209.68819396 4.69635813 -199.10421477 3.83512877 -188.44213291 3.29133974 C-187.6393155 3.24939604 -186.83649809 3.20745233 -186.00935288 3.1642376 C-179.6924342 2.83619591 -173.37442302 2.53531015 -167.0556583 2.24519716 C-166.09398329 2.20078123 -165.13230828 2.1563653 -164.14149161 2.11060344 C-109.45158345 -0.38935813 -54.73194266 -0.15700191 0 0 Z M-159.59081455 74.60066591 C-160.84564639 74.66180574 -162.10047824 74.72294558 -163.3933353 74.78593813 C-246.26230604 78.13675466 -246.26230604 78.13675466 -316.65331455 117.35066591 C-317.41386142 118.09832216 -318.1744083 118.84597841 -318.95800205 119.61629091 C-333.28868667 134.5916084 -341.27345305 154.32788355 -345.52831455 174.35066591 C-345.71941806 175.24970644 -345.91052158 176.14874697 -346.10741611 177.07503115 C-349.86838442 196.47541625 -349.97943517 215.97098768 -349.90331455 235.66316591 C-349.9008492 237.02435105 -349.89872621 238.38553685 -349.89693637 239.74672304 C-349.85706534 264.97964006 -349.07900627 290.15707979 -347.65331455 315.35066591 C-347.58983829 316.51426638 -347.58983829 316.51426638 -347.52507968 317.70137392 C-347.40405553 319.91025497 -347.27779768 322.11876453 -347.1494083 324.32722841 C-347.04197299 326.1885541 -347.04197299 326.1885541 -346.93236728 328.08748232 C-346.68958299 330.92655035 -346.24683043 333.57006456 -345.65331455 336.35066591 C-345.49827678 337.6906005 -345.366512 339.03344433 -345.2587833 340.37800966 C-345.19263828 341.15434755 -345.12649326 341.93068544 -345.05834384 342.73054872 C-344.98655917 343.5745624 -344.91477451 344.41857607 -344.84081455 345.28816591 C-340.99657962 387.3164714 -333.27118258 429.34078758 -316.65331455 468.35066591 C-316.30977939 469.16422548 -315.96624423 469.97778505 -315.61229892 470.81599794 C-304.02724632 498.00486682 -289.84653168 523.28196902 -269.73143955 545.08504091 C-267.83513124 547.15244471 -266.02301849 549.26816684 -264.21581455 551.41316591 C-251.07336566 566.37763612 -233.78397442 577.50147773 -216.65331455 587.35066591 C-215.956254 587.75414247 -215.25919345 588.15761904 -214.54100986 588.57332216 C-187.59520211 604.00001984 -157.04463183 611.68547718 -126.59081455 616.53816591 C-125.56319003 616.70526064 -124.53556552 616.87235537 -123.47680087 617.04451357 C-108.75251325 619.29021895 -93.89400929 619.51745505 -79.02831455 619.55379091 C-77.82424457 619.55803198 -77.82424457 619.55803198 -76.59584995 619.56235872 C-72.34595874 619.57719239 -68.09610007 619.58652073 -63.84618564 619.59090029 C-60.3984863 619.59527544 -56.95103853 619.60915282 -53.5034122 619.63191591 C-33.67865409 619.76005076 -14.28056125 619.55609586 5.34668545 616.35066591 C6.05635464 616.2388196 6.76602383 616.12697329 7.49719815 616.01173769 C11.3412793 615.39864717 15.15765146 614.69013389 18.97168545 613.91316591 C20.05594815 613.69708681 21.14021084 613.48100771 22.25732999 613.25838076 C30.39219178 611.60802326 38.41097004 609.80614959 46.34668545 607.35066591 C47.04761319 607.13780947 47.74854092 606.92495302 48.47070889 606.70564638 C75.50094741 598.35517124 101.99538277 585.04866344 123.34668545 566.35066591 C124.48547666 565.39145332 125.62622547 564.43456169 126.76856045 563.47957216 C136.77176763 555.08286711 145.98386099 546.35089837 154.14356045 536.10847841 C155.56373187 534.33074611 157.01008717 532.57346901 158.48731045 530.84285341 C187.25142543 497.00880451 204.65894871 454.97031389 215.34668545 412.35066591 C215.60643155 411.32263857 215.86617764 410.29461122 216.13379483 409.23543154 C216.86121755 406.33883054 217.57654805 403.43965854 218.28418545 400.53816591 C218.4958334 399.67892519 218.70748135 398.81968447 218.92554288 397.93440615 C219.11479336 397.13720156 219.30404385 396.33999697 219.4990292 395.51863466 C219.66394864 394.83051699 219.82886807 394.14239931 219.99878506 393.43342958 C220.39784694 391.04437917 220.40388149 388.76845039 220.34668545 386.35066591 C221.58531338 386.36113954 222.82394131 386.37161318 224.10010342 386.38240419 C228.78561978 386.41916436 233.47112399 386.4417657 238.15674405 386.46052919 C240.1678337 386.47046129 242.17890942 386.48401151 244.18994717 386.50154482 C260.14011158 386.63691816 276.30038966 386.56647239 291.78418545 382.22566591 C292.55802579 382.0139374 293.33186612 381.80220888 294.12915616 381.58406435 C330.37495733 371.18738674 362.49164753 347.25686686 381.2490292 314.34285341 C389.51031698 299.35223608 395.44512584 284.26463538 398.34668545 267.35066591 C398.59829434 266.03413027 398.59829434 266.03413027 398.85498624 264.69099794 C400.56017896 255.02214373 400.74410185 245.51226027 400.72168545 235.72566591 C400.72136822 234.44608004 400.72136822 234.44608004 400.72104459 233.14064394 C400.68358912 217.93159444 399.53971301 203.26388888 396.34668545 188.35066591 C396.17540127 187.54629091 396.00411709 186.74191591 395.82764249 185.91316591 C389.52492721 158.014115 372.86317158 133.63150691 350.34668545 116.35066591 C349.57711514 115.71902529 348.80754483 115.08738466 348.0146542 114.43660341 C327.24933166 98.13297376 300.3236072 88.54396072 274.58691983 83.77449404 C272.23301975 83.32916159 269.89282745 82.83431109 267.54981045 82.33504091 C241.08209592 76.87893239 213.82058727 76.10023022 186.90918545 74.72566591 C185.73646084 74.66313631 184.56373624 74.60060671 183.35547452 74.53618227 C126.14288275 71.53242146 68.73550363 72.18848835 11.46498846 72.22209619 C3.21572441 72.22643289 -5.03352431 72.22333673 -13.2827874 72.21846841 C-21.41958421 72.21386789 -29.5563746 72.21331902 -37.69317229 72.21590708 C-42.47734612 72.21742822 -47.26150978 72.21778319 -52.04568286 72.21437059 C-87.91500668 72.19227046 -123.7620695 72.82535815 -159.59081455 74.60066591 Z " fill="#202020" transform="translate(486.6533145457506,160.64933408796787)"/>
<path d="M0 0 C0.91652344 0.43957031 1.83304688 0.87914062 2.77734375 1.33203125 C17.39422201 8.77372383 30.83390948 21.31557524 39.6953125 35.13671875 C40.87467515 37.13573734 40.87467515 37.13573734 43 38 C43.38478516 37.15501953 43.38478516 37.15501953 43.77734375 36.29296875 C54.69342532 15.82095634 78.14860167 0.70095577 99.6875 -6.375 C119.49249503 -11.84011462 139.27789292 -11.39851649 159 -6 C159.67256836 -5.81808105 160.34513672 -5.63616211 161.03808594 -5.44873047 C176.1191678 -1.23190623 188.9117863 6.15099231 201 16 C201.77730469 16.61230469 202.55460937 17.22460938 203.35546875 17.85546875 C224.46070837 35.37468536 238.8819205 64.53327607 241.75 91.625 C241.86494046 93.74852493 241.94286587 95.87413426 242 98 C242.02578125 98.76521973 242.0515625 99.53043945 242.078125 100.31884766 C243.13003767 134.99909336 233.88768773 166.38473352 216 196 C215.40316406 196.99515625 214.80632812 197.9903125 214.19140625 199.015625 C199.53104347 222.71598054 179.30755643 245.04462695 158 263 C157.07058594 263.80695313 156.14117188 264.61390625 155.18359375 265.4453125 C133.40346069 284.28015035 109.28393113 300.36757587 84.73291016 315.32958984 C82.20102895 316.87712703 79.68352901 318.44566391 77.16796875 320.01953125 C61.9015301 329.46324195 46.39126869 334.23959295 28.390625 330.1875 C25.09990787 329.00873566 22.09828816 327.61799493 19 326 C17.83210937 325.40316406 16.66421875 324.80632812 15.4609375 324.19140625 C4.11313159 318.17509993 -6.53638047 310.93141717 -17.22705078 303.83837891 C-19.75970467 302.15930832 -22.29847552 300.49005624 -24.83984375 298.82421875 C-39.41135839 289.23955362 -53.66572575 279.2596062 -67 268 C-68.34191406 266.93458984 -68.34191406 266.93458984 -69.7109375 265.84765625 C-77.6943959 259.38335988 -84.97651484 252.23994188 -92.25 245 C-92.76356049 244.49161591 -93.27712097 243.98323181 -93.8062439 243.45944214 C-100.67172145 236.64852104 -107.03754592 229.63296924 -113 222 C-113.51175781 221.34757324 -114.02351563 220.69514648 -114.55078125 220.02294922 C-126.98501819 203.91700826 -136.83301496 186.61685282 -145 168 C-145.31340332 167.28602051 -145.62680664 166.57204102 -145.94970703 165.83642578 C-150.29532181 155.70808305 -152.69052523 145.40258575 -154.55810547 134.56079102 C-154.87034546 132.75135166 -155.1991082 130.94472656 -155.53955078 129.14038086 C-161.08039018 98.68061894 -154.92338085 65.78285272 -137.63085938 39.95507812 C-119.3587001 13.70872351 -94.62542485 -3.12403349 -63 -9 C-41.29949357 -12.06396501 -19.79927107 -9.82586776 0 0 Z " fill="#FF5A16" transform="translate(389,335)"/>
<path d="M0 0 C1.03108887 0.00491455 2.06217773 0.0098291 3.12451172 0.01489258 C22.24137081 0.30717637 40.72253116 6.2341511 54.8125 19.5625 C71.72200556 37.40806748 74.94747695 59.73895213 74.4140625 83.328125 C74.07412327 91.09047841 72.59785652 97.96582336 70.0625 105.3125 C69.72347656 106.36179687 69.38445312 107.41109375 69.03515625 108.4921875 C63.26841211 124.29429778 51.25894497 135.88301185 36.21875 142.99609375 C24.75056083 147.77923701 13.96522203 149.49901333 1.625 149.5625 C0.12743164 149.5934375 0.12743164 149.5934375 -1.40039062 149.625 C-8.54563341 149.66258182 -14.58677242 149.21493126 -20.21484375 144.33984375 C-20.76269531 143.65019531 -21.31054688 142.96054687 -21.875 142.25 C-22.44089844 141.55777344 -23.00679687 140.86554688 -23.58984375 140.15234375 C-25.84701659 137.07081213 -26.06668065 135.22068879 -26.08467102 131.44281006 C-26.09182632 130.41379074 -26.09898163 129.38477142 -26.10635376 128.3245697 C-26.10904266 127.19104568 -26.11173157 126.05752167 -26.11450195 124.88964844 C-26.12107315 123.69930496 -26.12764435 122.50896149 -26.13441467 121.282547 C-26.15418425 117.32899623 -26.16581877 113.3754587 -26.17578125 109.421875 C-26.17982882 108.06057973 -26.18394574 106.69928466 -26.18813133 105.33798981 C-26.20718569 98.94143508 -26.22141522 92.5448919 -26.2297433 86.14831424 C-26.23951194 78.76723276 -26.26582028 71.38645148 -26.30624419 64.00547576 C-26.33642206 58.2992292 -26.35121381 52.59306859 -26.35452431 46.88674378 C-26.35687329 43.47930987 -26.36581282 40.07219656 -26.39098549 36.66484833 C-26.41527394 32.86063112 -26.41443012 29.05720033 -26.4074707 25.25292969 C-26.42028076 24.12750259 -26.43309082 23.0020755 -26.44628906 21.84254456 C-26.39752387 14.53671315 -25.46635925 11.03088877 -20.41015625 5.703125 C-13.7105848 0.28408106 -8.32098312 -0.04625003 0 0 Z " fill="#202020" transform="translate(733.9375,318.6875)"/>
</svg>
