<?xml version="1.0" encoding="UTF-8"?>
<svg version="1.1" xmlns="http://www.w3.org/2000/svg" width="128" height="128">
<path d="M0 0 C0 3.96 0 7.92 0 12 C-1.30324219 12.36351562 -1.30324219 12.36351562 -2.6328125 12.734375 C-13.73791761 15.96404763 -21.02011777 20.00089676 -26.8125 30.1875 C-28.86233616 35.04237511 -29.11156415 38.95107162 -29.0625 44.25 C-29.05347656 45.51328125 -29.04445312 46.7765625 -29.03515625 48.078125 C-29.02355469 49.04234375 -29.01195312 50.0065625 -29 51 C-28.37351563 50.6390625 -27.74703125 50.278125 -27.1015625 49.90625 C-26.28429688 49.4421875 -25.46703125 48.978125 -24.625 48.5 C-23.81289063 48.0359375 -23.00078125 47.571875 -22.1640625 47.09375 C-20 46 -20 46 -18 46 C-18.22816406 45.46890625 -18.45632812 44.9378125 -18.69140625 44.390625 C-18.97886719 43.68421875 -19.26632813 42.9778125 -19.5625 42.25 C-19.85253906 41.55390625 -20.14257812 40.8578125 -20.44140625 40.140625 C-21.10831462 37.5849202 -20.98359789 36.44220158 -20 34 C-18.4765625 31.96484375 -18.4765625 31.96484375 -16.625 29.9375 C-15.71621094 28.93009766 -15.71621094 28.93009766 -14.7890625 27.90234375 C-14.19867188 27.27457031 -13.60828125 26.64679687 -13 26 C-12.56300781 25.45988281 -12.12601563 24.91976562 -11.67578125 24.36328125 C-9.1882458 22.33962187 -6.66996373 21.94133132 -3.5625 21.25 C-1.86287109 20.85554688 -1.86287109 20.85554688 -0.12890625 20.453125 C3.65885527 19.90458525 5.72537077 20.07699263 8.8125 22.3125 C10 24 10 24 9.7734375 25.9140625 C8.00691577 30.67831807 3.04148528 33.51783089 -1.375 35.5625 C-4.17063283 36.75958682 -4.17063283 36.75958682 -5.125 39.375 C-4.95415995 42.96264114 -3.41196573 44.44185453 -1 47 C3.92755907 46.55204008 5.62640384 45.47902104 9 42 C13.08259064 40.17586376 15.69680634 39.73435481 20 41 C21.21875 43.65234375 21.21875 43.65234375 22 47 C18.67656712 54.30547288 13.03369538 58.5070894 5.75 61.25 C1.44855361 62.64558038 -1.65202489 63.48449064 -6 62 C-8.8125 59.4375 -8.8125 59.4375 -11 57 C-14.99500618 58.3697164 -17.80009492 60.25722422 -21 63 C-13.05773587 68.77449322 -5.49386607 70.55693236 4 72 C4.495 77.94 4.495 77.94 5 84 C-7.45466531 84.66424882 -18.18725701 81.90940922 -28 74 C-30.5625 71.625 -30.5625 71.625 -32 70 C-33.3921875 70.4640625 -33.3921875 70.4640625 -34.8125 70.9375 C-36.875 71.625 -38.9375 72.3125 -41 73 C-32.28881192 84.10532255 -21.0792364 91.45094978 -6.890625 93.27050781 C8.87798153 94.55818143 22.67277699 90.42003448 34.98828125 80.37890625 C40.05910457 75.69036229 43.49124503 69.89769452 47 64 C50.72010342 65.22629448 54.37736366 66.50832621 58 68 C56.85421093 77.51886306 48.01635294 86.93973186 40.9296875 92.93359375 C28.5119865 101.69221219 14.87225122 106.59853983 -0.375 106.4375 C-1.37942139 106.43065186 -2.38384277 106.42380371 -3.41870117 106.41674805 C-11.2626747 106.24759039 -17.76208004 105.175076 -25 102 C-25.86238281 101.649375 -26.72476563 101.29875 -27.61328125 100.9375 C-38.65970159 95.98980317 -47.03096257 87.72794698 -54 78 C-54.47050781 77.37867187 -54.94101562 76.75734375 -55.42578125 76.1171875 C-60.970131 68.18687918 -65.16444803 56.70373359 -64 47 C-63 46 -63 46 -60.49609375 45.90234375 C-57.6640625 45.93489583 -54.83203125 45.96744792 -52 46 C-50.68 51.28 -49.36 56.56 -48 62 C-45.36 60.68 -42.72 59.36 -40 58 C-40.33 56.80375 -40.66 55.6075 -41 54.375 C-43.69048132 42.08395227 -42.39019521 30.73022677 -36.25 19.8125 C-29.78978362 9.74401643 -21.26003139 3.8184923 -9.625 0.625 C-6 0 -6 0 0 0 Z " fill="#1FD66C" transform="translate(64,22)"/>
<path d="M0 0 C8.71225442 6.61114237 14.60306402 14.52063074 19.54296875 24.1796875 C20.04401123 25.15228516 20.04401123 25.15228516 20.55517578 26.14453125 C24.6484418 34.53751725 25.48149296 42.55185711 25.35546875 51.8046875 C25.35450195 53.17077148 25.35450195 53.17077148 25.35351562 54.56445312 C25.32329024 59.18893645 25.11072306 63.56934072 24.16796875 68.1171875 C20.03442053 67.63494021 16.21254951 67.12833269 12.16796875 66.1171875 C12.16796875 59.1871875 12.16796875 52.2571875 12.16796875 45.1171875 C9.19796875 45.7771875 6.22796875 46.4371875 3.16796875 47.1171875 C3.214375 47.84421875 3.26078125 48.57125 3.30859375 49.3203125 C3.7260512 60.94948418 0.71913676 71.13246441 -6.83203125 80.1171875 C-11.26902637 84.72943198 -15.37311673 88.79228196 -21.83203125 90.1171875 C-23.48203125 86.8171875 -25.13203125 83.5171875 -26.83203125 80.1171875 C-24.58392714 77.86908339 -22.41464127 75.97166327 -19.95703125 73.9921875 C-14.36527266 69.13157966 -10.98702069 63.45545374 -9.83203125 56.1171875 C-9.20956901 46.93586947 -10.96320942 39.84270275 -17.01953125 32.7421875 C-20.96248271 28.63117582 -24.56459537 26.22416185 -29.83203125 24.1171875 C-29.32406116 19.7994417 -28.63520346 16.08416636 -26.83203125 12.1171875 C-15.82713169 14.84890016 -7.79992162 21.50817354 -1.83203125 31.1171875 C-1.33703125 33.0971875 -1.33703125 33.0971875 -0.83203125 35.1171875 C2.46796875 34.4571875 5.76796875 33.7971875 9.16796875 33.1171875 C3.62865256 20.60905416 -5.01380872 10.39960371 -17.76953125 4.8359375 C-31.89074097 -0.42195974 -46.68271467 -0.93155963 -60.5234375 5.3359375 C-71.91025646 11.03726549 -82.16187358 19.88248025 -86.56201172 32.15283203 C-87.49455616 35.05142091 -88.37505715 37.953149 -89.14770508 40.89868164 C-89.62552434 42.66298688 -90.22017546 44.39477155 -90.83203125 46.1171875 C-93.92682004 47.14878376 -95.35834518 47.09201612 -98.51953125 46.6796875 C-99.32777344 46.57785156 -100.13601562 46.47601563 -100.96875 46.37109375 C-101.58363281 46.28730469 -102.19851562 46.20351563 -102.83203125 46.1171875 C-103.13588623 40.46252035 -102.19769416 36.10623673 -100.26953125 30.8046875 C-99.86516846 29.68320313 -99.86516846 29.68320313 -99.45263672 28.5390625 C-97.10907681 22.33259517 -94.09894912 17.21755854 -89.83203125 12.1171875 C-89.21457031 11.33988281 -88.59710938 10.56257813 -87.9609375 9.76171875 C-65.75578818 -16.91126746 -27.67250333 -18.39744359 0 0 Z " fill="#1DD76C" transform="translate(102.83203125,11.8828125)"/>
<path d="M0 0 C-3.1267645 2.74509372 -5.24700202 3.40530263 -9.375 3.625 C-13.31115081 3.88319463 -17.11745592 4.26546463 -21 5 C-20.67 7.31 -20.34 9.62 -20 12 C-18.68 11.67 -17.36 11.34 -16 11 C-16 11.66 -16 12.32 -16 13 C-15.26523437 12.67257812 -14.53046875 12.34515625 -13.7734375 12.0078125 C-8.37620286 10.56631505 -3.1833518 10.78988978 2.375 10.875 C4.05142578 10.88853516 4.05142578 10.88853516 5.76171875 10.90234375 C8.50803462 10.92581654 11.25390472 10.95865272 14 11 C14.495 11.99 14.495 11.99 15 13 C14.38592285 12.98428955 13.7718457 12.9685791 13.13916016 12.95239258 C10.30120411 12.88923806 7.46339667 12.85075823 4.625 12.8125 C3.65949219 12.78736328 2.69398437 12.76222656 1.69921875 12.73632812 C-12.95281982 12.58882438 -25.07460751 18.53449681 -35.6953125 28.4765625 C-39.44584904 32.58308217 -42.27376788 37.1704166 -45 42 C-46 39 -46 39 -45.22265625 36.95703125 C-44.83980469 36.24933594 -44.45695312 35.54164062 -44.0625 34.8125 C-43.68222656 34.09707031 -43.30195312 33.38164063 -42.91015625 32.64453125 C-42.60980469 32.10183594 -42.30945312 31.55914063 -42 31 C-41.34 31 -40.68 31 -40 31 C-39.34 29.35 -38.68 27.7 -38 26 C-39.32 25.67 -40.64 25.34 -42 25 C-41.67 24.01 -41.34 23.02 -41 22 C-40.34 22 -39.68 22 -39 22 C-39 21.34 -39 20.68 -39 20 C-44.66710699 21.31793186 -46.66437233 23.48709197 -50 28 C-50 23.21556646 -46.77375593 20.94524 -43.6171875 17.5625 C-31.76861238 5.96150704 -16.5086224 -0.52408325 0 0 Z " fill="#29CF70" transform="translate(62,0)"/>
<path d="M0 0 C0.99 0 1.98 0 3 0 C3.33 0.66 3.66 1.32 4 2 C6.02463255 2.65213292 6.02463255 2.65213292 8 3 C8 3.99 8 4.98 8 6 C9.03125 6.0825 10.0625 6.165 11.125 6.25 C15.04713565 6.71162887 18.53481964 7.79861046 22.28125 9.03125 C30.40651059 11.39091472 37.97436594 11.45962034 46.375 11.25 C47.80466191 11.22986392 49.23435186 11.21162595 50.6640625 11.1953125 C54.10997396 11.15197155 57.55479596 11.08335688 61 11 C60 13 60 13 57.3125 14.125 C54.0420565 14.98889074 51.36293818 15.16013991 48 15 C48.66 15.99 49.32 16.98 50 18 C45.2932391 20.75411087 41.80740579 21.40765975 36.375 21.375 C34.43753906 21.38660156 34.43753906 21.38660156 32.4609375 21.3984375 C28.82736157 20.98012515 27.69533894 20.30506362 25 18 C24.01 18 23.02 18 22 18 C21.67 17.01 21.34 16.02 21 15 C21.66 15 22.32 15 23 15 C23 14.34 23 13.68 23 13 C22.154375 13.495 21.30875 13.99 20.4375 14.5 C16.60510396 16.17231827 14.13759819 16.39033945 10 16 C9.01 15.34 8.02 14.68 7 14 C7 13.34 7 12.68 7 12 C6.34 12 5.68 12 5 12 C5 11.34 5 10.68 5 10 C4.34 10 3.68 10 3 10 C3 9.34 3 8.68 3 8 C2.195625 7.7525 1.39125 7.505 0.5625 7.25 C-2 6 -2 6 -2.8125 3.875 C-2.874375 3.25625 -2.93625 2.6375 -3 2 C-2.01 2 -1.02 2 0 2 C0 1.34 0 0.68 0 0 Z " fill="#1AD96A" transform="translate(25,105)"/>
<path d="M0 0 C1.07765625 0.01804688 2.1553125 0.03609375 3.265625 0.0546875 C4.49539062 0.08949219 4.49539062 0.08949219 5.75 0.125 C5.42 0.785 5.09 1.445 4.75 2.125 C7.39 2.455 10.03 2.785 12.75 3.125 C13.74 6.095 14.73 9.065 15.75 12.125 C14.8120459 12.11976318 13.8740918 12.11452637 12.90771484 12.10913086 C9.40770852 12.09202703 5.90774701 12.07951973 2.40771484 12.07006836 C0.89663998 12.06505838 -0.61443009 12.05824856 -2.12548828 12.04956055 C-4.30502512 12.03734824 -6.48449753 12.03173822 -8.6640625 12.02734375 C-9.9732666 12.02210693 -11.2824707 12.01687012 -12.63134766 12.01147461 C-15.94482466 12.11542595 -18.99563583 12.53263193 -22.25 13.125 C-25.25 13.125 -25.25 13.125 -27.25 12.125 C-28.51229508 7.64959016 -28.51229508 7.64959016 -27.25 5.125 C-22.54647189 3.02079006 -17.9088426 2.75294636 -12.8359375 2.46875 C-10.2716227 2.27915937 -10.2716227 2.27915937 -8.3046875 1.1015625 C-5.47109237 -0.24520324 -3.11663588 -0.06775295 0 0 Z " fill="#1CD86B" transform="translate(68.25,-0.125)"/>
<path d="M0 0 C1.51400391 0.01740234 1.51400391 0.01740234 3.05859375 0.03515625 C4.07050781 0.04417969 5.08242187 0.05320312 6.125 0.0625 C7.29869141 0.07990234 7.29869141 0.07990234 8.49609375 0.09765625 C8.49609375 2.07765625 8.49609375 4.05765625 8.49609375 6.09765625 C8.16609375 6.09765625 7.83609375 6.09765625 7.49609375 6.09765625 C7.49609375 4.44765625 7.49609375 2.79765625 7.49609375 1.09765625 C5.51609375 1.42765625 3.53609375 1.75765625 1.49609375 2.09765625 C0.87152102 5.53280627 0.49609375 8.58830439 0.49609375 12.09765625 C1.15609375 12.42765625 1.81609375 12.75765625 2.49609375 13.09765625 C2.91796875 15.25 2.91796875 15.25 3.24609375 18.03515625 C4.25102414 24.08847712 6.31239426 29.50786404 10.49609375 34.09765625 C13.10000274 34.93137146 13.10000274 34.93137146 15.49609375 35.09765625 C15.58697266 34.17533203 15.58697266 34.17533203 15.6796875 33.234375 C15.76347656 32.42613281 15.84726562 31.61789063 15.93359375 30.78515625 C16.01480469 29.98464844 16.09601562 29.18414062 16.1796875 28.359375 C16.49609375 26.09765625 16.49609375 26.09765625 17.49609375 23.09765625 C19.14609375 23.75765625 20.79609375 24.41765625 22.49609375 25.09765625 C22.16609375 25.75765625 21.83609375 26.41765625 21.49609375 27.09765625 C20.83609375 27.09765625 20.17609375 27.09765625 19.49609375 27.09765625 C28.315842 38.34137504 38.09938895 43.22154299 51.49609375 47.09765625 C51.49609375 47.42765625 51.49609375 47.75765625 51.49609375 48.09765625 C43.88849263 47.37995803 36.73837968 45.51175156 29.49609375 43.09765625 C29.49609375 42.10765625 29.49609375 41.11765625 29.49609375 40.09765625 C27.84609375 40.09765625 26.19609375 40.09765625 24.49609375 40.09765625 C24.49609375 39.10765625 24.49609375 38.11765625 24.49609375 37.09765625 C23.50609375 37.09765625 22.51609375 37.09765625 21.49609375 37.09765625 C21.82609375 38.08765625 22.15609375 39.07765625 22.49609375 40.09765625 C21.01109375 40.59265625 21.01109375 40.59265625 19.49609375 41.09765625 C20.15609375 41.75765625 20.81609375 42.41765625 21.49609375 43.09765625 C21.82609375 43.75765625 22.15609375 44.41765625 22.49609375 45.09765625 C23.15609375 45.09765625 23.81609375 45.09765625 24.49609375 45.09765625 C24.49609375 45.75765625 24.49609375 46.41765625 24.49609375 47.09765625 C25.15609375 47.09765625 25.81609375 47.09765625 26.49609375 47.09765625 C26.49609375 47.75765625 26.49609375 48.41765625 26.49609375 49.09765625 C27.15609375 49.09765625 27.81609375 49.09765625 28.49609375 49.09765625 C28.82609375 50.08765625 29.15609375 51.07765625 29.49609375 52.09765625 C19.46946774 48.53579976 12.5621455 40.51668323 6.49609375 32.09765625 C6.02429687 31.47503906 5.5525 30.85242188 5.06640625 30.2109375 C-0.47407996 22.27875072 -4.66832119 10.80111409 -3.50390625 1.09765625 C-2.50390625 0.09765625 -2.50390625 0.09765625 0 0 Z " fill="#34CB73" transform="translate(3.50390625,67.90234375)"/>
<path d="M0 0 C1.1875 1.6875 1.1875 1.6875 1.1875 3.5625 C-0.24517671 6.60693802 -2.30355322 8.48452234 -4.8125 10.6875 C-5.4725 10.6875 -6.1325 10.6875 -6.8125 10.6875 C-6.8125 9.6975 -6.8125 8.7075 -6.8125 7.6875 C-8.4625 7.6875 -10.1125 7.6875 -11.8125 7.6875 C-11.8125 7.0275 -11.8125 6.3675 -11.8125 5.6875 C-12.8025 5.6875 -13.7925 5.6875 -14.8125 5.6875 C-14.8125 7.6675 -14.8125 9.6475 -14.8125 11.6875 C-15.8025 11.6875 -16.7925 11.6875 -17.8125 11.6875 C-17.8125 10.6975 -17.8125 9.7075 -17.8125 8.6875 C-21.24480448 8.95143501 -21.24480448 8.95143501 -24.8125 9.6875 C-26.7576 12.60515 -27.26526317 14.31287285 -27.8125 17.6875 C-28.4725 17.0275 -29.1325 16.3675 -29.8125 15.6875 C-29.50041619 12.12825849 -27.79017259 10.20102758 -25.4375 7.625 C-24.83164062 6.95339844 -24.22578125 6.28179687 -23.6015625 5.58984375 C-22.71597656 4.64818359 -22.71597656 4.64818359 -21.8125 3.6875 C-21.37550781 3.14738281 -20.93851563 2.60726562 -20.48828125 2.05078125 C-18.0007458 0.02712187 -15.48246373 -0.37116868 -12.375 -1.0625 C-11.24191406 -1.32546875 -10.10882813 -1.5884375 -8.94140625 -1.859375 C-5.15364473 -2.40791475 -3.08712923 -2.23550737 0 0 Z " fill="#29D06E" transform="translate(72.8125,44.3125)"/>
<path d="M0 0 C0 3.3 0 6.6 0 10 C-2.97851562 10.29296875 -2.97851562 10.29296875 -5.95703125 10.5859375 C-8.29988142 10.92665391 -8.29988142 10.92665391 -11 13 C-12.03125 13.33 -13.0625 13.66 -14.125 14 C-17.12511062 14.6686673 -17.12511062 14.6686673 -18 17 C-18.99 17 -19.98 17 -21 17 C-21 16.34 -21 15.68 -21 15 C-21.66 15 -22.32 15 -23 15 C-22.34 13.35 -21.68 11.7 -21 10 C-20.01 10 -19.02 10 -18 10 C-17.938125 9.4225 -17.87625 8.845 -17.8125 8.25 C-16.6405023 5.00446792 -14.84338705 3.89559136 -12 2 C-7.86034104 0.238443 -4.48217981 -0.21343713 0 0 Z " fill="#1CD86B" transform="translate(63,23)"/>
<path d="M0 0 C0.99 0.495 0.99 0.495 2 1 C-11.47529486 11.50395325 -25.1090549 17.61700395 -42.375 17.4375 C-43.376521 17.43210205 -44.37804199 17.4267041 -45.40991211 17.42114258 C-55.74229104 17.20952663 -63.79687011 14.71643514 -73 10 C-71 9 -71 9 -67.5625 9.0625 C-63.89327313 9.318863 -63.89327313 9.318863 -61 7 C-60.01 7 -59.02 7 -58 7 C-58.33 7.99 -58.66 8.98 -59 10 C-58.67 10.66 -58.34 11.32 -58 12 C-57.01 12 -56.02 12 -55 12 C-54.01 12.66 -53.02 13.32 -52 14 C-39.13938291 14.94024338 -26.30023121 13.84987552 -14 10 C-14 9.34 -14 8.68 -14 8 C-12.68 8 -11.36 8 -10 8 C-9.95875 7.38125 -9.9175 6.7625 -9.875 6.125 C-9.441875 5.073125 -9.441875 5.073125 -9 4 C-6.125 2.875 -6.125 2.875 -3 2 C-2.01 1.34 -1.02 0.68 0 0 Z " fill="#29D272" transform="translate(106,111)"/>
<path d="M0 0 C0.99 0.33 1.98 0.66 3 1 C5.05893621 1.22325814 7.12233653 1.40705759 9.1875 1.5625 C10.27417969 1.64628906 11.36085938 1.73007813 12.48046875 1.81640625 C13.72763672 1.90728516 13.72763672 1.90728516 15 2 C15 4.97 15 7.94 15 11 C6.23203921 11.50584389 -1.9348847 9.39118194 -10 6 C-8.9375 4 -8.9375 4 -7 2 C-3.3125 1.75 -3.3125 1.75 0 2 C0 1.34 0 0.68 0 0 Z " fill="#1CD86B" transform="translate(52,93)"/>
<path d="M0 0 C3.72433382 1.2125738 7.37802806 2.50859979 11 4 C10.4520917 8.2829452 8.97567196 10.85135641 6.4375 14.3125 C5.79683594 15.19550781 5.15617187 16.07851562 4.49609375 16.98828125 C4.00238281 17.65214844 3.50867188 18.31601563 3 19 C3 15.35282355 3.84985628 12.45043117 5 9 C5.66 8.67 6.32 8.34 7 8 C7.33 7.01 7.66 6.02 8 5 C7.54625 5.474375 7.0925 5.94875 6.625 6.4375 C5 8 5 8 3 9 C1.96854629 10.30915279 0.96457834 11.64082143 0 13 C-0.66 12.01 -1.32 11.02 -2 10 C-2.66 11.32 -3.32 12.64 -4 14 C-4.99 14 -5.98 14 -7 14 C-7 14.99 -7 15.98 -7 17 C-10.00425177 21.1725719 -15.24131471 21.90184186 -20 23 C-18.14594619 21.06869395 -16.27270496 19.22301468 -14.19921875 17.52734375 C-8.24547429 12.63718082 -3.46444858 6.92889716 0 0 Z " fill="#22D66D" transform="translate(111,86)"/>
<path d="M0 0 C2.475 0.99 2.475 0.99 5 2 C4.67 2.66 4.34 3.32 4 4 C3.34 4 2.68 4 2 4 C10.81974825 15.24371879 20.6032952 20.12388674 34 24 C34 24.33 34 24.66 34 25 C26.39239888 24.28230178 19.24228593 22.41409531 12 20 C12 19.01 12 18.02 12 17 C10.35 17 8.7 17 7 17 C7 16.01 7 15.02 7 14 C6.01 14 5.02 14 4 14 C4.33 14.99 4.66 15.98 5 17 C4.01 17 3.02 17 2 17 C1.67 17.66 1.34 18.32 1 19 C0.01 18.67 -0.98 18.34 -2 18 C-2 17.34 -2 16.68 -2 16 C-3.45833358 14.37485532 -3.45833358 14.37485532 -5 13 C-4.01 12.67 -3.02 12.34 -2 12 C-1.90912109 11.07767578 -1.90912109 11.07767578 -1.81640625 10.13671875 C-1.69072266 8.92435547 -1.69072266 8.92435547 -1.5625 7.6875 C-1.48128906 6.88699219 -1.40007813 6.08648437 -1.31640625 5.26171875 C-1 3 -1 3 0 0 Z " fill="#1FD76D" transform="translate(21,91)"/>
<path d="M0 0 C0.33 0 0.66 0 1 0 C1.6875 2.75 1.6875 2.75 2 6 C0.6875 8 0.6875 8 -1 10 C-1.268125 10.99 -1.53625 11.98 -1.8125 13 C-3.36353248 16.91839783 -5.46501528 17.83572364 -9 20 C-10.83300909 22.10575643 -10.83300909 22.10575643 -12 24 C-9.69433317 26.12802546 -9.69433317 26.12802546 -7 28 C-6.01 27.67 -5.02 27.34 -4 27 C-4 26.34 -4 25.68 -4 25 C-3.34 25 -2.68 25 -2 25 C-1.67 25.99 -1.34 26.98 -1 28 C-2.42859407 29.03325986 -3.86822383 30.05127634 -5.3125 31.0625 C-6.51326172 31.91521484 -6.51326172 31.91521484 -7.73828125 32.78515625 C-8.48464844 33.18605469 -9.23101562 33.58695313 -10 34 C-13 33 -13 33 -14.16796875 30.71484375 C-14.50441406 29.79832031 -14.84085937 28.88179687 -15.1875 27.9375 C-15.53167969 27.01839844 -15.87585938 26.09929687 -16.23046875 25.15234375 C-16.48441406 24.44207031 -16.73835938 23.73179688 -17 23 C-16.48050781 22.63648437 -15.96101563 22.27296875 -15.42578125 21.8984375 C-8.19523258 16.68602718 -2.46643152 11.13235 -0.3125 2.125 C-0.209375 1.42375 -0.10625 0.7225 0 0 Z " fill="#20D86E" transform="translate(93,68)"/>
<path d="M0 0 C0.99 0.33 1.98 0.66 3 1 C3.33 3.97 3.66 6.94 4 10 C3.34 10 2.68 10 2 10 C1.34 11.32 0.68 12.64 0 14 C0 13.34 0 12.68 0 12 C-0.66 12 -1.32 12 -2 12 C-2 12.66 -2 13.32 -2 14 C-3.98 14.99 -3.98 14.99 -6 16 C-6.33 15.01 -6.66 14.02 -7 13 C-9.00016466 11.79117904 -9.00016466 11.79117904 -11 11 C-10.0919838 9.86800647 -9.17316174 8.74467637 -8.25 7.625 C-7.73953125 6.99851562 -7.2290625 6.37203125 -6.703125 5.7265625 C-4.91259898 3.91139622 -3.27385637 3.09871211 -1 2 C-0.67 1.34 -0.34 0.68 0 0 Z " fill="#1BD86A" transform="translate(91,81)"/>
<path d="M0 0 C1.1875 1.6875 1.1875 1.6875 1.1875 3.5625 C-0.24517671 6.60693802 -2.30355322 8.48452234 -4.8125 10.6875 C-5.4725 10.6875 -6.1325 10.6875 -6.8125 10.6875 C-6.27524105 7.31044375 -5.70185377 3.990814 -4.8125 0.6875 C-5.328125 1.0175 -5.84375 1.3475 -6.375 1.6875 C-8.8125 2.6875 -8.8125 2.6875 -12.1875 2.5625 C-16.54415878 2.71272961 -18.42832371 4.04619167 -21.8125 6.6875 C-22.4725 6.3575 -23.1325 6.0275 -23.8125 5.6875 C-19.86091252 0.27236161 -15.25750786 -0.52689134 -8.87109375 -1.9296875 C-5.1404774 -2.39661011 -3.03740011 -2.19949663 0 0 Z " fill="#31CA73" transform="translate(72.8125,44.3125)"/>
<path d="M0 0 C0.71285156 0.20496094 1.42570312 0.40992187 2.16015625 0.62109375 C7.43976749 2.10620647 12.54711116 3.39412346 18 4 C18.33 7.96 18.66 11.92 19 16 C8.21053718 16.57543802 -2.34962681 14.92029855 -11 8 C-8 8 -8 8 -4.90234375 9.39453125 C-0.57872197 11.32941171 3.77702396 12.00025817 8.4375 12.6875 C9.26443359 12.81705078 10.09136719 12.94660156 10.94335938 13.08007812 C12.9609698 13.3949653 14.9803231 13.69865138 17 14 C17 11.03 17 8.06 17 5 C16.19175781 5.03480469 15.38351563 5.06960937 14.55078125 5.10546875 C13.48214844 5.13253906 12.41351563 5.15960938 11.3125 5.1875 C9.72888672 5.23970703 9.72888672 5.23970703 8.11328125 5.29296875 C4.61841396 4.96409165 2.77061447 4.12293836 0 2 C0 1.34 0 0.68 0 0 Z " fill="#3EBE77" transform="translate(50,90)"/>
<path d="M0 0 C11.04587702 3.7736804 18.69101762 14.51710991 23.9375 24.5 C25 27 25 27 25 29 C24.34 29 23.68 29 23 29 C21 26 21 26 21 22 C20.34 22 19.68 22 19 22 C18.05236144 20.38344011 17.16637784 18.73048602 16.3125 17.0625 C13.86511608 12.69295037 13.86511608 12.69295037 9.25 10.75 C5.91413169 10.65200739 5.91413169 10.65200739 4 13 C2 11 2 11 1 9 C1.99 9 2.98 9 4 9 C4 7.02 4 5.04 4 3 C3.01 3 2.02 3 1 3 C0.67 2.01 0.34 1.02 0 0 Z " fill="#23D26D" transform="translate(98,10)"/>
<path d="M0 0 C2.31 0 4.62 0 7 0 C7 1.65 7 3.3 7 5 C7.66 5 8.32 5 9 5 C9.99 8.3 10.98 11.6 12 15 C12.99 15 13.98 15 15 15 C14.67 15.99 14.34 16.98 14 18 C11.67578125 17.77734375 11.67578125 17.77734375 9 17 C7.41796875 15.00390625 7.41796875 15.00390625 6.1875 12.5625 C5.76855469 11.75941406 5.34960938 10.95632812 4.91796875 10.12890625 C4 8 4 8 4 6 C2.68 6.33 1.36 6.66 0 7 C-0.93423645 3.98968256 -1.04449911 3.13349732 0 0 Z " fill="#1FD66E" transform="translate(4,69)"/>
<path d="M0 0 C1.32 0.33 2.64 0.66 4 1 C3.33333333 5 2.66666667 9 2 13 C-1.19902639 13.08886184 -3.92677456 12.91058531 -7 12 C-7 10.02 -7 8.04 -7 6 C-6.401875 5.7525 -5.80375 5.505 -5.1875 5.25 C-2.71352479 3.83629988 -1.56629745 2.34944617 0 0 Z " fill="#1AD96B" transform="translate(9,44)"/>
<path d="M0 0 C0.66 0 1.32 0 2 0 C1.67 1.32 1.34 2.64 1 4 C0.34 4 -0.32 4 -1 4 C-1.1546875 5.60875 -1.1546875 5.60875 -1.3125 7.25 C-1.97363346 10.85618251 -2.34238801 12.53924816 -5 15 C-6.32 15 -7.64 15 -9 15 C-9.33 14.67 -9.66 14.34 -10 14 C-10.66 14.66 -11.32 15.32 -12 16 C-12.68707555 13.50935112 -13 11.62113708 -13 9 C-12.01 9 -11.02 9 -10 9 C-9.34 7.35 -8.68 5.7 -8 4 C-7.01 5.485 -7.01 5.485 -6 7 C-4.06201737 4.22739701 -4.06201737 4.22739701 -3 2 C-2.34 2.33 -1.68 2.66 -1 3 C-0.67 2.01 -0.34 1.02 0 0 Z " fill="#1BD86A" transform="translate(117,91)"/>
<path d="M0 0 C0.2475 0.556875 0.495 1.11375 0.75 1.6875 C2.21606015 4.39971127 4.02989471 6.63587365 6 9 C10.92755907 8.55204008 12.62640384 7.47902104 16 4 C20.08259064 2.17586376 22.69680634 1.73435481 27 3 C27.66 4.98 28.32 6.96 29 9 C28.01 9.66 27.02 10.32 26 11 C26 9.02 26 7.04 26 5 C22.92671296 5.07223538 19.99155307 5.26641916 17 6 C14.79857668 8.4390706 14.79857668 8.4390706 13 11 C7.62344476 12.955111 4.00451373 11.15711799 -1 9 C-0.34 8.67 0.32 8.34 1 8 C0.67 5.36 0.34 2.72 0 0 Z " fill="#40BF76" transform="translate(57,60)"/>
<path d="M0 0 C0.33 0.99 0.66 1.98 1 3 C0.01 3.33 -0.98 3.66 -2 4 C-0.68 4.66 0.64 5.32 2 6 C0.625 8.5 0.625 8.5 -1 11 C-1.66 11 -2.32 11 -3 11 C-3.33 12.65 -3.66 14.3 -4 16 C-4.99 15.67 -5.98 15.34 -7 15 C-7.17786056 9.84204369 -7.11596899 5.81970715 -5 1 C-3 0 -3 0 0 0 Z " fill="#1AD86B" transform="translate(23,20)"/>
<path d="M0 0 C1.98 0 3.96 0 6 0 C5.67 0.66 5.34 1.32 5 2 C2.93359375 2.6328125 2.93359375 2.6328125 0.4375 3.125 C-0.80193359 3.37636719 -0.80193359 3.37636719 -2.06640625 3.6328125 C-2.70449219 3.75398438 -3.34257813 3.87515625 -4 4 C-3.95359375 4.72703125 -3.9071875 5.4540625 -3.859375 6.203125 C-3.50069198 16.19500914 -5.63471137 24.52930075 -11 33 C-12.24546405 30.50907189 -11.7767578 29.58919267 -11 27 C-10.34 27 -9.68 27 -9 27 C-9 25.02 -9 23.04 -9 21 C-8.34 21 -7.68 21 -7 21 C-6.505 12.09 -6.505 12.09 -6 3 C-4.02 2.67 -2.04 2.34 0 2 C0 1.34 0 0.68 0 0 Z " fill="#3FC27A" transform="translate(110,55)"/>
<path d="M0 0 C-3.09522706 2.71372233 -5.04101398 3.33629335 -9.125 3.4375 C-15.03588878 3.83103454 -19.67487446 5.49198068 -25 8 C-25.74636719 8.34546875 -26.49273437 8.6909375 -27.26171875 9.046875 C-30.78166696 10.73853218 -33.98225017 12.48520848 -37 15 C-37.66 14.67 -38.32 14.34 -39 14 C-27.67696241 4.35318248 -14.75774897 -0.46849997 0 0 Z " fill="#3BBF75" transform="translate(62,0)"/>
<path d="M0 0 C9.59453303 2.70615034 9.59453303 2.70615034 13 7 C11.948125 6.5359375 11.948125 6.5359375 10.875 6.0625 C7.91063343 4.96697322 5.12301892 4.43577008 2 4 C1.67386382 8.67461851 2.29417212 11.16674383 5 15 C-0.75 13.125 -0.75 13.125 -3 12 C-2.49202991 7.6822542 -1.80317221 3.96697886 0 0 Z " fill="#35CA77" transform="translate(76,24)"/>
<path d="M0 0 C0.66 0.33 1.32 0.66 2 1 C-7.12015697 8.1091359 -18.81986247 16.71647868 -31 16 C-31 15.34 -31 14.68 -31 14 C-30.10796875 13.79503906 -29.2159375 13.59007813 -28.296875 13.37890625 C-27.12640625 13.10949219 -25.9559375 12.84007813 -24.75 12.5625 C-23.58984375 12.29566406 -22.4296875 12.02882813 -21.234375 11.75390625 C-18.81650239 11.19032 -16.40556696 10.61330049 -14 10 C-14 9.34 -14 8.68 -14 8 C-12.68 8 -11.36 8 -10 8 C-9.95875 7.38125 -9.9175 6.7625 -9.875 6.125 C-9.441875 5.073125 -9.441875 5.073125 -9 4 C-6.125 2.875 -6.125 2.875 -3 2 C-2.01 1.34 -1.02 0.68 0 0 Z " fill="#44C57D" transform="translate(106,111)"/>
<path d="M0 0 C1.98 0 3.96 0 6 0 C6 3.96 6 7.92 6 12 C4.69675781 12.36351562 4.69675781 12.36351562 3.3671875 12.734375 C-2.74425564 14.5117522 -7.98471888 16.04056754 -13 20 C-13.99 20.66 -14.98 21.32 -16 22 C-16.66 20.02 -17.32 18.04 -18 16 C-17.34 16 -16.68 16 -16 16 C-16 16.66 -16 17.32 -16 18 C-15.01 18 -14.02 18 -13 18 C-12.814375 17.38125 -12.62875 16.7625 -12.4375 16.125 C-10.29014305 12.95064625 -7.61370438 12.85414831 -4 12 C-3.67 11.67 -3.34 11.34 -3 11 C-0.32941149 10.85884839 2.32432238 10.95752893 5 11 C5 7.7 5 4.4 5 1 C3.35 1 1.7 1 0 1 C0 0.67 0 0.34 0 0 Z " fill="#48C57E" transform="translate(58,22)"/>
<path d="M0 0 C0.33 0 0.66 0 1 0 C1 6.93 1 13.86 1 21 C3.64 21.33 6.28 21.66 9 22 C9.33 18.04 9.66 14.08 10 10 C10.66 10 11.32 10 12 10 C12.08333357 14.8333472 11.95261487 19.23692563 11 24 C6.86645178 23.51775271 3.04458076 23.01114519 -1 22 C-0.67 14.74 -0.34 7.48 0 0 Z " fill="#42B978" transform="translate(116,56)"/>
<path d="M0 0 C1.29560612 3.88681835 0.43927615 5.73830766 -0.75 9.625 C-1.09546875 10.79289062 -1.4409375 11.96078125 -1.796875 13.1640625 C-2.19390625 14.09992187 -2.5909375 15.03578125 -3 16 C-6.09478879 17.03159626 -7.52631393 16.97482862 -10.6875 16.5625 C-11.49574219 16.46066406 -12.30398437 16.35882813 -13.13671875 16.25390625 C-14.05904297 16.12822266 -14.05904297 16.12822266 -15 16 C-15.21192221 10.80790596 -14.5912689 6.873261 -13 2 C-12.67 2 -12.34 2 -12 2 C-12.33 5.96 -12.66 9.92 -13 14 C-12.01 13.67 -11.02 13.34 -10 13 C-6.8125 13.9375 -6.8125 13.9375 -4 15 C-4.061875 14.175 -4.12375 13.35 -4.1875 12.5 C-3.96837812 8.40972489 -3.04305735 3.04305735 0 0 Z " fill="#40C07B" transform="translate(15,42)"/>
<path d="M0 0 C1.98 0.66 3.96 1.32 6 2 C6 1.34 6 0.68 6 0 C6.99 0.33 7.98 0.66 9 1 C8.67 1.99 8.34 2.98 8 4 C9.23181671 6.57309127 9.23181671 6.57309127 10.9375 9.375 C14.46303229 16.03524344 14.64446921 21.60053864 14 29 C13.67 29 13.34 29 13 29 C12.90203125 28.154375 12.8040625 27.30875 12.703125 26.4375 C11.31903461 15.93750394 9.21775697 9.5663767 1.390625 2.34765625 C0.93171875 1.90292969 0.4728125 1.45820312 0 1 C0 0.67 0 0.34 0 0 Z " fill="#3BC173" transform="translate(81,39)"/>
<path d="M0 0 C2.475 0.99 2.475 0.99 5 2 C4.67 2.66 4.34 3.32 4 4 C3.34 4 2.68 4 2 4 C3.98 6.64 5.96 9.28 8 12 C6.68 11.67 5.36 11.34 4 11 C1.29534258 11.86454438 1.29534258 11.86454438 -1 13 C-1.02686553 11.02090602 -1.04633375 9.04171029 -1.0625 7.0625 C-1.07410156 5.96035156 -1.08570312 4.85820313 -1.09765625 3.72265625 C-1 1 -1 1 0 0 Z M-4 12 C-3.01 12.33 -2.02 12.66 -1 13 C-1.33 13.66 -1.66 14.32 -2 15 C-2.99 14.67 -3.98 14.34 -5 14 C-4.67 13.34 -4.34 12.68 -4 12 Z " fill="#29CE6E" transform="translate(21,91)"/>
<path d="M0 0 C5.80205656 5.64524422 5.80205656 5.64524422 8 9 C8 9.66 8 10.32 8 11 C7.01 11.33 6.02 11.66 5 12 C4.67 10.68 4.34 9.36 4 8 C2.02 8.99 0.04 9.98 -2 11 C-2.33 9.68 -2.66 8.36 -3 7 C-2.34 7 -1.68 7 -1 7 C0.12516085 5.16715557 0.12516085 5.16715557 1 3 C0.67 2.01 0.34 1.02 0 0 Z " fill="#2BCE70" transform="translate(93,34)"/>
<path d="M0 0 C0.62003906 0.44730469 1.24007813 0.89460938 1.87890625 1.35546875 C9.55705184 6.59717222 17.17158032 9.41461934 26 12 C26 12.33 26 12.66 26 13 C18.39239888 12.28230178 11.24228593 10.41409531 4 8 C3.65657551 6.66923011 3.32380126 5.33568021 3 4 C2.01 3.34 1.02 2.68 0 2 C0 1.34 0 0.68 0 0 Z " fill="#4EBF83" transform="translate(29,103)"/>
<path d="M0 0 C0.66 0.33 1.32 0.66 2 1 C0.47005208 2.23697917 -1.05989583 3.47395833 -2.58984375 4.7109375 C-4.13266437 5.9666391 -4.13266437 5.9666391 -5 8 C-5.66 8 -6.32 8 -7 8 C-7.66 9.32 -8.32 10.64 -9 12 C-9 10.68 -9 9.36 -9 8 C-9.66 8 -10.32 8 -11 8 C-11 5.69 -11 3.38 -11 1 C-10.34 1 -9.68 1 -9 1 C-9 2.32 -9 3.64 -9 5 C-8.37351563 4.62746094 -7.74703125 4.25492187 -7.1015625 3.87109375 C-6.28429688 3.39800781 -5.46703125 2.92492187 -4.625 2.4375 C-3.40683594 1.72400391 -3.40683594 1.72400391 -2.1640625 0.99609375 C-1.44992188 0.66738281 -0.73578125 0.33867188 0 0 Z " fill="#32C974" transform="translate(44,68)"/>
<path d="M0 0 C0.33 0 0.66 0 1 0 C1.6875 2.75 1.6875 2.75 2 6 C0.6875 8 0.6875 8 -1 10 C-1.268125 10.99 -1.53625 11.98 -1.8125 13 C-3.36041804 16.91052978 -5.43132831 17.91827485 -9 20 C-9.66 20.66 -10.32 21.32 -11 22 C-11.99 21.67 -12.98 21.34 -14 21 C-13.48050781 20.59910156 -12.96101563 20.19820312 -12.42578125 19.78515625 C-5.75267598 14.345527 -1.43566222 8.61397334 0 0 Z " fill="#44C07A" transform="translate(93,68)"/>
<path d="M0 0 C2.66053508 2.66053508 2.78483954 4.27055195 3 8 C1.4407359 12.1853931 -0.19578482 14.63876299 -4 17 C-3.67 15.68 -3.34 14.36 -3 13 C-2.34 13 -1.68 13 -1 13 C-1.14308594 12.09507813 -1.14308594 12.09507813 -1.2890625 11.171875 C-1.39992188 10.37265625 -1.51078125 9.5734375 -1.625 8.75 C-1.74101563 7.96109375 -1.85703125 7.1721875 -1.9765625 6.359375 C-2.00319395 3.67847541 -1.36592084 2.27305911 0 0 Z " fill="#1FD76E" transform="translate(96,78)"/>
<path d="M0 0 C1 2 1 2 0.51171875 3.953125 C0.10373047 5.09007812 0.10373047 5.09007812 -0.3125 6.25 C-0.59351563 7.04792969 -0.87453125 7.84585938 -1.1640625 8.66796875 C-1.43992187 9.43753906 -1.71578125 10.20710938 -2 11 C-2.391875 12.175625 -2.78375 13.35125 -3.1875 14.5625 C-3.5896875 15.7690625 -3.5896875 15.7690625 -4 17 C-4.99 17 -5.98 17 -7 17 C-7.33 17.66 -7.66 18.32 -8 19 C-7.70302239 12.31800388 -4.80528873 4.80528873 0 0 Z " fill="#3DC67B" transform="translate(31,37)"/>
<path d="M0 0 C-0.639375 0.103125 -1.27875 0.20625 -1.9375 0.3125 C-2.618125 0.539375 -3.29875 0.76625 -4 1 C-4.33 1.99 -4.66 2.98 -5 4 C-6.19625 3.9175 -7.3925 3.835 -8.625 3.75 C-13.24934637 3.7170865 -15.44232818 5.15386254 -19 8 C-19.66 7.67 -20.32 7.34 -21 7 C-17.02793173 1.55679533 -12.38168174 0.77862647 -5.9609375 -0.6171875 C-3 -1 -3 -1 0 0 Z " fill="#39BF75" transform="translate(70,43)"/>
<path d="M0 0 C4.10142928 1.82388616 8.06422191 3.84369605 12 6 C11.01 6.495 11.01 6.495 10 7 C8.30078125 6.29296875 8.30078125 6.29296875 6.3125 5.1875 C1.23253786 2.53310537 -3.67762233 1.09812328 -9.375 0.5 C-10.57125 0.335 -11.7675 0.17 -13 0 C-13.33 -0.66 -13.66 -1.32 -14 -2 C-9.8296255 -4.08518725 -4.21089026 -1.36490926 0 0 Z " fill="#3EC277" transform="translate(86,3)"/>
<path d="M0 0 C0 4.45767692 -1.70336607 8.20941029 -4.3125 11.8125 C-7.74622225 14.22882307 -11.95420243 15.06635441 -16 16 C-13.45967066 13.3538236 -10.78573111 10.94284487 -8 8.5625 C-4.96025637 5.93108014 -2.37534934 3.26610534 0 0 Z " fill="#3BC173" transform="translate(107,93)"/>
<path d="M0 0 C0.33 0 0.66 0 1 0 C1.06058594 0.86882813 1.12117188 1.73765625 1.18359375 2.6328125 C1.26738281 3.78523438 1.35117187 4.93765625 1.4375 6.125 C1.51871094 7.26195313 1.59992187 8.39890625 1.68359375 9.5703125 C1.97730965 12.7540478 2.43124313 15.85510907 3 19 C3.66 19 4.32 19 5 19 C5.3125 21.3125 5.3125 21.3125 5 24 C2.6875 25.875 2.6875 25.875 0 27 C-0.99 26.67 -1.98 26.34 -3 26 C-1.35 25.01 0.3 24.02 2 23 C1.67 21.80375 1.34 20.6075 1 19.375 C-0.45606824 12.96624895 -0.16729516 6.53380544 0 0 Z " fill="#40C079" transform="translate(22,57)"/>
<path d="M0 0 C1.65 0.33 3.3 0.66 5 1 C5 2.65 5 4.3 5 6 C5.66 6 6.32 6 7 6 C7 8.31 7 10.62 7 13 C2.8803623 14.29243536 -0.66831683 15.26252625 -5 15 C-4.67 14.01 -4.34 13.02 -4 12 C-4 12.66 -4 13.32 -4 14 C0.95 13.01 0.95 13.01 6 12 C5.65066406 11.30132812 5.30132812 10.60265625 4.94140625 9.8828125 C3.29427083 6.58854167 1.64713542 3.29427083 0 0 Z " fill="#3FC178" transform="translate(106,33)"/>
<path d="M0 0 C1.32 0 2.64 0 4 0 C4.35233161 5.37305699 4.35233161 5.37305699 4 8 C2 10 2 10 0 11 C-0.33 9.68 -0.66 8.36 -1 7 C-0.34 7 0.32 7 1 7 C0.01 5.68 -0.98 4.36 -2 3 C-1.34 2.01 -0.68 1.02 0 0 Z " fill="#29D473" transform="translate(79,65)"/>
<path d="M0 0 C1.70840281 1.63412443 2.93453047 2.86906094 4 5 C4.61359375 5.29648437 5.2271875 5.59296875 5.859375 5.8984375 C8.29827286 7.15349078 9.52612885 8.50933995 11.25 10.625 C11.77078125 11.25664062 12.2915625 11.88828125 12.828125 12.5390625 C13.40820312 13.26222656 13.40820312 13.26222656 14 14 C13.67 14.66 13.34 15.32 13 16 C12.52691406 15.49210937 12.05382812 14.98421875 11.56640625 14.4609375 C6.79198486 9.49107196 1.87652156 5.59120762 -4 2 C-2.68 1.34 -1.36 0.68 0 0 Z " fill="#43C57B" transform="translate(92,16)"/>
<path d="M0 0 C1.51400391 0.01740234 1.51400391 0.01740234 3.05859375 0.03515625 C4.07050781 0.04417969 5.08242187 0.05320312 6.125 0.0625 C7.29869141 0.07990234 7.29869141 0.07990234 8.49609375 0.09765625 C8.49609375 2.07765625 8.49609375 4.05765625 8.49609375 6.09765625 C8.16609375 6.09765625 7.83609375 6.09765625 7.49609375 6.09765625 C7.49609375 4.44765625 7.49609375 2.79765625 7.49609375 1.09765625 C4.57979262 1.04016068 4.57979262 1.04016068 1.49609375 2.09765625 C0.00348965 4.37210059 -0.64632636 6.47727324 -1.50390625 9.09765625 C-2.16390625 9.09765625 -2.82390625 9.09765625 -3.50390625 9.09765625 C-3.6015625 2.9453125 -3.6015625 2.9453125 -3.50390625 1.09765625 C-2.50390625 0.09765625 -2.50390625 0.09765625 0 0 Z " fill="#34BE73" transform="translate(3.50390625,67.90234375)"/>
<path d="M0 0 C6.0097891 5.47951359 10.95450277 12.0225608 13 20 C12.34 20 11.68 20 11 20 C9 17 9 17 9 13 C8.34 13 7.68 13 7 13 C5.52734375 10.91796875 5.52734375 10.91796875 3.9375 8.1875 C3.41027344 7.29417969 2.88304688 6.40085937 2.33984375 5.48046875 C1 3 1 3 0 0 Z " fill="#45C57B" transform="translate(110,19)"/>
<path d="M0 0 C0 0.66 0 1.32 0 2 C0.99 1.67 1.98 1.34 3 1 C4.4606285 3.64738916 5 4.89448334 5 8 C2.7314987 6.98308562 1.21250001 6.26079546 -0.375 4.3125 C-2.06878267 2.63062691 -2.06878267 2.63062691 -5.1875 3.3125 C-6.5796875 3.6528125 -6.5796875 3.6528125 -8 4 C-4.5 0 -4.5 0 0 0 Z " fill="#34C575" transform="translate(34,89)"/>
<path d="M0 0 C0.2475 0.556875 0.495 1.11375 0.75 1.6875 C2.2880785 4.53294523 3.70074305 6.70074305 6 9 C9.64182335 9.89055736 9.64182335 9.89055736 13 10 C10 12 10 12 7.80859375 11.828125 C7.02613281 11.63734375 6.24367188 11.4465625 5.4375 11.25 C4.65246094 11.06953125 3.86742187 10.8890625 3.05859375 10.703125 C1 10 1 10 -1 8 C-0.34 8 0.32 8 1 8 C0.67 5.36 0.34 2.72 0 0 Z " fill="#37C679" transform="translate(57,60)"/>
<path d="M0 0 C0.66 0 1.32 0 2 0 C1.4520917 4.2829452 -0.02432804 6.85135641 -2.5625 10.3125 C-3.20316406 11.19550781 -3.84382813 12.07851562 -4.50390625 12.98828125 C-4.99761719 13.65214844 -5.49132812 14.31601563 -6 15 C-6 11.38970831 -5.03907418 8.44193324 -4 5 C-2.68 4.67 -1.36 4.34 0 4 C0 2.68 0 1.36 0 0 Z " fill="#3CC378" transform="translate(120,90)"/>
<path d="M0 0 C2.56864728 1.28432364 2.946539 2.36634751 4 5 C4 6.32 4 7.64 4 9 C5.98 9 7.96 9 10 9 C8.1875 10.5625 8.1875 10.5625 6 12 C3 11 3 11 1.83203125 8.71484375 C1.49558594 7.79832031 1.15914063 6.88179688 0.8125 5.9375 C0.46832031 5.01839844 0.12414062 4.09929687 -0.23046875 3.15234375 C-0.48441406 2.44207031 -0.73835938 1.73179688 -1 1 C-0.67 0.67 -0.34 0.34 0 0 Z " fill="#40B973" transform="translate(77,90)"/>
<path d="M0 0 C2.96010082 1.48005041 3.03167846 3.82306631 4.0703125 6.7890625 C5.53753464 10.27833869 7.69524816 13.01005167 10 16 C9.67 16.66 9.34 17.32 9 18 C0.27728873 7.66197183 0.27728873 7.66197183 -0.3125 2 C-0.209375 1.34 -0.10625 0.68 0 0 Z " fill="#45C57D" transform="translate(5,87)"/>
<path d="M0 0 C1.26041675 2.5208335 0.66225891 3.35096436 0 6 C0.33 6.66 0.66 7.32 1 8 C-0.32 8.33 -1.64 8.66 -3 9 C-3.66 11.64 -4.32 14.28 -5 17 C-5.66 16.67 -6.32 16.34 -7 16 C-5.42334814 9.95616788 -3.80824293 4.99011142 0 0 Z " fill="#44CA7D" transform="translate(10,28)"/>
<path d="M0 0 C0.71285156 0.20496094 1.42570312 0.40992187 2.16015625 0.62109375 C7.43976749 2.10620647 12.54711116 3.39412346 18 4 C18 5.65 18 7.3 18 9 C17.67 7.68 17.34 6.36 17 5 C16.19175781 5.03480469 15.38351563 5.06960937 14.55078125 5.10546875 C13.48214844 5.13253906 12.41351563 5.15960938 11.3125 5.1875 C9.72888672 5.23970703 9.72888672 5.23970703 8.11328125 5.29296875 C4.61841396 4.96409165 2.77061447 4.12293836 0 2 C0 1.34 0 0.68 0 0 Z " fill="#49C37E" transform="translate(50,90)"/>
<path d="M0 0 C4.12751449 0.60698743 7.3321148 2.03810791 11 4 C11 4.33 11 4.66 11 5 C12.65 5.33 14.3 5.66 16 6 C13 8 13 8 10.625 7.9375 C7.20522286 6.71615102 5.50786511 4.57386156 3 2 C2.01 2 1.02 2 0 2 C0 1.34 0 0.68 0 0 Z " fill="#3DBF78" transform="translate(50,77)"/>
<path d="M0 0 C-0.33 0.66 -0.66 1.32 -1 2 C-2.32 2 -3.64 2 -5 2 C-4.67 3.98 -4.34 5.96 -4 8 C-4.99 8.66 -5.98 9.32 -7 10 C-7.66 9.67 -8.32 9.34 -9 9 C-9 5 -9 5 -8 2 C-4.77208445 -0.1519437 -3.71599191 -0.20086443 0 0 Z " fill="#16D86A" transform="translate(36,12)"/>
<path d="M0 0 C0.66 0 1.32 0 2 0 C2.08333357 4.8333472 1.95261487 9.23692563 1 14 C-0.32 14 -1.64 14 -3 14 C-3 13.34 -3 12.68 -3 12 C-2.34 12 -1.68 12 -1 12 C-0.67 8.04 -0.34 4.08 0 0 Z " fill="#39C675" transform="translate(126,66)"/>
<path d="M0 0 C0.66 0.33 1.32 0.66 2 1 C1.54109375 1.49628906 1.0821875 1.99257813 0.609375 2.50390625 C-3.25719293 6.78474931 -6.33517615 10.88353821 -9 16 C-10 13 -10 13 -9.22265625 10.95703125 C-8.83980469 10.24933594 -8.45695312 9.54164062 -8.0625 8.8125 C-7.68222656 8.09707031 -7.30195313 7.38164063 -6.91015625 6.64453125 C-6.60980469 6.10183594 -6.30945313 5.55914062 -6 5 C-5.34 5 -4.68 5 -4 5 C-3.566875 4.0409375 -3.566875 4.0409375 -3.125 3.0625 C-2 1 -2 1 0 0 Z " fill="#42C278" transform="translate(26,26)"/>
<path d="M0 0 C-3.14591933 2.80045623 -5.067064 3.35261589 -9.25 3.1875 C-10.14203125 3.16042969 -11.0340625 3.13335937 -11.953125 3.10546875 C-12.62859375 3.07066406 -13.3040625 3.03585937 -14 3 C-14 2.34 -14 1.68 -14 1 C-9.32798795 -0.20568053 -4.78503708 -0.09382426 0 0 Z " fill="#2DCA71" transform="translate(62,0)"/>
<path d="M0 0 C1.66905241 3.33810482 2.8741386 6.46157845 4 10 C4.99 10 5.98 10 7 10 C6.67 10.99 6.34 11.98 6 13 C4.35 12.67 2.7 12.34 1 12 C0.67 8.04 0.34 4.08 0 0 Z " fill="#38C078" transform="translate(12,74)"/>
<path d="M0 0 C0.33 0.66 0.66 1.32 1 2 C1.66 2 2.32 2 3 2 C2.01 4.97 1.02 7.94 0 11 C-0.66 11 -1.32 11 -2 11 C-1.85892253 9.54119891 -1.71197585 8.08296449 -1.5625 6.625 C-1.48128906 5.81289063 -1.40007813 5.00078125 -1.31640625 4.1640625 C-1 2 -1 2 0 0 Z " fill="#1AD869" transform="translate(30,41)"/>
<path d="M0 0 C1.10844919 3.32534757 0.84454356 5.62182575 0 9 C1.32 9 2.64 9 4 9 C4.66 10.32 5.32 11.64 6 13 C0.25 11.125 0.25 11.125 -2 10 C-1.54177532 6.53058454 -1.10868317 3.32604951 0 0 Z " fill="#47C07C" transform="translate(75,26)"/>
<path d="M0 0 C7.26 0.33 14.52 0.66 22 1 C22 1.33 22 1.66 22 2 C16.06 2 10.12 2 4 2 C3.67 2.66 3.34 3.32 3 4 C2.67 3.01 2.34 2.02 2 1 C1.34 0.67 0.68 0.34 0 0 Z " fill="#28D370" transform="translate(51,116)"/>
<path d="M0 0 C0.66 0.33 1.32 0.66 2 1 C-1.52127761 5.5929708 -5.57747597 6.11941917 -11 7 C-10 5 -10 5 -7.625 3.875 C-5 3 -5 3 -2 3 C-2 2.34 -2 1.68 -2 1 C-1.34 0.67 -0.68 0.34 0 0 Z " fill="#3FC073" transform="translate(77,76)"/>
<path d="M0 0 C5.77378925 0.4811491 9.95859836 2.18467181 15 5 C12.19966161 6.11346788 11.09856297 6.03510273 8.203125 5.00390625 C7.22859375 4.52824219 6.2540625 4.05257812 5.25 3.5625 C4.26515625 3.08941406 3.2803125 2.61632812 2.265625 2.12890625 C1.51796875 1.75636719 0.7703125 1.38382812 0 1 C0 0.67 0 0.34 0 0 Z " fill="#3FBE7D" transform="translate(33,120)"/>
<path d="M0 0 C-0.33 1.98 -0.66 3.96 -1 6 C-2.65 5.67 -4.3 5.34 -6 5 C-4.87312259 1.61936778 -3.78825335 0 0 0 Z " fill="#18D968" transform="translate(68,45)"/>
<path d="M0 0 C0.66 0.33 1.32 0.66 2 1 C-0.20841794 4.37074318 -2.39325122 6.19662561 -6 8 C-6.99 8 -7.98 8 -9 8 C-6.03 5.36 -3.06 2.72 0 0 Z " fill="#40BD77" transform="translate(41,28)"/>
<path d="M0 0 C0.66 0 1.32 0 2 0 C2.33 0.99 2.66 1.98 3 3 C0.64031256 5.09749995 -0.54616994 5.96905704 -3.75 6.1875 C-4.86375 6.0946875 -4.86375 6.0946875 -6 6 C-5.01 5.67 -4.02 5.34 -3 5 C-2.67 4.01 -2.34 3.02 -2 2 C-1.34 2 -0.68 2 0 2 C0 1.34 0 0.68 0 0 Z " fill="#2FCB6F" transform="translate(89,93)"/>
<path d="M0 0 C1.98 0.66 3.96 1.32 6 2 C6 1.34 6 0.68 6 0 C6.99 0.33 7.98 0.66 9 1 C8.34 2.32 7.68 3.64 7 5 C4.11424181 4.60196439 3.17810487 4.20990931 1.25 1.9375 C0.8375 1.298125 0.425 0.65875 0 0 Z " fill="#33CA75" transform="translate(81,39)"/>
<path d="M0 0 C3.3 0.99 6.6 1.98 10 3 C10 3.33 10 3.66 10 4 C8.88625 3.979375 7.7725 3.95875 6.625 3.9375 C3.16784079 3.73619282 3.16784079 3.73619282 1 5 C0.67 3.35 0.34 1.7 0 0 Z " fill="#24D571" transform="translate(40,112)"/>
<path d="M0 0 C5.875 3.625 5.875 3.625 7 7 C5.35 7.33 3.7 7.66 2 8 C2 7.01 2 6.02 2 5 C1.37400383 3.31763529 0.71247732 1.6476038 0 0 Z " fill="#36CB75" transform="translate(44,86)"/>
<path d="M0 0 C-1.45738102 0.98058352 -2.91593675 1.95942132 -4.375 2.9375 C-5.18710937 3.48277344 -5.99921875 4.02804688 -6.8359375 4.58984375 C-9 6 -9 6 -11 7 C-10.34 5.35 -9.68 3.7 -9 2 C-8.34 2 -7.68 2 -7 2 C-6.67 1.34 -6.34 0.68 -6 0 C-3 -1 -3 -1 0 0 Z " fill="#47C17C" transform="translate(39,19)"/>
<path d="M0 0 C5.78461538 3.32307692 5.78461538 3.32307692 6.875 6.75 C6.936875 7.86375 6.936875 7.86375 7 9 C6.01 8.67 5.02 8.34 4 8 C3.65657551 6.66923011 3.32380126 5.33568021 3 4 C2.01 3.34 1.02 2.68 0 2 C0 1.34 0 0.68 0 0 Z " fill="#38C474" transform="translate(29,103)"/>
<path d="M0 0 C0.66 0 1.32 0 2 0 C2.05399736 1.45792884 2.09279177 2.91642712 2.125 4.375 C2.14820313 5.18710938 2.17140625 5.99921875 2.1953125 6.8359375 C2 9 2 9 0 11 C-1.28571429 3.57142857 -1.28571429 3.57142857 0 0 Z " fill="#38CC7A" transform="translate(2,73)"/>
<path d="M0 0 C1.98 0.66 3.96 1.32 6 2 C6 2.33 6 2.66 6 3 C4.6078125 3.1546875 4.6078125 3.1546875 3.1875 3.3125 C-0.03254358 4.0070192 -1.02579865 4.47740939 -3 7 C-1.125 2.25 -1.125 2.25 0 0 Z " fill="#48B676" transform="translate(111,86)"/>
<path d="M0 0 C0.66 1.32 1.32 2.64 2 4 C0.35 5.32 -1.3 6.64 -3 8 C-3.33 7.34 -3.66 6.68 -4 6 C-3.34 6 -2.68 6 -2 6 C-2.33 5.01 -2.66 4.02 -3 3 C-2.01 2.01 -1.02 1.02 0 0 Z " fill="#3ECA77" transform="translate(111,103)"/>
<path d="M0 0 C0.66 0.33 1.32 0.66 2 1 C1.34 3.64 0.68 6.28 0 9 C-1.65 9 -3.3 9 -5 9 C-3.68 8.67 -2.36 8.34 -1 8 C-1.309375 6.576875 -1.309375 6.576875 -1.625 5.125 C-1.74875 4.09375 -1.8725 3.0625 -2 2 C-1.34 1.34 -0.68 0.68 0 0 Z " fill="#23D670" transform="translate(11,48)"/>
<path d="M0 0 C2.64 0 5.28 0 8 0 C8 0.66 8 1.32 8 2 C8.99 2.33 9.98 2.66 11 3 C9 4 9 4 6.8359375 3.44140625 C6.02382812 3.15136719 5.21171875 2.86132812 4.375 2.5625 C3.55773437 2.27503906 2.74046875 1.98757813 1.8984375 1.69140625 C1.27195312 1.46324219 0.64546875 1.23507812 0 1 C0 0.67 0 0.34 0 0 Z " fill="#42BF79" transform="translate(77,13)"/>
<path d="M0 0 C0.99 0.33 1.98 0.66 3 1 C1.19587357 4.26460973 0.16605307 5.88929795 -3 8 C-2.67 6.68 -2.34 5.36 -2 4 C-1.34 4 -0.68 4 0 4 C0 2.68 0 1.36 0 0 Z " fill="#38C06F" transform="translate(95,87)"/>
<path d="M0 0 C3.93673644 1.31224548 6.22719294 2.91910327 9 6 C7.35 5.67 5.7 5.34 4 5 C4 4.34 4 3.68 4 3 C3.01 3 2.02 3 1 3 C0.67 2.01 0.34 1.02 0 0 Z " fill="#44C57C" transform="translate(98,10)"/>
</svg>
